<svg width="100%" height="100%" viewBox="0 0 242 28" fill="none" xmlns="http://www.w3.org/2000/svg">
<g clip-path="url(#clip0_6184_29909)">
<path d="M77.2578 25.2493V3.95928H92.8767V7.5851H81.5344V12.3265H91.4822V15.8594H81.5344V21.6235H92.9697V25.2493H77.2578ZM98.2689 25.2493L92.9697 10.0023H97.0603L99.4776 17.9047C99.9424 19.3922 100.128 20.3219 100.128 20.3219H100.221C100.221 20.3219 100.407 19.2993 100.872 17.9047L103.382 10.0023H107.473L102.174 25.2493H98.2689ZM115.282 25.7142C110.262 25.7142 107.38 22.1813 107.38 17.6258C107.38 13.0703 110.448 9.63043 114.911 9.63043C119.838 9.63043 122.441 13.3492 122.441 18.8344H111.378C111.657 21.1587 112.958 22.6462 115.282 22.6462C116.863 22.6462 117.793 21.9024 118.257 20.7868H122.255C121.604 23.3899 119.28 25.7142 115.282 25.7142ZM115.003 12.6984C112.865 12.6984 111.843 14 111.471 15.9524H118.257C118.071 14 116.863 12.6984 115.003 12.6984ZM128.019 10.0023V12.0476H128.112C129.135 10.3742 130.529 9.53746 132.668 9.53746C135.829 9.53746 137.967 11.9547 137.967 15.2086V25.1564H133.876V15.8594C133.876 14.1859 132.947 13.0703 131.273 13.0703C129.507 13.0703 128.205 14.4648 128.205 16.6032V25.2493H124.114V10.0023H128.019ZM138.897 12.6055V10.0023H141.035V5.16789H145.033V9.90934H147.636V12.6055H145.033V20.6938C145.033 21.8094 145.683 22.1813 146.52 22.1813C146.985 22.1813 147.729 22.1813 147.729 22.1813V25.1564C147.729 25.1564 146.799 25.2493 145.219 25.2493C143.266 25.2493 141.128 24.5056 141.128 21.6235V12.6984H138.897V12.6055ZM162.604 25.7142C156.84 25.7142 153.586 23.111 153.4 18.6485H157.584C157.862 21.2516 159.35 22.1813 162.418 22.1813C164.649 22.1813 166.509 21.4376 166.509 19.4852C166.509 17.4399 164.463 16.975 161.209 16.2313C157.398 15.3945 153.958 14.3719 153.958 9.90934C153.958 5.7257 157.398 3.5874 162.139 3.5874C166.973 3.5874 170.041 5.91164 170.32 10.1882H166.23C165.951 8.04995 164.37 6.93431 162.139 6.93431C159.815 6.93431 158.327 7.95698 158.327 9.44449C158.327 11.2109 159.815 11.6758 162.976 12.3265C167.345 13.2562 170.878 14.2789 170.878 18.9274C170.878 23.297 167.438 25.7142 162.604 25.7142ZM179.896 25.7142C175.062 25.7142 172.087 22.1813 172.087 17.6258C172.087 13.0703 175.062 9.53746 179.71 9.53746C183.708 9.53746 186.125 11.8617 186.683 15.1156H182.685C182.406 13.8141 181.384 12.7914 179.896 12.7914C177.479 12.7914 176.177 14.6508 176.177 17.6258C176.177 20.5079 177.293 22.4602 179.803 22.4602C181.477 22.4602 182.592 21.6235 182.871 19.8571H186.776C186.497 23.111 183.987 25.7142 179.896 25.7142ZM192.261 3.95928V11.9547H192.354C193.47 10.3742 194.678 9.53746 196.817 9.53746C199.978 9.53746 202.116 11.9547 202.116 15.2086V25.1564H198.025V15.8594C198.025 14.1859 197.096 13.0703 195.422 13.0703C193.656 13.0703 192.354 14.4648 192.354 16.6032V25.2493H188.264V3.95928H192.261ZM211.506 25.7142C206.764 25.7142 203.511 22.1813 203.511 17.6258C203.511 13.0703 206.764 9.53746 211.506 9.53746C216.247 9.53746 219.501 13.0703 219.501 17.6258C219.501 22.1813 216.247 25.7142 211.506 25.7142ZM211.506 22.5532C214.016 22.5532 215.411 20.6008 215.411 17.6258C215.411 14.6508 214.016 12.6055 211.506 12.6055C208.996 12.6055 207.601 14.6508 207.601 17.6258C207.601 20.6008 208.996 22.5532 211.506 22.5532ZM228.333 25.7142C223.592 25.7142 220.338 22.1813 220.338 17.6258C220.338 13.0703 223.592 9.53746 228.333 9.53746C233.075 9.53746 236.329 13.0703 236.329 17.6258C236.329 22.1813 232.982 25.7142 228.333 25.7142ZM228.333 22.5532C230.844 22.5532 232.238 20.6008 232.238 17.6258C232.238 14.6508 230.844 12.6055 228.333 12.6055C225.823 12.6055 224.429 14.6508 224.429 17.6258C224.429 20.6008 225.823 22.5532 228.333 22.5532ZM237.909 25.2493V3.95928H242V25.2493H237.909Z" fill="#02003A"/>
<path d="M11.6212 6.93435C15.5259 6.93435 18.6869 10.0953 18.6869 14C18.6869 17.9048 15.5259 21.0657 11.6212 21.0657C7.71648 21.0657 4.55551 17.9048 4.55551 14C4.55551 10.0953 7.71648 6.93435 11.6212 6.93435ZM11.6212 2.4718C5.2063 2.4718 0 7.58513 0 14C0 20.415 5.2063 25.6213 11.6212 25.6213C18.0361 25.6213 23.3354 20.415 23.3354 14C23.3354 7.58513 18.1291 2.4718 11.6212 2.4718Z" fill="#02003A"/>
<path d="M41.4646 16.1383C40.5349 19.0204 37.8388 21.0657 34.6778 21.0657C30.7731 21.0657 27.6122 17.9048 27.6122 14C27.6122 10.0953 30.7731 6.93435 34.6778 6.93435C37.7458 6.93435 40.349 8.88671 41.3717 11.5828H46.1131C44.9975 6.37653 40.256 2.4718 34.6778 2.4718C28.2629 2.4718 23.0566 7.6781 23.0566 14.093C23.0566 20.5079 28.2629 25.7142 34.6778 25.7142C40.442 25.7142 45.1834 21.6236 46.1131 16.2313L41.4646 16.1383Z" fill="#02003A"/>
<path d="M12.3652 17.3469L21.7552 26.458L25.195 23.39L19.0591 17.3469" fill="#02003A"/>
<path d="M62.3831 0.79834H57.6416V27.2017H62.3831V0.79834Z" fill="#33CFCF"/>
</g>
<defs>
<clipPath id="clip0_6184_29909">
<rect width="242" height="26.4034" fill="white" transform="translate(0 0.79834)"/>
</clipPath>
</defs>
</svg>
