<?xml version="1.0" encoding="UTF-8"?>
<svg id="Layer_1" xmlns="http://www.w3.org/2000/svg" version="1.1" xmlns:xlink="http://www.w3.org/1999/xlink" viewBox="0 0 247.83 215.68">
  <!-- Generator: Adobe Illustrator 30.5.1, SVG Export Plug-In . SVG Version: 2.1.4 Build 3)  -->
  <defs>
    <style>
      .st0 {
        fill: url(#linear-gradient134);
      }

      .st1 {
        fill: url(#linear-gradient139);
      }

      .st2 {
        fill: url(#linear-gradient75);
      }

      .st3 {
        fill: url(#linear-gradient2);
      }

      .st4 {
        fill: url(#linear-gradient81);
      }

      .st5 {
        fill: url(#linear-gradient120);
      }

      .st6 {
        fill: url(#linear-gradient36);
      }

      .st7 {
        fill: url(#linear-gradient39);
      }

      .st8 {
        fill: url(#linear-gradient107);
      }

      .st9 {
        fill: url(#linear-gradient130);
      }

      .st10 {
        fill: url(#linear-gradient34);
      }

      .st11 {
        fill: url(#linear-gradient58);
      }

      .st12 {
        fill: url(#linear-gradient131);
      }

      .st13 {
        fill: url(#linear-gradient73);
      }

      .st14 {
        fill: url(#linear-gradient83);
      }

      .st15 {
        fill: url(#linear-gradient129);
      }

      .st16 {
        fill: url(#linear-gradient33);
      }

      .st17 {
        fill: url(#linear-gradient10);
      }

      .st18 {
        fill: url(#linear-gradient63);
      }

      .st19 {
        fill: url(#linear-gradient147);
      }

      .st20 {
        fill: url(#linear-gradient82);
      }

      .st21 {
        fill: url(#linear-gradient71);
      }

      .st22 {
        fill: url(#linear-gradient32);
      }

      .st23 {
        fill: url(#linear-gradient123);
      }

      .st24 {
        fill: #231f20;
      }

      .st25 {
        fill: url(#linear-gradient21);
      }

      .st26 {
        fill: url(#linear-gradient85);
      }

      .st27 {
        fill: url(#linear-gradient112);
      }

      .st28 {
        fill: url(#linear-gradient37);
      }

      .st29 {
        fill: url(#linear-gradient56);
      }

      .st30 {
        fill: url(#linear-gradient27);
      }

      .st31 {
        fill: url(#linear-gradient146);
      }

      .st32 {
        fill: url(#linear-gradient148);
      }

      .st33 {
        fill: url(#linear-gradient126);
      }

      .st34 {
        fill: url(#linear-gradient53);
      }

      .st35 {
        fill: url(#linear-gradient57);
      }

      .st36 {
        fill: url(#linear-gradient113);
      }

      .st37 {
        fill: url(#linear-gradient35);
      }

      .st38 {
        fill: url(#linear-gradient116);
      }

      .st39 {
        fill: url(#linear-gradient119);
      }

      .st40 {
        fill: #fff;
      }

      .st41 {
        fill: url(#linear-gradient26);
      }

      .st42 {
        fill: url(#linear-gradient1);
      }

      .st43 {
        fill: url(#linear-gradient118);
      }

      .st44 {
        fill: url(#linear-gradient109);
      }

      .st45 {
        fill: url(#linear-gradient9);
      }

      .st46 {
        fill: url(#linear-gradient125);
      }

      .st47 {
        fill: url(#linear-gradient18);
      }

      .st48 {
        fill: url(#linear-gradient61);
      }

      .st49 {
        fill: url(#linear-gradient101);
      }

      .st50 {
        fill: url(#linear-gradient132);
      }

      .st51 {
        fill: url(#linear-gradient138);
      }

      .st52 {
        fill: url(#linear-gradient23);
      }

      .st53 {
        fill: url(#linear-gradient72);
      }

      .st54 {
        fill: url(#linear-gradient43);
      }

      .st55 {
        fill: url(#linear-gradient78);
      }

      .st56 {
        fill: url(#linear-gradient69);
      }

      .st57 {
        fill: url(#linear-gradient8);
      }

      .st58 {
        fill: url(#linear-gradient11);
      }

      .st59 {
        fill: none;
      }

      .st60 {
        fill: url(#linear-gradient104);
      }

      .st61 {
        fill: url(#linear-gradient105);
      }

      .st62 {
        fill: url(#linear-gradient16);
      }

      .st63 {
        fill: url(#linear-gradient135);
      }

      .st64 {
        fill: url(#linear-gradient24);
      }

      .st65 {
        fill: url(#linear-gradient95);
      }

      .st66 {
        fill: url(#linear-gradient137);
      }

      .st67 {
        fill: url(#linear-gradient140);
      }

      .st68 {
        fill: url(#linear-gradient30);
      }

      .st69 {
        fill: url(#linear-gradient46);
      }

      .st70 {
        fill: url(#linear-gradient114);
      }

      .st71 {
        fill: url(#linear-gradient94);
      }

      .st72 {
        fill: url(#linear-gradient22);
      }

      .st73 {
        fill: url(#linear-gradient108);
      }

      .st74 {
        fill: url(#linear-gradient29);
      }

      .st75 {
        fill: url(#linear-gradient68);
      }

      .st76 {
        fill: url(#linear-gradient49);
      }

      .st77 {
        fill: url(#linear-gradient93);
      }

      .st78 {
        fill: url(#linear-gradient106);
      }

      .st79 {
        fill: url(#linear-gradient19);
      }

      .st80 {
        fill: url(#linear-gradient12);
      }

      .st81 {
        fill: url(#linear-gradient65);
      }

      .st82 {
        fill: url(#linear-gradient128);
      }

      .st83 {
        fill: url(#linear-gradient80);
      }

      .st84 {
        fill: url(#linear-gradient142);
      }

      .st85 {
        fill: url(#linear-gradient42);
      }

      .st86 {
        fill: url(#linear-gradient28);
      }

      .st87 {
        fill: url(#linear-gradient100);
      }

      .st88 {
        fill: url(#linear-gradient67);
      }

      .st89 {
        fill: url(#linear-gradient40);
      }

      .st90 {
        fill: url(#linear-gradient66);
      }

      .st91 {
        fill: url(#linear-gradient84);
      }

      .st92 {
        fill: url(#linear-gradient111);
      }

      .st93 {
        fill: url(#linear-gradient62);
      }

      .st94 {
        fill: url(#linear-gradient152);
      }

      .st95 {
        fill: url(#linear-gradient7);
      }

      .st96 {
        fill: url(#linear-gradient59);
      }

      .st97 {
        fill: url(#linear-gradient91);
      }

      .st98 {
        fill: url(#linear-gradient20);
      }

      .st99 {
        fill: url(#linear-gradient4);
      }

      .st100 {
        fill: url(#linear-gradient31);
      }

      .st101 {
        fill: url(#linear-gradient96);
      }

      .st102 {
        fill: url(#linear-gradient79);
      }

      .st103 {
        fill: url(#linear-gradient98);
      }

      .st104 {
        fill: url(#linear-gradient14);
      }

      .st105 {
        fill: url(#linear-gradient5);
      }

      .st106 {
        fill: url(#linear-gradient74);
      }

      .st107 {
        fill: url(#linear-gradient145);
      }

      .st108 {
        fill: url(#linear-gradient3);
      }

      .st109 {
        fill: url(#linear-gradient149);
      }

      .st110 {
        fill: url(#linear-gradient102);
      }

      .st111 {
        fill: url(#linear-gradient87);
      }

      .st112 {
        fill: url(#linear-gradient55);
      }

      .st113 {
        fill: url(#linear-gradient38);
      }

      .st114 {
        fill: url(#linear-gradient25);
      }

      .st115 {
        fill: url(#linear-gradient99);
      }

      .st116 {
        fill: url(#linear-gradient121);
      }

      .st117 {
        fill: url(#linear-gradient52);
      }

      .st118 {
        fill: url(#linear-gradient15);
      }

      .st119 {
        fill: url(#linear-gradient136);
      }

      .st120 {
        fill: url(#linear-gradient144);
      }

      .st121 {
        fill: url(#linear-gradient88);
      }

      .st122 {
        fill: url(#linear-gradient17);
      }

      .st123 {
        fill: #e5c63f;
      }

      .st124 {
        fill: url(#linear-gradient54);
      }

      .st125 {
        fill: url(#linear-gradient141);
      }

      .st126 {
        fill: url(#linear-gradient50);
      }

      .st127 {
        fill: url(#linear-gradient103);
      }

      .st128 {
        fill: url(#linear-gradient124);
      }

      .st129 {
        fill: url(#linear-gradient89);
      }

      .st130 {
        fill: url(#linear-gradient51);
      }

      .st131 {
        fill: url(#linear-gradient6);
      }

      .st132 {
        fill: url(#linear-gradient92);
      }

      .st133 {
        fill: url(#linear-gradient77);
      }

      .st134 {
        fill: url(#linear-gradient117);
      }

      .st135 {
        fill: url(#linear-gradient86);
      }

      .st136 {
        fill: url(#linear-gradient64);
      }

      .st137 {
        fill: url(#linear-gradient90);
      }

      .st138 {
        fill: url(#linear-gradient115);
      }

      .st139 {
        fill: url(#linear-gradient70);
      }

      .st140 {
        fill: url(#linear-gradient76);
      }

      .st141 {
        fill: url(#linear-gradient48);
      }

      .st142 {
        fill: url(#linear-gradient122);
      }

      .st143 {
        fill: url(#linear-gradient13);
      }

      .st144 {
        fill: url(#linear-gradient45);
      }

      .st145 {
        fill: url(#linear-gradient97);
      }

      .st146 {
        fill: url(#linear-gradient47);
      }

      .st147 {
        fill: url(#linear-gradient60);
      }

      .st148 {
        fill: url(#linear-gradient);
      }

      .st149 {
        fill: url(#linear-gradient44);
      }

      .st150 {
        fill: url(#linear-gradient41);
      }

      .st151 {
        fill: url(#linear-gradient133);
      }

      .st152 {
        fill: url(#linear-gradient127);
      }

      .st153 {
        fill: url(#linear-gradient151);
      }

      .st154 {
        fill: url(#linear-gradient150);
      }

      .st155 {
        fill: url(#linear-gradient110);
      }

      .st156 {
        fill: url(#linear-gradient143);
      }
    </style>
    <linearGradient id="linear-gradient" x1="85.67" y1="154.97" x2="85.67" y2="1.41" gradientUnits="userSpaceOnUse">
      <stop offset="0" stop-color="#af8221"/>
      <stop offset=".61" stop-color="#c7942d"/>
      <stop offset="1" stop-color="#d29d33"/>
    </linearGradient>
    <linearGradient id="linear-gradient1" x1="148.85" y1="82.59" x2="154.64" y2="82.59" xlink:href="#linear-gradient"/>
    <linearGradient id="linear-gradient2" x1="148.87" y1="85.88" x2="154.45" y2="85.88" xlink:href="#linear-gradient"/>
    <linearGradient id="linear-gradient3" x1="148.73" y1="89.17" x2="154.09" y2="89.17" xlink:href="#linear-gradient"/>
    <linearGradient id="linear-gradient4" x1="148.44" y1="92.44" x2="153.57" y2="92.44" xlink:href="#linear-gradient"/>
    <linearGradient id="linear-gradient5" x1="147.99" y1="95.69" x2="152.88" y2="95.69" xlink:href="#linear-gradient"/>
    <linearGradient id="linear-gradient6" x1="147.38" y1="98.9" x2="152.02" y2="98.9" xlink:href="#linear-gradient"/>
    <linearGradient id="linear-gradient7" x1="146.61" y1="102.07" x2="151" y2="102.07" xlink:href="#linear-gradient"/>
    <linearGradient id="linear-gradient8" x1="145.69" y1="105.19" x2="149.82" y2="105.19" xlink:href="#linear-gradient"/>
    <linearGradient id="linear-gradient9" x1="144.62" y1="108.26" x2="148.48" y2="108.26" xlink:href="#linear-gradient"/>
    <linearGradient id="linear-gradient10" x1="143.4" y1="111.26" x2="146.98" y2="111.26" xlink:href="#linear-gradient"/>
    <linearGradient id="linear-gradient11" x1="142.03" y1="114.19" x2="145.34" y2="114.19" xlink:href="#linear-gradient"/>
    <linearGradient id="linear-gradient12" x1="140.52" y1="117.04" x2="143.55" y2="117.04" xlink:href="#linear-gradient"/>
    <linearGradient id="linear-gradient13" x1="138.87" y1="119.8" x2="141.61" y2="119.8" xlink:href="#linear-gradient"/>
    <linearGradient id="linear-gradient14" x1="137.09" y1="122.47" x2="139.54" y2="122.47" xlink:href="#linear-gradient"/>
    <linearGradient id="linear-gradient15" x1="135.18" y1="125.04" x2="137.34" y2="125.04" xlink:href="#linear-gradient"/>
    <linearGradient id="linear-gradient16" x1="133.14" y1="127.51" x2="135.02" y2="127.51" xlink:href="#linear-gradient"/>
    <linearGradient id="linear-gradient17" x1="130.9" y1="129.87" x2="132.62" y2="129.87" xlink:href="#linear-gradient"/>
    <linearGradient id="linear-gradient18" x1="128.33" y1="132.1" x2="130.33" y2="132.1" xlink:href="#linear-gradient"/>
    <linearGradient id="linear-gradient19" x1="125.66" y1="134.22" x2="127.95" y2="134.22" xlink:href="#linear-gradient"/>
    <linearGradient id="linear-gradient20" x1="122.88" y1="136.21" x2="125.47" y2="136.21" xlink:href="#linear-gradient"/>
    <linearGradient id="linear-gradient21" x1="120.02" y1="138.06" x2="122.88" y2="138.06" xlink:href="#linear-gradient"/>
    <linearGradient id="linear-gradient22" x1="117.06" y1="139.78" x2="120.21" y2="139.78" xlink:href="#linear-gradient"/>
    <linearGradient id="linear-gradient23" x1="114.03" y1="141.35" x2="117.46" y2="141.35" xlink:href="#linear-gradient"/>
    <linearGradient id="linear-gradient24" x1="110.92" y1="142.78" x2="114.62" y2="142.78" xlink:href="#linear-gradient"/>
    <linearGradient id="linear-gradient25" x1="107.74" y1="144.06" x2="111.72" y2="144.06" xlink:href="#linear-gradient"/>
    <linearGradient id="linear-gradient26" x1="104.51" y1="145.18" x2="108.76" y2="145.18" xlink:href="#linear-gradient"/>
    <linearGradient id="linear-gradient27" x1="101.23" y1="146.15" x2="105.73" y2="146.15" xlink:href="#linear-gradient"/>
    <linearGradient id="linear-gradient28" x1="97.91" y1="146.96" x2="102.67" y2="146.96" xlink:href="#linear-gradient"/>
    <linearGradient id="linear-gradient29" x1="94.56" y1="147.6" x2="99.56" y2="147.6" xlink:href="#linear-gradient"/>
    <linearGradient id="linear-gradient30" x1="91.18" y1="148.09" x2="96.41" y2="148.09" xlink:href="#linear-gradient"/>
    <linearGradient id="linear-gradient31" x1="87.79" y1="148.41" x2="93.25" y2="148.41" xlink:href="#linear-gradient"/>
    <linearGradient id="linear-gradient32" x1="84.39" y1="148.57" x2="90.06" y2="148.57" xlink:href="#linear-gradient"/>
    <linearGradient id="linear-gradient33" x1="80.99" y1="148.57" x2="86.87" y2="148.57" xlink:href="#linear-gradient"/>
    <linearGradient id="linear-gradient34" x1="77.61" y1="148.4" x2="83.67" y2="148.4" xlink:href="#linear-gradient"/>
    <linearGradient id="linear-gradient35" x1="74.23" y1="148.08" x2="80.48" y2="148.08" xlink:href="#linear-gradient"/>
    <linearGradient id="linear-gradient36" x1="70.89" y1="147.59" x2="77.31" y2="147.59" xlink:href="#linear-gradient"/>
    <linearGradient id="linear-gradient37" x1="67.58" y1="146.93" x2="74.16" y2="146.93" xlink:href="#linear-gradient"/>
    <linearGradient id="linear-gradient38" x1="64.31" y1="146.12" x2="71.05" y2="146.12" xlink:href="#linear-gradient"/>
    <linearGradient id="linear-gradient39" x1="61.09" y1="145.15" x2="67.97" y2="145.15" xlink:href="#linear-gradient"/>
    <linearGradient id="linear-gradient40" x1="57.94" y1="144.02" x2="64.93" y2="144.02" xlink:href="#linear-gradient"/>
    <linearGradient id="linear-gradient41" x1="54.85" y1="142.74" x2="61.96" y2="142.74" xlink:href="#linear-gradient"/>
    <linearGradient id="linear-gradient42" x1="51.83" y1="141.31" x2="59.04" y2="141.31" xlink:href="#linear-gradient"/>
    <linearGradient id="linear-gradient43" x1="48.9" y1="139.73" x2="56.19" y2="139.73" xlink:href="#linear-gradient"/>
    <linearGradient id="linear-gradient44" x1="46.06" y1="138" x2="53.42" y2="138" xlink:href="#linear-gradient"/>
    <linearGradient id="linear-gradient45" x1="43.32" y1="136.14" x2="50.72" y2="136.14" xlink:href="#linear-gradient"/>
    <linearGradient id="linear-gradient46" x1="40.68" y1="134.14" x2="48.12" y2="134.14" xlink:href="#linear-gradient"/>
    <linearGradient id="linear-gradient47" x1="38.14" y1="132.02" x2="45.61" y2="132.02" xlink:href="#linear-gradient"/>
    <linearGradient id="linear-gradient48" x1="35.73" y1="129.78" x2="43.2" y2="129.78" xlink:href="#linear-gradient"/>
    <linearGradient id="linear-gradient49" x1="33.43" y1="127.39" x2="40.9" y2="127.39" xlink:href="#linear-gradient"/>
    <linearGradient id="linear-gradient50" x1="31.26" y1="124.92" x2="38.71" y2="124.92" xlink:href="#linear-gradient"/>
    <linearGradient id="linear-gradient51" x1="29.22" y1="122.34" x2="36.65" y2="122.34" xlink:href="#linear-gradient"/>
    <linearGradient id="linear-gradient52" x1="27.32" y1="119.66" x2="34.7" y2="119.66" xlink:href="#linear-gradient"/>
    <linearGradient id="linear-gradient53" x1="25.57" y1="116.89" x2="32.89" y2="116.89" xlink:href="#linear-gradient"/>
    <linearGradient id="linear-gradient54" x1="23.96" y1="114.04" x2="31.21" y2="114.04" xlink:href="#linear-gradient"/>
    <linearGradient id="linear-gradient55" x1="22.5" y1="111.1" x2="29.66" y2="111.1" xlink:href="#linear-gradient"/>
    <linearGradient id="linear-gradient56" x1="21.2" y1="108.1" x2="28.26" y2="108.1" xlink:href="#linear-gradient"/>
    <linearGradient id="linear-gradient57" x1="20.05" y1="105.03" x2="27" y2="105.03" xlink:href="#linear-gradient"/>
    <linearGradient id="linear-gradient58" x1="19.08" y1="101.9" x2="25.89" y2="101.9" xlink:href="#linear-gradient"/>
    <linearGradient id="linear-gradient59" x1="18.26" y1="98.73" x2="24.94" y2="98.73" xlink:href="#linear-gradient"/>
    <linearGradient id="linear-gradient60" x1="17.61" y1="95.51" x2="24.13" y2="95.51" xlink:href="#linear-gradient"/>
    <linearGradient id="linear-gradient61" x1="17.13" y1="92.27" x2="23.48" y2="92.27" xlink:href="#linear-gradient"/>
    <linearGradient id="linear-gradient62" x1="16.82" y1="88.99" x2="22.99" y2="88.99" xlink:href="#linear-gradient"/>
    <linearGradient id="linear-gradient63" x1="16.67" y1="85.71" x2="22.66" y2="85.71" xlink:href="#linear-gradient"/>
    <linearGradient id="linear-gradient64" x1="16.7" y1="82.41" x2="22.48" y2="82.41" xlink:href="#linear-gradient"/>
    <linearGradient id="linear-gradient65" x1="16.88" y1="79.12" x2="22.46" y2="79.12" xlink:href="#linear-gradient"/>
    <linearGradient id="linear-gradient66" x1="17.24" y1="75.83" x2="22.6" y2="75.83" xlink:href="#linear-gradient"/>
    <linearGradient id="linear-gradient67" x1="17.76" y1="72.56" x2="22.89" y2="72.56" xlink:href="#linear-gradient"/>
    <linearGradient id="linear-gradient68" x1="18.45" y1="69.31" x2="23.34" y2="69.31" xlink:href="#linear-gradient"/>
    <linearGradient id="linear-gradient69" x1="19.31" y1="66.1" x2="23.95" y2="66.1" xlink:href="#linear-gradient"/>
    <linearGradient id="linear-gradient70" x1="20.33" y1="62.93" x2="24.72" y2="62.93" xlink:href="#linear-gradient"/>
    <linearGradient id="linear-gradient71" x1="21.51" y1="59.81" x2="25.64" y2="59.81" xlink:href="#linear-gradient"/>
    <linearGradient id="linear-gradient72" x1="22.85" y1="56.74" x2="26.71" y2="56.74" xlink:href="#linear-gradient"/>
    <linearGradient id="linear-gradient73" x1="24.35" y1="53.74" x2="27.93" y2="53.74" xlink:href="#linear-gradient"/>
    <linearGradient id="linear-gradient74" x1="25.99" y1="50.81" x2="29.3" y2="50.81" xlink:href="#linear-gradient"/>
    <linearGradient id="linear-gradient75" x1="27.78" y1="47.96" x2="30.81" y2="47.96" xlink:href="#linear-gradient"/>
    <linearGradient id="linear-gradient76" x1="29.72" y1="45.2" x2="32.46" y2="45.2" xlink:href="#linear-gradient"/>
    <linearGradient id="linear-gradient77" x1="31.79" y1="42.53" x2="34.24" y2="42.53" xlink:href="#linear-gradient"/>
    <linearGradient id="linear-gradient78" x1="33.99" y1="39.96" x2="36.16" y2="39.96" xlink:href="#linear-gradient"/>
    <linearGradient id="linear-gradient79" x1="36.32" y1="37.49" x2="38.19" y2="37.49" xlink:href="#linear-gradient"/>
    <linearGradient id="linear-gradient80" x1="38.71" y1="35.14" x2="40.43" y2="35.14" xlink:href="#linear-gradient"/>
    <linearGradient id="linear-gradient81" x1="41" y1="32.9" x2="43" y2="32.9" xlink:href="#linear-gradient"/>
    <linearGradient id="linear-gradient82" x1="43.38" y1="30.78" x2="45.67" y2="30.78" xlink:href="#linear-gradient"/>
    <linearGradient id="linear-gradient83" x1="45.87" y1="28.79" x2="48.45" y2="28.79" xlink:href="#linear-gradient"/>
    <linearGradient id="linear-gradient84" x1="48.45" y1="26.94" x2="51.31" y2="26.94" xlink:href="#linear-gradient"/>
    <linearGradient id="linear-gradient85" x1="51.12" y1="25.22" x2="54.27" y2="25.22" xlink:href="#linear-gradient"/>
    <linearGradient id="linear-gradient86" x1="53.87" y1="23.65" x2="57.31" y2="23.65" xlink:href="#linear-gradient"/>
    <linearGradient id="linear-gradient87" x1="56.71" y1="22.22" x2="60.41" y2="22.22" xlink:href="#linear-gradient"/>
    <linearGradient id="linear-gradient88" x1="59.61" y1="20.94" x2="63.59" y2="20.94" xlink:href="#linear-gradient"/>
    <linearGradient id="linear-gradient89" x1="62.58" y1="19.82" x2="66.82" y2="19.82" xlink:href="#linear-gradient"/>
    <linearGradient id="linear-gradient90" x1="65.6" y1="18.85" x2="70.1" y2="18.85" xlink:href="#linear-gradient"/>
    <linearGradient id="linear-gradient91" x1="68.67" y1="18.04" x2="73.42" y2="18.04" xlink:href="#linear-gradient"/>
    <linearGradient id="linear-gradient92" x1="71.78" y1="17.4" x2="76.77" y2="17.4" xlink:href="#linear-gradient"/>
    <linearGradient id="linear-gradient93" x1="74.92" y1="16.91" x2="80.15" y2="16.91" xlink:href="#linear-gradient"/>
    <linearGradient id="linear-gradient94" x1="78.09" y1="16.59" x2="83.54" y2="16.59" xlink:href="#linear-gradient"/>
    <linearGradient id="linear-gradient95" x1="81.27" y1="16.43" x2="86.94" y2="16.43" xlink:href="#linear-gradient"/>
    <linearGradient id="linear-gradient96" x1="84.46" y1="16.43" x2="90.34" y2="16.43" xlink:href="#linear-gradient"/>
    <linearGradient id="linear-gradient97" x1="87.66" y1="16.6" x2="93.73" y2="16.6" xlink:href="#linear-gradient"/>
    <linearGradient id="linear-gradient98" x1="90.85" y1="16.93" x2="97.1" y2="16.93" xlink:href="#linear-gradient"/>
    <linearGradient id="linear-gradient99" x1="94.02" y1="17.41" x2="100.44" y2="17.41" xlink:href="#linear-gradient"/>
    <linearGradient id="linear-gradient100" x1="97.17" y1="18.07" x2="103.75" y2="18.07" xlink:href="#linear-gradient"/>
    <linearGradient id="linear-gradient101" x1="100.28" y1="18.88" x2="107.02" y2="18.88" xlink:href="#linear-gradient"/>
    <linearGradient id="linear-gradient102" x1="103.36" y1="19.85" x2="110.24" y2="19.85" xlink:href="#linear-gradient"/>
    <linearGradient id="linear-gradient103" x1="106.4" y1="20.98" x2="113.39" y2="20.98" xlink:href="#linear-gradient"/>
    <linearGradient id="linear-gradient104" x1="109.38" y1="22.26" x2="116.48" y2="22.26" xlink:href="#linear-gradient"/>
    <linearGradient id="linear-gradient105" x1="112.29" y1="23.7" x2="119.5" y2="23.7" xlink:href="#linear-gradient"/>
    <linearGradient id="linear-gradient106" x1="115.14" y1="25.28" x2="122.43" y2="25.28" xlink:href="#linear-gradient"/>
    <linearGradient id="linear-gradient107" x1="117.92" y1="27" x2="125.27" y2="27" xlink:href="#linear-gradient"/>
    <linearGradient id="linear-gradient108" x1="120.61" y1="28.86" x2="128.01" y2="28.86" xlink:href="#linear-gradient"/>
    <linearGradient id="linear-gradient109" x1="123.21" y1="30.86" x2="130.66" y2="30.86" xlink:href="#linear-gradient"/>
    <linearGradient id="linear-gradient110" x1="125.72" y1="32.98" x2="133.19" y2="32.98" xlink:href="#linear-gradient"/>
    <linearGradient id="linear-gradient111" x1="128.13" y1="35.22" x2="135.61" y2="35.22" xlink:href="#linear-gradient"/>
    <linearGradient id="linear-gradient112" x1="130.43" y1="37.61" x2="137.9" y2="37.61" xlink:href="#linear-gradient"/>
    <linearGradient id="linear-gradient113" x1="132.62" y1="40.08" x2="140.07" y2="40.08" xlink:href="#linear-gradient"/>
    <linearGradient id="linear-gradient114" x1="134.68" y1="42.66" x2="142.11" y2="42.66" xlink:href="#linear-gradient"/>
    <linearGradient id="linear-gradient115" x1="136.63" y1="45.34" x2="144.01" y2="45.34" xlink:href="#linear-gradient"/>
    <linearGradient id="linear-gradient116" x1="138.44" y1="48.11" x2="145.77" y2="48.11" xlink:href="#linear-gradient"/>
    <linearGradient id="linear-gradient117" x1="140.12" y1="50.96" x2="147.37" y2="50.96" xlink:href="#linear-gradient"/>
    <linearGradient id="linear-gradient118" x1="141.67" y1="53.9" x2="148.83" y2="53.9" xlink:href="#linear-gradient"/>
    <linearGradient id="linear-gradient119" x1="143.07" y1="56.9" x2="150.13" y2="56.9" xlink:href="#linear-gradient"/>
    <linearGradient id="linear-gradient120" x1="144.33" y1="59.97" x2="151.28" y2="59.97" xlink:href="#linear-gradient"/>
    <linearGradient id="linear-gradient121" x1="145.44" y1="63.1" x2="152.26" y2="63.1" xlink:href="#linear-gradient"/>
    <linearGradient id="linear-gradient122" x1="146.39" y1="66.27" x2="153.07" y2="66.27" xlink:href="#linear-gradient"/>
    <linearGradient id="linear-gradient123" x1="147.2" y1="69.49" x2="153.72" y2="69.49" xlink:href="#linear-gradient"/>
    <linearGradient id="linear-gradient124" x1="147.85" y1="72.74" x2="154.2" y2="72.74" xlink:href="#linear-gradient"/>
    <linearGradient id="linear-gradient125" x1="148.34" y1="76.01" x2="154.51" y2="76.01" xlink:href="#linear-gradient"/>
    <linearGradient id="linear-gradient126" x1="148.67" y1="79.29" x2="154.66" y2="79.29" xlink:href="#linear-gradient"/>
    <linearGradient id="linear-gradient127" x1="85.67" y1="120.76" x2="85.67" y2="48.82" xlink:href="#linear-gradient"/>
    <linearGradient id="linear-gradient128" x1="46.16" y1="122.25" x2="55.87" y2="122.25" xlink:href="#linear-gradient"/>
    <linearGradient id="linear-gradient129" x1="54.69" y1="127.08" x2="64.83" y2="127.08" xlink:href="#linear-gradient"/>
    <linearGradient id="linear-gradient130" x1="62.42" y1="132.81" x2="71.02" y2="132.81" xlink:href="#linear-gradient"/>
    <linearGradient id="linear-gradient131" x1="73.06" y1="134.6" x2="81.47" y2="134.6" xlink:href="#linear-gradient"/>
    <linearGradient id="linear-gradient132" x1="83.23" y1="135.12" x2="92.27" y2="135.12" xlink:href="#linear-gradient"/>
    <linearGradient id="linear-gradient133" x1="92.15" y1="133.74" x2="101.99" y2="133.74" xlink:href="#linear-gradient"/>
    <linearGradient id="linear-gradient134" x1="102" y1="130.41" x2="110.21" y2="130.41" xlink:href="#linear-gradient"/>
    <linearGradient id="linear-gradient135" x1="109.22" y1="126.79" x2="119.37" y2="126.79" xlink:href="#linear-gradient"/>
    <linearGradient id="linear-gradient136" x1="116" y1="121.43" x2="126.6" y2="121.43" xlink:href="#linear-gradient"/>
    <linearGradient id="linear-gradient137" x1="85.62" y1="105.52" x2="85.62" y2="60.34" gradientUnits="userSpaceOnUse">
      <stop offset=".54" stop-color="#af8221"/>
      <stop offset=".64" stop-color="#c39b3c"/>
      <stop offset=".8" stop-color="#e3c469"/>
      <stop offset=".93" stop-color="#f7dd85"/>
      <stop offset="1" stop-color="#ffe790"/>
    </linearGradient>
    <linearGradient id="linear-gradient138" x1="29.84" y1="71.11" x2="38.82" y2="71.11" xlink:href="#linear-gradient"/>
    <linearGradient id="linear-gradient139" x1="32.13" y1="64.35" x2="41.02" y2="64.35" xlink:href="#linear-gradient"/>
    <linearGradient id="linear-gradient140" x1="37.73" y1="56.63" x2="40.95" y2="56.63" gradientTransform="translate(69.4 -5.43) rotate(60.63)" xlink:href="#linear-gradient"/>
    <linearGradient id="linear-gradient141" x1="38.37" y1="50.11" x2="48.66" y2="50.11" xlink:href="#linear-gradient"/>
    <linearGradient id="linear-gradient142" x1="48.49" y1="43.63" x2="57.48" y2="43.63" xlink:href="#linear-gradient"/>
    <linearGradient id="linear-gradient143" x1="52.82" y1="37" x2="62.24" y2="37" xlink:href="#linear-gradient"/>
    <linearGradient id="linear-gradient144" x1="65.92" y1="32.08" x2="78.11" y2="32.08" xlink:href="#linear-gradient"/>
    <linearGradient id="linear-gradient145" x1="79.37" y1="30.43" x2="87.77" y2="30.43" xlink:href="#linear-gradient"/>
    <linearGradient id="linear-gradient146" x1="89.36" y1="30.98" x2="98.89" y2="30.98" xlink:href="#linear-gradient"/>
    <linearGradient id="linear-gradient147" x1="98.87" y1="33.34" x2="108.02" y2="33.34" xlink:href="#linear-gradient"/>
    <linearGradient id="linear-gradient148" x1="108.32" y1="36.49" x2="117.37" y2="36.49" xlink:href="#linear-gradient"/>
    <linearGradient id="linear-gradient149" x1="116.84" y1="44.02" x2="126.64" y2="44.02" xlink:href="#linear-gradient"/>
    <linearGradient id="linear-gradient150" x1="122.62" y1="53.13" x2="132.35" y2="53.13" xlink:href="#linear-gradient"/>
    <linearGradient id="linear-gradient151" x1="129.22" y1="60.46" x2="139.18" y2="60.46" xlink:href="#linear-gradient"/>
    <linearGradient id="linear-gradient152" x1="131.8" y1="69.6" x2="142.03" y2="69.6" xlink:href="#linear-gradient"/>
  </defs>
  <path class="st148" d="M85.67,165c-.6,0-1.16-.28-1.53-.76l-5.04-6.65-6.12,5.67c-.35.33-.82.51-1.3.51-.72,0-1.38-.4-1.71-1.04l-3.81-7.43-7.01,4.52c-.31.2-.67.31-1.04.31-.85,0-1.58-.54-1.83-1.35l-2.46-7.98-7.69,3.24c-.24.1-.49.15-.74.15-.96,0-1.78-.72-1.9-1.68l-1.04-8.28-8.14,1.85c-.66.15-1.35-.06-1.81-.55-.36-.38-.55-.88-.52-1.41l.41-8.33-8.43.41c-.58,0-1.13-.26-1.49-.72-.37-.46-.5-1.05-.37-1.62l1.85-8.14-8.28-1.04c-.6-.08-1.12-.42-1.42-.94-.3-.52-.34-1.14-.11-1.7l3.24-7.69-7.98-2.47c-.58-.18-1.03-.61-1.23-1.18-.21-.57-.14-1.18.19-1.69l4.52-7.02-7.43-3.81c-.54-.28-.91-.78-1.01-1.37-.1-.6.07-1.19.48-1.64l5.67-6.12-6.65-5.04c-.48-.36-.76-.92-.76-1.52,0-.6.28-1.16.76-1.53l6.65-5.04-5.67-6.12c-.41-.44-.59-1.04-.48-1.63.1-.59.47-1.09,1.01-1.37l7.43-3.81-4.52-7.02c-.33-.51-.4-1.12-.19-1.69.21-.57.66-1,1.23-1.17l7.98-2.47-3.24-7.69c-.23-.56-.2-1.18.11-1.7.3-.52.82-.87,1.42-.94l8.28-1.04-1.85-8.14c-.13-.57,0-1.16.37-1.62.37-.46.91-.72,1.5-.72h.1s8.34.41,8.34.41l-.41-8.34c-.03-.53.16-1.03.52-1.41.46-.48,1.16-.69,1.81-.55l8.14,1.85,1.04-8.28c.12-.96.94-1.68,1.9-1.68.25,0,.5.05.74.15l7.69,3.24,2.46-7.97c.25-.81.99-1.35,1.83-1.35.37,0,.73.11,1.04.31l7.01,4.52,3.81-7.43c.33-.64.98-1.04,1.7-1.04.48,0,.94.18,1.3.51l6.12,5.67,5.04-6.65c.37-.48.92-.76,1.53-.76s1.16.28,1.53.76l5.04,6.65,6.12-5.67c.35-.33.82-.51,1.3-.51.72,0,1.38.4,1.71,1.04l3.81,7.43,7.01-4.52c.31-.2.67-.31,1.04-.31.85,0,1.58.54,1.83,1.35l2.47,7.97,7.69-3.24c.24-.1.49-.15.74-.15.96,0,1.78.72,1.9,1.68l1.04,8.28,8.14-1.85c.65-.15,1.35.06,1.81.55.37.38.55.88.53,1.41l-.41,8.34,8.43-.41c.58,0,1.13.26,1.49.72.37.46.5,1.05.37,1.62l-1.85,8.14,8.28,1.04c.6.08,1.12.42,1.42.94.3.52.34,1.14.11,1.7l-3.24,7.69,7.97,2.47c.58.18,1.03.61,1.23,1.17.21.57.14,1.18-.19,1.69l-4.53,7.02,7.43,3.81c.54.28.91.78,1.01,1.37.11.6-.07,1.19-.48,1.63l-5.67,6.12,6.65,5.04c.48.37.76.92.76,1.53s-.28,1.16-.76,1.52l-6.65,5.04,5.67,6.12c.41.44.59,1.04.48,1.64-.1.59-.47,1.09-1.01,1.37l-7.43,3.81,4.53,7.02c.33.51.4,1.12.19,1.69-.21.57-.65.99-1.23,1.17l-7.97,2.47,3.24,7.69c.23.56.19,1.18-.11,1.7-.3.52-.82.87-1.42.94l-8.28,1.04,1.85,8.14c.13.57,0,1.16-.37,1.62-.37.46-.91.72-1.49.72h-.1s-8.34-.41-8.34-.41l.41,8.33c.03.53-.16,1.03-.53,1.41-.46.48-1.16.7-1.81.55l-8.14-1.85-1.04,8.28c-.12.96-.94,1.68-1.9,1.68-.26,0-.51-.05-.74-.15l-7.69-3.24-2.47,7.97c-.25.81-.99,1.35-1.83,1.35-.37,0-.73-.11-1.04-.31l-7.01-4.52-3.81,7.43c-.33.64-.98,1.04-1.71,1.04-.48,0-.94-.18-1.3-.51l-6.12-5.67-5.04,6.65c-.37.48-.92.76-1.53.76ZM79.27,155.63l5.93,7.81c.23.3.72.3.94,0l5.93-7.81,7.19,6.67c.14.13.3.16.4.16.18,0,.41-.08.53-.32l4.48-8.72,8.24,5.32c.29.18.75.12.89-.32l2.9-9.37,9.04,3.8c.32.13.76-.03.82-.47l1.23-9.73,9.56,2.18c.2.05.42-.02.56-.17.11-.12.17-.27.16-.44l-.48-9.79,9.79.48h0c.21,0,.38-.08.49-.22.07-.08.17-.26.12-.5l-2.18-9.56,9.73-1.23c.19-.02.35-.13.44-.29.09-.16.11-.35.03-.53l-3.8-9.04,9.37-2.9c.18-.06.32-.19.38-.36.06-.18.04-.37-.06-.52l-5.31-8.24,8.72-4.48c.17-.09.28-.24.31-.42.03-.18-.02-.37-.15-.51l-6.67-7.19,7.81-5.93c.15-.11.23-.29.23-.47s-.09-.36-.23-.47l-7.81-5.93,6.67-7.19c.13-.14.18-.32.15-.51-.03-.18-.15-.34-.31-.42l-8.72-4.48,5.32-8.24c.1-.16.12-.35.06-.52-.06-.18-.21-.31-.38-.36l-9.37-2.9,3.8-9.04c.07-.17.06-.36-.03-.53-.09-.16-.25-.27-.44-.29l-9.73-1.23,2.18-9.56c.05-.24-.05-.42-.12-.5-.11-.14-.28-.22-.46-.22l-9.83.48.48-9.79c0-.16-.05-.32-.16-.44-.14-.15-.36-.22-.56-.17l-9.56,2.18-1.23-9.73c-.06-.44-.5-.61-.82-.47l-9.04,3.8-2.9-9.37c-.14-.44-.6-.51-.89-.32l-8.24,5.31-4.48-8.72c-.12-.24-.35-.32-.53-.32-.11,0-.26.03-.4.16l-7.19,6.67-5.93-7.81c-.23-.3-.72-.3-.94,0l-5.93,7.81-7.19-6.66c-.14-.13-.3-.16-.4-.16-.18,0-.41.08-.53.32l-4.48,8.72-8.24-5.31c-.29-.19-.75-.12-.89.32l-2.9,9.37-9.04-3.8c-.31-.13-.76.03-.82.47l-1.23,9.73-9.56-2.18c-.21-.05-.42.02-.56.17-.11.12-.17.27-.16.44l.48,9.79-9.79-.48h0c-.21,0-.38.08-.49.22-.07.08-.17.26-.11.5l2.18,9.56-9.73,1.23c-.19.02-.35.13-.44.29-.09.16-.11.35-.03.53l3.8,9.04-9.37,2.9c-.18.06-.32.19-.38.36-.06.18-.04.37.06.52l5.32,8.24-8.72,4.48c-.17.09-.28.24-.31.42-.03.18.02.37.15.51l6.67,7.19-7.81,5.93c-.15.11-.24.29-.24.47s.09.36.23.47l7.81,5.93-6.67,7.19c-.13.14-.18.32-.15.51.03.18.15.34.31.42l8.72,4.48-5.32,8.24c-.1.16-.12.35-.06.52.06.18.2.31.38.36l9.37,2.9-3.8,9.04c-.07.17-.06.37.03.53.09.16.25.27.44.29l9.73,1.23-2.18,9.56c-.06.24.05.42.11.5.11.14.28.22.46.22l9.83-.48-.48,9.79c0,.16.05.32.16.44.14.15.36.22.56.17l9.56-2.18,1.23,9.73c.06.44.5.61.82.47l9.04-3.8,2.9,9.37c.14.44.6.51.89.32l8.24-5.32,4.48,8.72c.12.24.35.32.53.32.1,0,.26-.03.4-.16l7.19-6.67Z"/>
  <g>
    <path class="st42" d="M150.24,79.91c-.33-.3-.85-.28-1.17.05-.31.32-.3.82.03,1.12,0,0,3.24,3.19,4.11,4.12.31.34.84.37,1.17.05.33-.32.35-.87.03-1.21,0,0-3.26-3.3-4.16-4.12Z"/>
    <path class="st3" d="M150.29,83.14c-.31-.32-.84-.32-1.17-.01-.33.31-.34.8-.03,1.12,0,0,3.08,3.34,3.9,4.32.3.36.82.41,1.16.1.35-.3.39-.85.09-1.21,0,0-3.09-3.45-3.96-4.32Z"/>
    <path class="st108" d="M150.19,86.36c-.3-.33-.82-.36-1.17-.07-.35.29-.38.78-.09,1.12,0,0,2.91,3.49,3.68,4.51.28.37.79.45,1.16.16.36-.29.43-.83.15-1.2,0,0-2.92-3.6-3.74-4.51Z"/>
    <path class="st99" d="M149.92,89.57c-.28-.35-.8-.4-1.16-.12-.36.27-.42.76-.14,1.11,0,0,2.73,3.63,3.45,4.68.26.39.77.49,1.15.22.38-.27.47-.81.21-1.19,0,0-2.74-3.74-3.51-4.69Z"/>
    <path class="st105" d="M149.49,92.77c-.26-.36-.78-.44-1.15-.19-.37.25-.46.74-.2,1.1,0,0,2.55,3.76,3.21,4.85.24.4.75.53,1.13.28.39-.25.51-.79.27-1.18,0,0-2.54-3.87-3.27-4.86Z"/>
    <path class="st131" d="M148.9,95.94c-.24-.37-.76-.48-1.14-.24-.38.23-.49.72-.25,1.09,0,0,2.36,3.89,2.96,5.01.22.41.72.56,1.12.33.4-.23.55-.76.33-1.17,0,0-2.34-4-3.02-5.02Z"/>
    <path class="st95" d="M148.16,99.07c-.22-.39-.73-.51-1.13-.3-.4.21-.53.69-.3,1.08,0,0,2.16,4,2.71,5.15.2.42.69.6,1.1.39.41-.21.59-.73.39-1.15,0,0-2.14-4.11-2.76-5.17Z"/>
    <path class="st57" d="M147.25,102.17c-.21-.4-.71-.55-1.11-.36-.41.19-.57.66-.36,1.06,0,0,1.96,4.1,2.45,5.28.18.43.66.63,1.08.44.42-.19.62-.7.45-1.13,0,0-1.93-4.21-2.5-5.3Z"/>
    <path class="st45" d="M146.2,105.21c-.19-.41-.68-.58-1.1-.41-.41.17-.6.63-.41,1.04,0,0,1.75,4.2,2.18,5.4.16.44.63.67,1.06.5.43-.17.66-.67.5-1.11,0,0-1.72-4.3-2.23-5.42Z"/>
    <path class="st17" d="M144.99,108.2c-.17-.42-.65-.62-1.07-.47-.42.15-.63.6-.46,1.02,0,0,1.54,4.28,1.91,5.5.13.44.59.7,1.03.55.44-.15.69-.63.55-1.08,0,0-1.5-4.39-1.96-5.52Z"/>
    <path class="st58" d="M143.63,111.12c-.15-.42-.62-.65-1.05-.52-.43.13-.66.57-.51,1,0,0,1.32,4.35,1.63,5.59.11.45.56.73,1,.6.45-.12.72-.6.61-1.05,0,0-1.29-4.45-1.68-5.61Z"/>
    <path class="st80" d="M142.13,113.97c-.12-.43-.58-.68-1.02-.57-.44.11-.68.54-.56.97,0,0,1.1,4.41,1.35,5.66.09.46.52.75.97.65.45-.1.75-.56.65-1.02,0,0-1.06-4.51-1.4-5.69Z"/>
    <path class="st143" d="M140.49,116.74c-.1-.44-.55-.71-.99-.62-.44.09-.71.51-.6.94.15.67.88,4.46,1.07,5.72.07.46.48.78.94.7.46-.08.77-.53.71-.99,0,0-.84-4.56-1.12-5.75Z"/>
    <path class="st104" d="M138.71,119.43c-.08-.44-.51-.74-.96-.67s-.73.47-.65.91c.12.67.66,4.5.78,5.77.04.46.44.79.9.74.46-.06.8-.49.75-.95,0,0-.61-4.6-.83-5.8Z"/>
    <path class="st118" d="M136.8,122.03c-.06-.45-.48-.76-.93-.72-.45.05-.75.43-.69.88.09.68.44,4.53.5,5.8.01.46.4.81.86.79.46-.03.82-.45.8-.91,0,0-.38-4.63-.54-5.84Z"/>
    <path class="st62" d="M134.76,124.53c-.04-.45-.44-.78-.89-.76-.45.02-.77.4-.73.85.07.69.22,4.55.21,5.82-.01.46.35.83.82.83.47,0,.84-.41.84-.87,0,0-.15-4.64-.25-5.86Z"/>
    <path class="st122" d="M131.76,126.12c-.45,0-.79.36-.77.81.03.7,0,4.56-.09,5.82-.03.46.31.85.78.87.48.03.86-.36.89-.83,0,0,.08-4.64.04-5.87-.02-.45-.4-.81-.85-.8Z"/>
    <path class="st47" d="M129.52,128.36c-.45-.02-.8.32-.81.77,0,.7-.23,4.56-.38,5.8-.05.46.27.86.74.91.48.05.89-.31.93-.78,0,0,.31-4.63.33-5.86,0-.45-.36-.83-.81-.84Z"/>
    <path class="st79" d="M127.18,130.49c-.44-.04-.82.28-.85.73-.03.7-.45,4.55-.67,5.77-.08.45.23.88.69.94.47.07.91-.26.97-.73,0,0,.54-4.6.61-5.84.03-.45-.32-.84-.77-.88Z"/>
    <path class="st98" d="M124.74,132.5c-.44-.06-.83.24-.88.69-.07.69-.67,4.52-.96,5.73-.1.45.19.89.65.98.46.09.92-.21,1.01-.68,0,0,.78-4.56.9-5.8.05-.45-.28-.86-.72-.92Z"/>
    <path class="st25" d="M122.2,134.39c-.44-.08-.84.2-.91.65,0,0-.9,4.48-1.24,5.67-.12.44.14.9.6,1,.45.11.93-.16,1.04-.62,0,0,1-4.51,1.19-5.75.07-.45-.24-.87-.67-.96Z"/>
    <path class="st72" d="M119.57,136.15c-.43-.11-.85.16-.94.6,0,0-1.12,4.42-1.52,5.6-.14.44.1.9.54,1.03.45.13.94-.11,1.07-.57,0,0,1.23-4.46,1.48-5.68.09-.44-.19-.88-.63-.99Z"/>
    <path class="st52" d="M116.85,137.78c-.43-.13-.85.12-.97.56,0,0-1.35,4.36-1.8,5.52-.16.43.05.91.49,1.06.44.15.95-.06,1.1-.51,0,0,1.45-4.39,1.76-5.6.11-.44-.15-.89-.58-1.02Z"/>
    <path class="st64" d="M114.06,139.27c-.42-.15-.86.09-1,.5,0,0-1.56,4.29-2.08,5.42-.19.42,0,.91.44,1.08.43.17.95-.02,1.13-.45,0,0,1.67-4.31,2.03-5.51.14-.43-.1-.9-.52-1.05Z"/>
    <path class="st114" d="M111.2,140.61c-.41-.17-.86.05-1.02.45,0,0-1.77,4.2-2.34,5.31-.21.41-.04.91.38,1.1.42.2.94.02,1.15-.39,0,0,1.89-4.22,2.31-5.4.16-.42-.06-.9-.47-1.07Z"/>
    <path class="st41" d="M108.27,141.82c-.4-.19-.86,0-1.05.4,0,0-1.98,4.11-2.61,5.18-.23.4-.08.9.33,1.12.41.22.94.07,1.17-.33,0,0,2.09-4.12,2.58-5.28.18-.42-.01-.91-.42-1.09Z"/>
    <path class="st30" d="M105.29,142.87c-.39-.21-.86-.04-1.06.34,0,0-2.19,4-2.87,5.05-.25.39-.13.9.27,1.14.4.24.94.12,1.18-.27,0,0,2.3-4.01,2.84-5.14.2-.41.03-.91-.36-1.11Z"/>
    <path class="st86" d="M102.26,143.77c-.38-.23-.85-.08-1.08.29,0,0-2.39,3.89-3.12,4.9-.26.38-.18.89.21,1.15.39.26.93.16,1.19-.21,0,0,2.5-3.88,3.09-4.99.22-.4.08-.9-.31-1.13Z"/>
    <path class="st74" d="M99.18,144.52c-.37-.25-.85-.13-1.09.23,0,0-2.58,3.76-3.36,4.74-.28.36-.22.88.16,1.16.37.28.92.21,1.2-.15,0,0,2.69-3.75,3.34-4.83.24-.39.12-.9-.25-1.14Z"/>
    <path class="st68" d="M96.07,145.11c-.36-.26-.84-.17-1.1.18,0,0-2.76,3.63-3.59,4.56-.3.35-.26.87.1,1.17.36.3.91.25,1.21-.09,0,0,2.87-3.62,3.58-4.66.26-.37.17-.89-.19-1.15Z"/>
    <path class="st100" d="M92.94,145.55c-.34-.28-.83-.21-1.11.12,0,0-2.94,3.49-3.81,4.38-.32.33-.31.85.04,1.17.35.31.89.3,1.21-.03,0,0,3.05-3.47,3.8-4.48.28-.36.21-.88-.13-1.16Z"/>
    <path class="st22" d="M89.79,145.83c-.33-.3-.82-.25-1.12.07,0,0-3.11,3.34-4.02,4.19-.33.31-.35.84-.02,1.17.33.33.88.36,1.21.02,0,0,3.22-3.31,4.02-4.28.29-.35.25-.87-.08-1.17Z"/>
    <path class="st16" d="M86.64,147.12c.31-.33.3-.85-.02-1.17-.31-.32-.81-.29-1.12.02,0,0-3.27,3.19-4.22,3.98-.35.3-.39.82-.07,1.17.31.34.86.4,1.21.08,0,0,3.37-3.15,4.22-4.08Z"/>
    <path class="st10" d="M83.46,145.92c-.3-.33-.79-.34-1.12-.03,0,0-3.42,3.02-4.41,3.77-.36.28-.43.8-.13,1.16.3.36.84.44,1.21.13,0,0,3.53-2.99,4.42-3.87.33-.31.34-.84.04-1.17Z"/>
    <path class="st37" d="M80.3,145.73c-.28-.34-.77-.38-1.12-.08,0,0-3.57,2.85-4.6,3.54-.38.26-.47.78-.19,1.15.28.38.82.48,1.2.19,0,0,3.67-2.81,4.61-3.64.34-.3.38-.82.1-1.17Z"/>
    <path class="st6" d="M77.15,145.39c-.26-.36-.75-.42-1.11-.14,0,0-3.71,2.67-4.77,3.31-.39.24-.51.75-.25,1.14.26.39.79.52,1.19.25,0,0,3.81-2.62,4.78-3.41.36-.28.42-.8.15-1.16Z"/>
    <path class="st28" d="M74.03,144.89c-.25-.37-.73-.46-1.1-.2,0,0-3.83,2.48-4.93,3.07-.4.22-.54.73-.3,1.13.24.4.76.56,1.17.31,0,0,3.93-2.43,4.95-3.16.37-.26.46-.78.21-1.15Z"/>
    <path class="st113" d="M70.93,144.24c-.23-.38-.71-.49-1.09-.25,0,0-3.95,2.28-5.07,2.82-.41.2-.58.7-.36,1.11.22.41.74.6,1.15.37,0,0,4.05-2.23,5.1-2.91.38-.24.5-.75.27-1.14Z"/>
    <path class="st7" d="M67.87,143.43c-.21-.4-.68-.53-1.08-.31,0,0-4.06,2.08-5.21,2.56-.42.18-.61.67-.42,1.09.2.42.7.64,1.13.43,0,0,4.16-2.02,5.24-2.65.39-.22.53-.73.33-1.12Z"/>
    <path class="st89" d="M64.86,142.47c-.19-.4-.66-.56-1.06-.36,0,0-4.16,1.87-5.33,2.29-.43.16-.65.64-.47,1.07.18.43.67.67,1.11.49,0,0,4.25-1.81,5.37-2.39.4-.2.57-.7.38-1.1Z"/>
    <path class="st150" d="M61.46,142.44c.41-.18.6-.67.44-1.09-.16-.41-.63-.59-1.04-.41,0,0-4.25,1.66-5.44,2.02-.44.14-.68.6-.52,1.04.15.44.64.7,1.08.55,0,0,4.34-1.59,5.48-2.11Z"/>
    <path class="st85" d="M58.5,141.16c.42-.16.64-.64.49-1.06-.14-.42-.6-.61-1.02-.47,0,0-4.33,1.44-5.53,1.75-.44.12-.71.57-.57,1.02.13.45.61.72,1.05.6,0,0,4.41-1.38,5.58-1.84Z"/>
    <path class="st54" d="M55.61,139.73c.43-.14.67-.61.54-1.04-.12-.43-.57-.64-.99-.52,0,0-4.39,1.23-5.61,1.47-.45.09-.74.53-.63.99.11.45.57.75,1.02.66,0,0,4.48-1.15,5.66-1.56Z"/>
    <path class="st149" d="M52.8,138.16c.44-.12.7-.58.6-1.01-.1-.43-.54-.67-.96-.57,0,0-4.45,1-5.68,1.19-.45.07-.76.5-.67.95.09.46.53.78.99.7,0,0,4.52-.92,5.73-1.27Z"/>
    <path class="st144" d="M50.07,136.45c.44-.1.73-.54.64-.98-.08-.43-.5-.7-.93-.62,0,0-4.49.78-5.74.91-.46.05-.78.46-.72.92.06.46.5.8.95.75.7-.08,4.56-.69,5.79-.98Z"/>
    <path class="st69" d="M47.42,134.61c.45-.08.75-.5.69-.94-.07-.43-.46-.73-.89-.67,0,0-4.52.55-5.77.62-.46.03-.81.42-.77.88.04.46.46.82.92.79.7-.04,4.59-.47,5.83-.69Z"/>
    <path class="st146" d="M44.87,132.64c.45-.06.78-.46.74-.91-.04-.43-.42-.76-.86-.72,0,0-4.54.32-5.8.34-.46,0-.83.38-.81.85.02.46.42.84.88.83.7,0,4.61-.24,5.85-.39Z"/>
    <path class="st141" d="M42.42,130.54c.45-.03.8-.43.78-.87-.03-.43-.37-.79-.82-.76,0,0-4.54.09-5.81.05-.46-.02-.85.34-.85.8,0,.46.37.86.84.88.7.03,4.62-.02,5.86-.1Z"/>
    <path class="st76" d="M40.08,128.33c.46-.01.82-.39.83-.83,0-.44-.33-.81-.78-.8,0,0-4.54-.14-5.81-.24-.46-.04-.86.3-.89.76-.03.46.33.88.79.92.7.06,4.62.21,5.85.19Z"/>
    <path class="st126" d="M37.85,126c.46.01.84-.35.86-.79.03-.45-.29-.82-.73-.84,0,0-4.53-.36-5.79-.52-.46-.06-.88.25-.92.72-.05.46.29.89.75.95.7.09,4.61.43,5.83.48Z"/>
    <path class="st130" d="M35.74,123.56c.45.04.85-.3.9-.74.06-.45-.25-.84-.69-.88,0,0-4.5-.58-5.76-.81-.46-.08-.89.21-.96.67-.07.46.25.91.7.99.7.13,4.59.66,5.8.77Z"/>
    <path class="st117" d="M33.75,121.02c.44.06.86-.25.94-.7.08-.45-.21-.85-.65-.91,0,0-4.47-.81-5.71-1.09-.45-.1-.9.17-.99.62-.09.45.2.92.65,1.02.7.16,4.55.89,5.76,1.06Z"/>
    <path class="st34" d="M31.9,118.39c.44.09.87-.21.97-.65.1-.44-.17-.86-.6-.94,0,0-4.43-1.03-5.65-1.37-.45-.13-.91.12-1.02.57-.12.45.16.92.6,1.05,0,0,4.5,1.11,5.7,1.35Z"/>
    <path class="st124" d="M30.17,115.66c.43.11.88-.17,1-.6.12-.43-.12-.86-.56-.97,0,0-4.37-1.24-5.58-1.65-.44-.15-.91.08-1.05.52-.14.44.11.93.55,1.08,0,0,4.44,1.33,5.63,1.63Z"/>
    <path class="st112" d="M28.59,112.86c.43.13.89-.12,1.03-.55.14-.43-.08-.87-.51-1,0,0-4.31-1.46-5.49-1.93-.43-.17-.91.03-1.07.47-.16.43.07.93.5,1.1,0,0,4.37,1.55,5.54,1.91Z"/>
    <path class="st29" d="M27.15,109.97c.42.15.89-.08,1.06-.5.16-.42-.04-.87-.46-1.02,0,0-4.23-1.67-5.39-2.2-.42-.19-.91-.01-1.09.41-.18.43.02.94.44,1.13,0,0,4.28,1.77,5.44,2.18Z"/>
    <path class="st35" d="M25.85,107.02c.41.17.9-.03,1.08-.45.18-.41,0-.87-.41-1.04,0,0-4.14-1.89-5.27-2.47-.41-.21-.91-.06-1.11.36-.2.42-.02.94.39,1.15,0,0,4.19,1.98,5.32,2.45Z"/>
    <path class="st11" d="M24.7,104.01c.41.19.9.01,1.1-.39.2-.4.05-.87-.36-1.06,0,0-4.04-2.09-5.14-2.73-.4-.23-.91-.11-1.13.3-.22.41-.07.93.33,1.17,0,0,4.09,2.19,5.19,2.71Z"/>
    <path class="st96" d="M23.71,100.95c.4.21.9.06,1.12-.33.23-.39.09-.86-.31-1.08,0,0-3.93-2.29-5-2.98-.39-.25-.9-.15-1.14.24-.24.39-.12.93.27,1.18,0,0,3.97,2.39,5.05,2.97Z"/>
    <path class="st147" d="M22.87,97.84c.38.23.89.1,1.14-.28.24-.38.13-.86-.25-1.09,0,0-3.81-2.49-4.84-3.23-.38-.27-.89-.2-1.15.18-.26.38-.16.92.21,1.19,0,0,3.85,2.59,4.9,3.22Z"/>
    <path class="st48" d="M22.18,94.69c.37.25.89.15,1.15-.22.26-.36.17-.85-.2-1.1,0,0-3.68-2.67-4.67-3.47-.36-.29-.88-.24-1.16.13-.28.37-.21.91.15,1.2,0,0,3.71,2.78,4.73,3.46Z"/>
    <path class="st93" d="M21.66,91.51c.36.27.88.19,1.16-.16.28-.35.22-.84-.14-1.11,0,0-3.54-2.85-4.49-3.7-.35-.31-.87-.28-1.17.07-.3.35-.26.9.09,1.21,0,0,3.57,2.96,4.55,3.69Z"/>
    <path class="st18" d="M21.29,88.31c.35.28.87.23,1.17-.1.3-.34.26-.83-.08-1.12,0,0-3.4-3.03-4.3-3.92-.33-.33-.85-.33-1.17.01-.32.34-.3.89.03,1.21,0,0,3.42,3.13,4.36,3.91Z"/>
    <path class="st136" d="M21.09,85.09c.33.3.85.28,1.17-.05.31-.32.3-.82-.03-1.12,0,0-3.24-3.19-4.1-4.12-.31-.34-.84-.37-1.17-.05-.33.32-.35.87-.03,1.21,0,0,3.26,3.3,4.16,4.12Z"/>
    <path class="st81" d="M21.04,81.86c.31.32.84.32,1.17.01.33-.31.34-.8.03-1.12,0,0-3.08-3.34-3.9-4.32-.3-.36-.82-.41-1.16-.1-.35.31-.39.85-.09,1.21,0,0,3.09,3.45,3.96,4.32Z"/>
    <path class="st90" d="M21.15,78.64c.3.33.82.36,1.17.07.35-.29.38-.78.09-1.12,0,0-2.91-3.49-3.68-4.51-.28-.37-.8-.45-1.16-.16-.36.29-.43.83-.15,1.2,0,0,2.92,3.6,3.74,4.51Z"/>
    <path class="st88" d="M21.41,75.43c.28.35.8.4,1.16.13.36-.27.42-.76.14-1.11,0,0-2.73-3.63-3.45-4.68-.26-.38-.77-.49-1.15-.22-.38.27-.47.81-.21,1.19,0,0,2.74,3.74,3.51,4.69Z"/>
    <path class="st75" d="M21.84,72.23c.26.36.78.44,1.16.18.37-.25.46-.74.2-1.1,0,0-2.55-3.76-3.21-4.85-.24-.4-.75-.53-1.14-.28-.39.25-.51.78-.27,1.18,0,0,2.54,3.87,3.27,4.86Z"/>
    <path class="st56" d="M22.43,69.06c.25.37.76.48,1.15.24.38-.23.5-.72.25-1.09,0,0-2.36-3.89-2.96-5.01-.22-.41-.72-.56-1.12-.33-.4.23-.55.76-.33,1.17,0,0,2.35,4,3.02,5.02Z"/>
    <path class="st139" d="M23.17,65.93c.23.39.73.51,1.13.3.4-.21.53-.69.31-1.08,0,0-2.16-4-2.71-5.15-.2-.42-.69-.6-1.1-.39-.41.21-.59.73-.39,1.15,0,0,2.14,4.11,2.76,5.16Z"/>
    <path class="st21" d="M24.08,62.84c.21.4.71.55,1.11.36.41-.19.57-.66.36-1.06,0,0-1.96-4.1-2.45-5.28-.18-.43-.66-.63-1.08-.44-.42.19-.62.7-.45,1.13,0,0,1.93,4.21,2.5,5.3Z"/>
    <path class="st53" d="M25.13,59.79c.19.41.68.59,1.1.41.41-.17.6-.63.41-1.04,0,0-1.75-4.2-2.18-5.4-.16-.44-.63-.66-1.06-.5-.43.17-.66.67-.5,1.11,0,0,1.72,4.3,2.23,5.42Z"/>
    <path class="st13" d="M26.34,56.8c.17.42.65.62,1.07.47.42-.15.63-.6.46-1.02,0,0-1.39-3.81-1.91-5.5-.13-.44-.59-.7-1.03-.55-.44.15-.69.63-.55,1.08,0,0,1.5,4.38,1.96,5.52Z"/>
    <path class="st106" d="M27.7,53.88c.15.42.62.65,1.05.52.43-.13.66-.57.51-1,0,0-1.32-4.35-1.63-5.59-.11-.45-.56-.72-1-.6-.44.12-.72.6-.6,1.05,0,0,1.28,4.46,1.68,5.61Z"/>
    <path class="st2" d="M29.2,51.03c.13.43.58.68,1.02.57.43-.11.68-.54.56-.97,0,0-1.1-4.41-1.35-5.66-.09-.46-.52-.75-.97-.65-.45.1-.75.56-.66,1.02,0,0,1.06,4.51,1.4,5.69Z"/>
    <path class="st140" d="M30.84,48.26c.1.44.55.71.99.62.44-.09.71-.51.6-.94-.15-.66-.88-4.46-1.07-5.72-.07-.46-.48-.78-.94-.7-.45.08-.77.53-.7.99,0,0,.84,4.56,1.12,5.75Z"/>
    <path class="st133" d="M32.62,45.57c.08.44.52.74.96.67.44-.07.73-.47.65-.91-.12-.67-.66-4.5-.78-5.77-.04-.46-.44-.79-.9-.74-.46.06-.8.49-.75.95,0,0,.61,4.6.83,5.8Z"/>
    <path class="st55" d="M34.53,42.97c.06.45.48.76.93.72.45-.04.75-.43.69-.88-.09-.68-.44-4.53-.5-5.8-.01-.46-.39-.81-.86-.79-.46.03-.82.45-.8.91,0,0,.38,4.63.54,5.84Z"/>
    <path class="st102" d="M36.57,40.47c.04.45.44.78.89.76.45-.02.77-.4.73-.85-.07-.69-.22-4.55-.21-5.82.01-.46-.35-.83-.82-.83-.47,0-.84.41-.84.87,0,0,.15,4.64.25,5.86Z"/>
    <path class="st83" d="M39.58,38.88c.45,0,.79-.36.77-.81-.03-.7,0-4.56.08-5.82.03-.45-.31-.85-.78-.87-.48-.03-.86.36-.89.83,0,0-.08,4.64-.04,5.87.02.45.4.81.85.8Z"/>
    <path class="st4" d="M41.81,36.64c.45.02.8-.32.81-.77,0-.7.23-4.56.38-5.8.05-.45-.27-.86-.74-.91-.47-.05-.89.31-.93.78,0,0-.31,4.63-.33,5.86,0,.45.36.82.81.85Z"/>
    <path class="st20" d="M44.15,34.51c.44.04.82-.28.84-.73.03-.7.45-4.55.67-5.77.08-.45-.23-.88-.69-.94-.47-.07-.91.26-.97.73,0,0-.55,4.6-.62,5.84-.03.45.32.84.77.88Z"/>
    <path class="st14" d="M46.59,32.5c.44.06.83-.24.88-.69.07-.69.67-4.52.95-5.73.1-.45-.18-.89-.64-.97-.46-.09-.92.21-1.01.67,0,0-.78,4.56-.9,5.8-.05.45.28.86.72.92Z"/>
    <path class="st91" d="M49.13,30.61c.44.09.84-.2.91-.65,0,0,.9-4.48,1.24-5.67.12-.44-.14-.9-.59-1.01-.46-.11-.93.16-1.04.62,0,0-1,4.52-1.19,5.75-.07.45.24.87.67.96Z"/>
    <path class="st26" d="M51.76,28.85c.43.11.85-.16.94-.6,0,0,1.12-4.42,1.52-5.6.14-.44-.1-.9-.54-1.03-.45-.13-.94.11-1.07.57,0,0-1.23,4.46-1.47,5.68-.09.44.19.88.63.99Z"/>
    <path class="st135" d="M54.48,27.22c.43.13.85-.12.97-.56,0,0,1.35-4.36,1.8-5.52.16-.43-.05-.91-.49-1.06-.44-.15-.95.06-1.1.51,0,0-1.45,4.39-1.76,5.61-.11.44.15.89.58,1.02Z"/>
    <path class="st111" d="M57.27,25.73c.42.15.86-.08,1-.5,0,0,1.56-4.29,2.08-5.42.18-.42,0-.91-.44-1.08-.43-.17-.95.02-1.13.45,0,0-1.67,4.31-2.03,5.51-.14.43.1.9.52,1.05Z"/>
    <path class="st121" d="M60.13,24.39c.41.17.86-.05,1.02-.45,0,0,1.78-4.2,2.35-5.31.21-.41.04-.91-.38-1.1-.42-.2-.94-.02-1.15.39,0,0-1.89,4.22-2.31,5.4-.16.43.06.9.47,1.07Z"/>
    <path class="st129" d="M63.06,23.19c.4.19.86,0,1.04-.4,0,0,1.98-4.11,2.61-5.18.23-.4.09-.9-.33-1.12-.41-.22-.94-.07-1.17.33,0,0-2.1,4.12-2.58,5.28-.18.42.01.9.42,1.09Z"/>
    <path class="st137" d="M66.04,22.13c.39.21.86.04,1.06-.34,0,0,2.19-4,2.86-5.05.25-.39.13-.9-.27-1.14-.4-.24-.94-.12-1.18.27,0,0-2.3,4.01-2.84,5.14-.2.41-.03.9.36,1.11Z"/>
    <path class="st97" d="M69.07,21.23c.38.23.85.08,1.08-.29,0,0,2.39-3.89,3.11-4.9.27-.38.18-.89-.21-1.15-.39-.26-.93-.16-1.19.21,0,0-2.5,3.88-3.09,4.99-.22.4-.08.9.3,1.13Z"/>
    <path class="st132" d="M72.15,20.48c.37.25.85.13,1.09-.23,0,0,2.58-3.76,3.36-4.74.28-.36.22-.88-.16-1.16-.37-.28-.92-.21-1.2.15,0,0-2.69,3.75-3.34,4.83-.24.39-.12.9.25,1.14Z"/>
    <path class="st77" d="M75.26,19.89c.36.27.84.17,1.1-.18,0,0,2.76-3.63,3.59-4.56.3-.35.26-.87-.1-1.16-.36-.3-.91-.25-1.21.09,0,0-2.87,3.62-3.58,4.66-.26.38-.17.89.19,1.15Z"/>
    <path class="st71" d="M78.39,19.45c.34.28.83.21,1.11-.12,0,0,2.94-3.49,3.81-4.38.32-.33.31-.85-.04-1.17s-.89-.3-1.21.03c0,0-3.05,3.47-3.8,4.48-.28.36-.21.88.13,1.16Z"/>
    <path class="st65" d="M81.54,19.17c.33.3.82.25,1.12-.07,0,0,3.11-3.35,4.02-4.19.33-.31.35-.84.02-1.17-.33-.33-.88-.35-1.21-.02,0,0-3.22,3.31-4.02,4.28-.29.35-.25.87.08,1.17Z"/>
    <path class="st101" d="M84.69,17.88c-.31.33-.3.85.02,1.17.31.32.81.29,1.12-.02,0,0,3.27-3.19,4.22-3.98.35-.3.39-.82.07-1.17-.31-.34-.86-.4-1.21-.08,0,0-3.38,3.15-4.22,4.08Z"/>
    <path class="st145" d="M87.87,19.08c.3.33.79.34,1.12.03,0,0,3.42-3.03,4.41-3.77.36-.28.43-.8.13-1.16-.3-.36-.84-.44-1.21-.13,0,0-3.53,2.99-4.42,3.87-.33.32-.34.84-.04,1.17Z"/>
    <path class="st103" d="M91.03,19.27c.28.34.77.38,1.12.08,0,0,3.57-2.85,4.6-3.54.38-.26.47-.78.19-1.15-.28-.38-.82-.48-1.2-.19,0,0-3.67,2.81-4.61,3.64-.34.3-.38.82-.1,1.17Z"/>
    <path class="st115" d="M94.18,19.61c.26.36.76.42,1.11.14,0,0,3.71-2.67,4.77-3.31.39-.24.51-.75.25-1.14-.26-.39-.79-.52-1.19-.25,0,0-3.81,2.62-4.78,3.41-.36.28-.42.8-.16,1.16Z"/>
    <path class="st87" d="M97.3,20.11c.25.37.73.46,1.1.2,0,0,3.83-2.48,4.93-3.07.4-.22.54-.73.3-1.13-.24-.4-.76-.56-1.17-.31,0,0-3.93,2.43-4.95,3.16-.37.26-.46.78-.21,1.15Z"/>
    <path class="st49" d="M100.4,20.76c.23.38.71.49,1.09.25,0,0,3.95-2.28,5.07-2.82.41-.2.58-.7.36-1.11-.22-.41-.74-.6-1.16-.37,0,0-4.05,2.23-5.1,2.91-.38.24-.5.75-.27,1.14Z"/>
    <path class="st110" d="M103.46,21.57c.21.39.68.53,1.08.31,0,0,4.06-2.08,5.21-2.56.42-.18.61-.67.42-1.09-.2-.42-.7-.64-1.13-.43,0,0-4.16,2.02-5.24,2.65-.39.22-.53.73-.33,1.12Z"/>
    <path class="st127" d="M106.47,22.53c.19.4.66.56,1.06.36,0,0,4.16-1.87,5.33-2.29.43-.16.65-.64.47-1.07-.18-.43-.67-.67-1.11-.49,0,0-4.25,1.81-5.37,2.39-.4.2-.57.7-.38,1.1Z"/>
    <path class="st60" d="M109.87,22.56c-.41.18-.6.67-.44,1.09.16.41.63.59,1.04.41,0,0,4.25-1.66,5.44-2.02.44-.14.68-.6.52-1.04-.15-.44-.64-.7-1.08-.55,0,0-4.34,1.6-5.48,2.11Z"/>
    <path class="st61" d="M112.83,23.84c-.42.16-.64.64-.49,1.06.14.42.6.61,1.02.47,0,0,4.33-1.44,5.53-1.75.45-.12.71-.57.58-1.02-.13-.45-.61-.72-1.05-.6,0,0-4.41,1.38-5.58,1.84Z"/>
    <path class="st78" d="M115.72,25.27c-.43.14-.67.61-.54,1.03.12.43.57.64.99.52,0,0,4.39-1.22,5.62-1.47.45-.1.74-.53.63-.99-.11-.45-.57-.75-1.02-.65,0,0-4.47,1.15-5.66,1.56Z"/>
    <path class="st8" d="M118.53,26.84c-.44.12-.7.58-.6,1.01.1.43.54.67.96.57,0,0,4.45-1,5.68-1.19.45-.07.76-.5.67-.96-.08-.46-.53-.78-.99-.7,0,0-4.52.92-5.73,1.27Z"/>
    <path class="st73" d="M121.27,28.55c-.44.1-.73.54-.64.98.08.43.5.7.93.62,0,0,4.49-.78,5.74-.91.46-.05.79-.46.72-.92-.06-.46-.49-.8-.95-.75-.7.07-4.56.69-5.79.98Z"/>
    <path class="st44" d="M123.91,30.39c-.45.08-.75.5-.69.94.07.43.46.73.89.67,0,0,4.52-.55,5.77-.62.46-.03.81-.42.77-.88-.04-.46-.46-.82-.92-.79-.7.04-4.59.47-5.83.69Z"/>
    <path class="st155" d="M126.46,32.36c-.45.06-.78.47-.74.91.05.43.42.76.86.72,0,0,4.54-.32,5.8-.34.46,0,.83-.38.81-.84-.02-.47-.42-.84-.88-.84-.7,0-4.61.24-5.85.4Z"/>
    <path class="st92" d="M128.95,36.09s4.54-.09,5.81-.05c.46.02.85-.34.85-.8,0-.46-.37-.86-.84-.88-.7-.03-4.62.02-5.86.1-.46.03-.8.43-.78.87.03.43.37.79.82.76Z"/>
    <path class="st27" d="M137.01,38.54c.46.04.86-.3.89-.76.03-.46-.33-.88-.79-.92-.7-.06-4.62-.21-5.85-.19-.46.01-.82.39-.83.83,0,.44.33.81.78.8,0,0,4.54.14,5.81.23Z"/>
    <path class="st36" d="M139.14,41.15c.46.06.88-.25.92-.72.05-.46-.29-.89-.75-.95-.7-.09-4.61-.43-5.83-.48-.46,0-.84.35-.87.79-.03.45.29.82.74.85,0,0,4.53.36,5.79.52Z"/>
    <path class="st70" d="M135.59,41.44c-.45-.04-.85.3-.9.74-.06.45.25.84.69.88,0,0,4.5.59,5.76.81.46.08.89-.21.96-.67.07-.46-.25-.9-.7-.99-.7-.12-4.59-.66-5.8-.77Z"/>
    <path class="st138" d="M137.58,43.98c-.44-.06-.86.25-.94.7-.08.44.21.85.65.91,0,0,4.47.81,5.71,1.09.45.11.9-.17.99-.62.1-.45-.2-.92-.65-1.02-.7-.16-4.55-.89-5.76-1.06Z"/>
    <path class="st38" d="M139.44,46.61c-.44-.09-.87.21-.97.65-.1.44.17.86.61.94,0,0,4.43,1.03,5.65,1.37.45.13.91-.12,1.02-.57.12-.45-.16-.92-.61-1.05,0,0-4.5-1.11-5.7-1.34Z"/>
    <path class="st134" d="M141.16,49.34c-.43-.11-.88.17-1,.6-.12.43.12.86.56.97,0,0,4.37,1.24,5.58,1.65.44.15.91-.08,1.05-.52.13-.44-.11-.93-.55-1.08,0,0-4.44-1.33-5.63-1.63Z"/>
    <path class="st43" d="M142.74,52.14c-.43-.13-.89.12-1.03.55-.14.43.08.87.51,1,0,0,4.31,1.46,5.49,1.93.43.17.91-.03,1.07-.46.16-.43-.07-.93-.5-1.11,0,0-4.37-1.55-5.54-1.91Z"/>
    <path class="st39" d="M144.19,55.03c-.42-.15-.89.08-1.06.5-.16.42.04.87.46,1.02,0,0,4.23,1.67,5.39,2.2.42.19.91.01,1.09-.41s-.02-.94-.45-1.13c0,0-4.28-1.77-5.44-2.18Z"/>
    <path class="st5" d="M145.48,57.98c-.42-.17-.9.03-1.08.44-.19.41,0,.87.41,1.04,0,0,4.14,1.88,5.27,2.47.41.21.91.06,1.11-.36.2-.42.03-.94-.39-1.15,0,0-4.19-1.98-5.32-2.45Z"/>
    <path class="st116" d="M146.63,60.99c-.4-.19-.9-.01-1.1.39-.21.4-.04.87.36,1.06,0,0,4.04,2.09,5.14,2.73.4.23.91.11,1.13-.3.22-.4.07-.93-.33-1.17,0,0-4.09-2.19-5.19-2.71Z"/>
    <path class="st142" d="M147.62,64.05c-.4-.21-.9-.06-1.12.33-.22.39-.09.86.31,1.08,0,0,3.93,2.29,5,2.99.39.25.9.15,1.14-.24.24-.39.12-.93-.27-1.18,0,0-3.97-2.39-5.05-2.97Z"/>
    <path class="st23" d="M148.46,67.16c-.39-.23-.89-.1-1.14.28-.24.38-.13.86.25,1.09,0,0,3.81,2.48,4.84,3.23.37.27.89.2,1.15-.18.26-.38.16-.92-.21-1.19,0,0-3.85-2.59-4.9-3.22Z"/>
    <path class="st128" d="M149.15,70.31c-.37-.25-.88-.15-1.15.22-.26.36-.18.85.2,1.1,0,0,3.68,2.67,4.67,3.47.36.29.88.24,1.16-.13.28-.37.21-.91-.15-1.2,0,0-3.71-2.78-4.73-3.46Z"/>
    <path class="st46" d="M149.67,73.49c-.36-.27-.88-.19-1.16.16-.28.35-.22.84.14,1.11,0,0,3.54,2.85,4.49,3.7.35.31.87.28,1.17-.07.3-.35.26-.9-.09-1.21,0,0-3.57-2.96-4.55-3.69Z"/>
    <path class="st33" d="M150.04,76.7c-.35-.29-.87-.23-1.16.1-.3.34-.26.83.08,1.12,0,0,3.4,3.02,4.3,3.92.33.33.86.33,1.17-.01.31-.34.3-.89-.03-1.21,0,0-3.42-3.13-4.36-3.91Z"/>
  </g>
  <path class="st59" d="M85.67,46.54c-19.86,0-35.96,16.1-35.96,35.96s16.1,35.96,35.96,35.96,35.96-16.1,35.96-35.96-16.1-35.96-35.96-35.96Z"/>
  <path class="st152" d="M85.67,125.71c-23.82,0-43.21-19.38-43.21-43.21s19.38-43.21,43.21-43.21,43.21,19.38,43.21,43.21-19.38,43.21-43.21,43.21ZM85.67,41.46c-22.63,0-41.04,18.41-41.04,41.04s18.41,41.04,41.04,41.04,41.04-18.41,41.04-41.04-18.41-41.04-41.04-41.04Z"/>
  <path class="st40" d="M85.8,118.46"/>
  <g>
    <path class="st82" d="M55.87,120.65l-1.61,2.16-.17-.15c.28-.65.4-1.22.36-1.7-.05-.7-.38-1.32-.98-1.84-.81-.72-1.71-.94-2.71-.67-.83.23-1.58.72-2.24,1.47-.54.61-.91,1.27-1.12,1.98-.21.71-.22,1.35-.05,1.92.17.57.46,1.03.86,1.39.24.21.49.38.76.51.27.14.56.23.87.3l1.63-1.84c.28-.32.44-.55.48-.69.04-.14.03-.28-.03-.42-.06-.14-.21-.33-.47-.55l.16-.18,2.47,2.18-.16.18-.12-.1c-.25-.22-.49-.28-.72-.2-.17.06-.4.26-.7.6l-1.73,1.95c-.53-.12-1.01-.3-1.45-.51-.43-.22-.86-.52-1.29-.9-1.23-1.09-1.82-2.31-1.76-3.67.04-1.02.41-1.91,1.09-2.69.5-.56,1.11-.98,1.83-1.26.86-.33,1.72-.41,2.57-.25.71.14,1.38.49,2.02,1.05.23.21.43.41.58.62.16.21.35.53.59.96.12.22.21.36.27.41.06.05.13.07.23.05.09-.02.21-.1.36-.25l.17.15Z"/>
    <path class="st15" d="M62.11,125.12l.12-.2,2.6,1.52-.12.2-.28-.16c-.29-.17-.58-.18-.88-.03-.14.07-.33.31-.57.71l-1.74,2.98c-.43.74-.84,1.27-1.22,1.59-.38.32-.87.5-1.47.54-.6.04-1.27-.15-2-.59-.8-.47-1.33-.96-1.58-1.48-.25-.52-.33-1.07-.23-1.64.07-.39.37-1.03.88-1.91l1.68-2.87c.26-.45.37-.79.33-1-.04-.21-.2-.4-.48-.56l-.28-.16.12-.2,3.18,1.86-.12.2-.28-.16c-.3-.18-.58-.21-.82-.09-.17.08-.37.32-.61.73l-1.87,3.21c-.17.29-.33.63-.49,1.03-.16.4-.24.74-.22,1.03.02.29.12.57.3.86.18.29.46.54.83.76.48.28.97.43,1.48.44.5.01.92-.1,1.25-.35.33-.25.72-.76,1.18-1.54l1.74-2.98c.27-.46.38-.78.35-.95-.05-.24-.21-.44-.49-.61l-.28-.16Z"/>
    <path class="st9" d="M68.82,133.92l-3.11-1.09-.99,1.08c-.24.26-.39.47-.45.63-.04.12-.02.25.06.38.08.13.31.28.69.45l-.08.22-2.53-.89.08-.22c.36.06.6.06.73,0,.27-.12.63-.43,1.08-.92l5.15-5.62.21.07.45,7.67c.04.62.12,1.04.25,1.26.13.22.35.41.67.54l-.08.22-3.17-1.12.08-.22c.33.1.56.12.71.07.14-.05.24-.14.29-.27.06-.17.08-.48.05-.91l-.08-1.33ZM68.81,133.43l-.22-3.73-2.54,2.76,2.76.97Z"/>
    <path class="st12" d="M81.43,139.44l-2.25-.34-2.26-4.37c-.21-.02-.38-.04-.52-.07-.05,0-.11-.02-.17-.03-.06-.01-.12-.02-.19-.04l-.37,2.45c-.08.53-.07.87.02,1.01.13.21.35.33.67.38l.33.05-.04.23-3.61-.54.03-.23.32.05c.36.05.63-.02.82-.23.11-.11.2-.41.27-.89l.82-5.44c.08-.53.07-.87-.02-1.01-.13-.21-.36-.33-.68-.38l-.32-.05.04-.23,3.07.46c.89.14,1.54.3,1.95.49.4.2.73.49.97.88.24.4.33.83.25,1.32-.08.52-.31.94-.71,1.27-.39.33-.96.52-1.69.57l1.37,2.68c.31.62.6,1.04.86,1.26.26.22.61.4,1.06.52l-.03.23ZM76.11,134.21c.08.01.15.02.2.03.06.01.11.02.14.02.8.12,1.43.04,1.89-.25.46-.29.73-.7.81-1.24.08-.53-.02-.98-.3-1.36-.28-.38-.69-.61-1.23-.69-.24-.04-.57-.05-.99-.03l-.53,3.5Z"/>
    <path class="st50" d="M88.91,136.49l-3.29.12-.53,1.37c-.13.34-.19.59-.19.75,0,.13.07.24.2.33.13.09.4.15.81.16v.23s-2.67.1-2.67.1v-.23c.34-.08.57-.17.67-.27.21-.21.43-.63.66-1.25l2.73-7.12h.22s3.23,6.96,3.23,6.96c.26.56.49.92.69,1.08.2.16.48.25.82.25v.23s-3.35.13-3.35.13v-.23c.33-.03.56-.09.67-.2.12-.1.17-.22.17-.36,0-.18-.1-.47-.28-.86l-.56-1.2ZM88.72,136.03l-1.57-3.38-1.35,3.5,2.92-.11Z"/>
    <path class="st151" d="M92.15,130.71l2.25-.53,6.53,5.03-1.12-4.78c-.12-.51-.25-.81-.4-.91-.19-.14-.45-.16-.77-.09l-.29.07-.05-.23,2.89-.68.05.23-.29.07c-.35.08-.57.25-.67.49-.06.15-.03.46.08.92l1.64,6.99-.22.05-7.04-5.39,1.2,5.11c.12.51.25.81.39.92.2.13.45.16.78.09l.29-.07.05.23-2.89.68-.05-.23.29-.07c.35-.08.58-.25.68-.49.06-.15.03-.46-.08-.92l-1.35-5.76c-.31-.22-.53-.37-.68-.43-.14-.06-.35-.1-.61-.12-.13,0-.31.02-.55.07l-.05-.23Z"/>
    <path class="st0" d="M108.38,125.44l.88,1.79-.22.1c-.18-.3-.34-.51-.47-.62-.22-.17-.45-.27-.69-.29-.24-.02-.53.04-.85.18l-1.1.48,2.59,5.97c.21.48.39.76.54.83.22.1.48.08.78-.05l.27-.12.09.21-3.31,1.44-.09-.21.28-.12c.33-.14.52-.34.57-.6.03-.16-.05-.46-.24-.9l-2.59-5.97-.94.41c-.37.16-.61.3-.74.42-.17.16-.28.37-.33.64-.05.27-.02.59.11.95l-.22.1-.7-1.87,6.38-2.77Z"/>
    <path class="st63" d="M111.51,124.07l1.83,2.82,1.57-1.02c.41-.26.64-.5.7-.71.08-.28,0-.63-.25-1.05l.19-.13,1.62,2.49-.2.13c-.27-.32-.47-.51-.58-.57-.14-.08-.31-.11-.5-.09-.19.02-.43.13-.73.33l-1.57,1.02,1.53,2.35c.21.32.34.5.42.55.07.05.16.07.25.07.1,0,.24-.07.44-.2l1.21-.79c.4-.26.68-.48.82-.66.15-.17.25-.4.31-.67.08-.36.08-.83.03-1.42l.21-.14.55,2.19-5.5,3.58-.13-.2.25-.16c.17-.11.3-.25.4-.43.08-.13.1-.26.06-.4-.03-.14-.16-.38-.39-.73l-3.02-4.64c-.29-.45-.52-.7-.68-.75-.22-.06-.47,0-.77.2l-.25.16-.13-.2,5.5-3.58,1.1,1.51-.21.13c-.32-.33-.57-.53-.75-.61-.18-.08-.38-.1-.61-.06-.17.04-.44.17-.79.4l-1.96,1.27Z"/>
    <path class="st119" d="M118.1,119.22l2.28,2.48,1.38-1.27c.36-.33.55-.6.57-.82.03-.29-.11-.62-.42-1l.17-.16,2.01,2.18-.17.16c-.32-.26-.55-.42-.67-.47-.15-.06-.32-.06-.51,0-.18.05-.41.2-.67.44l-1.38,1.27,1.9,2.07c.25.28.42.43.5.47.08.04.17.05.26.02.09-.02.23-.11.4-.27l1.06-.98c.35-.33.59-.59.7-.78.12-.2.18-.44.2-.72.01-.37-.06-.84-.21-1.41l.19-.17.91,2.07-4.83,4.44-.16-.17.22-.2c.15-.14.26-.3.32-.49.05-.14.05-.28,0-.41-.06-.13-.22-.35-.5-.65l-3.75-4.07c-.37-.4-.63-.61-.8-.62-.23-.02-.47.09-.73.33l-.22.2-.16-.17,4.83-4.44,1.33,1.31-.18.17c-.37-.27-.65-.43-.84-.48-.19-.05-.39-.04-.61.04-.17.07-.4.24-.72.53l-1.72,1.58Z"/>
  </g>
  <path class="st66" d="M86.28,72.57c.44-2.7,2.49-4.58,4.57-4.21,2.08.38,3.41,2.87,2.97,5.57-.44,2.7-2.49,4.58-4.57,4.21-2.08-.38-3.41-2.87-2.97-5.57ZM96.69,76.42c1.76.59,2.62,2.92,1.92,5.2-.7,2.28-2.69,3.65-4.45,3.05-1.76-.59-2.62-2.92-1.92-5.21.7-2.28,2.69-3.65,4.45-3.05ZM80.41,68.47c2.06-.37,4.08,1.49,4.52,4.15s-.88,5.13-2.93,5.5c-2.06.37-4.08-1.49-4.51-4.15-.44-2.67.87-5.13,2.93-5.5ZM74.49,104.77c-1.33-.83-2.58-1.78-3.74-2.82,0,0,0,0,0,0-.12.83-1.02,1.38-3.48,1.02-2.46-.36-5.87-2.38-5.87-2.38,0,0,3.84-.96,6.3-.6.52.08.96.17,1.33.28-.74-.8-1.42-1.63-2.06-2.51-.36.56-1.32.82-3.28.39-2.36-.51-5.54-2.69-5.54-2.69,0,0,3.79-.69,6.15-.18.51.11.94.24,1.3.37-.68-1.17-1.27-2.39-1.76-3.65-.46.38-1.38.42-3.02-.21-2.13-.82-4.76-3.32-4.76-3.32,0,0,3.63-.08,5.76.73.53.21.96.41,1.3.62-.37-1.31-.64-2.66-.8-4.04-.51.23-1.36.05-2.7-.92-1.75-1.26-3.56-4.17-3.56-4.17,0,0,3.34.79,5.08,2.05.43.31.76.59,1.02.86,0-.23-.01-.47-.01-.7,0-1.08.07-2.14.2-3.18-.5.1-1.23-.23-2.25-1.33-1.36-1.46-2.47-4.43-2.47-4.43,0,0,2.88,1.32,4.24,2.78.35.38.62.72.81,1.02.26-1.24.6-2.45,1.04-3.61-.47-.01-1.06-.44-1.78-1.57-.98-1.54-1.49-4.4-1.49-4.4,0,0,2.38,1.67,3.36,3.21.28.43.46.8.58,1.12.52-1.15,1.13-2.26,1.81-3.32-.44-.02-.89-.47-1.28-1.74-.46-1.5-.22-3.99-.22-3.99,0,0,1.58,1.94,2.04,3.44.14.47.22.85.23,1.16.71-.98,1.49-1.92,2.33-2.8-.31-.14-.59-.6-.72-1.6-.18-1.32.35-3.38.35-3.38,0,0,1.07,1.84,1.25,3.16.05.36.06.65.05.9.75-.71,1.53-1.37,2.36-1.99-.26-.08-.45-.43-.45-1.25,0-.96.57-2.39.57-2.39,0,0,.6,1.41.6,2.38,0,.35-.03.61-.09.8.43-.3.87-.6,1.33-.88.16-.1.29-.18.4-.24-.12-.28.04-.66.85-1.13.86-.5,2.42-.71,2.42-.71,0,0-.96,1.25-1.82,1.75-.79.46-1.2.43-1.39.2-.13.1-.3.23-.51.38-.38.27-.75.55-1.12.84.18-.03.4-.05.68-.04.96.03,2.37.65,2.37.65,0,0-1.44.54-2.4.52-.96-.03-1.27-.3-1.26-.62-.83.7-1.61,1.44-2.33,2.22.24-.08.56-.15.96-.19,1.33-.13,3.37.48,3.37.48,0,0-1.88,1-3.21,1.13-1.31.13-1.79-.18-1.84-.62-.73.85-1.4,1.75-2,2.68.24-.11.53-.21.88-.3,1.52-.4,4-.07,4-.07,0,0-1.99,1.51-3.51,1.91-1.32.35-1.95.18-2.18-.21-.54.96-1.02,1.96-1.43,2.98.23-.19.52-.39.88-.61,1.57-.92,4.45-1.33,4.45-1.33,0,0-1.76,2.31-3.33,3.24-1.5.88-2.26.8-2.6.34-.34,1.06-.61,2.16-.81,3.28.18-.2.4-.41.66-.64,1.51-1.3,4.52-2.3,4.52-2.3,0,0-1.43,2.83-2.94,4.13-1.26,1.09-2.05,1.27-2.53,1.01-.06.74-.1,1.49-.1,2.25,0,.35,0,.69.02,1.03.14-.22.31-.46.51-.72,1.32-1.7,4.3-3.4,4.3-3.4,0,0-.91,3.31-2.24,5-1.02,1.31-1.78,1.72-2.34,1.64.16,1.13.4,2.24.71,3.32.12-.27.26-.57.44-.89,1.11-1.99,3.95-4.25,3.95-4.25,0,0-.42,3.61-1.53,5.6-.77,1.38-1.43,1.97-1.99,2.08.44,1.09.96,2.15,1.54,3.16.06-.35.16-.75.3-1.21.71-2.31,3.17-5.28,3.17-5.28,0,0,.35,3.84-.36,6.14-.5,1.62-1.07,2.37-1.64,2.6.59.81,1.23,1.59,1.91,2.34,0-.4.03-.88.11-1.43.36-2.46,2.38-5.87,2.38-5.87,0,0,.96,3.84.6,6.3-.24,1.67-.68,2.53-1.2,2.87,1.04.93,2.16,1.79,3.35,2.55l-1.19,1.19ZM72.63,81.62c-.7-2.28.16-4.61,1.92-5.2,1.76-.59,3.75.77,4.45,3.05.7,2.28-.16,4.61-1.92,5.21-1.76.6-3.75-.77-4.45-3.05ZM91.42,94.31c-.68,0-2.05-.45-2.7-.71-1.2-.5-4.32-.56-6.03.07-.61.23-1.97.64-2.61.64-1.9,0-3.43-2.04-3.43-4.55s1.54-4.55,3.43-4.55c.18,0,.36.02.54.06.29.06.71-1.51,1.96-2.98.81-.95,1.87-1.53,3.02-1.53s2.25.6,3.07,1.58c1.26,1.52,1.7,3.06,2.07,2.96.22-.06.45-.09.69-.09,1.89,0,3.43,2.04,3.43,4.55s-1.54,4.55-3.43,4.55ZM109.41,89.21c2.13-.82,5.76-.73,5.76-.73,0,0-2.64,2.5-4.76,3.32-1.64.63-2.56.59-3.02.21-.49,1.27-1.08,2.49-1.76,3.65.36-.14.79-.26,1.3-.37,2.36-.51,6.15.18,6.15.18,0,0-3.17,2.18-5.54,2.69-1.97.42-2.92.16-3.29-.39-.63.88-1.32,1.72-2.06,2.51.37-.11.81-.21,1.33-.28,2.46-.36,6.3.6,6.3.6,0,0-3.41,2.02-5.87,2.38-2.46.36-3.36-.19-3.48-1.02h0c-1.16,1.04-2.41,1.98-3.74,2.82l-1.19-1.19c1.19-.76,2.31-1.62,3.35-2.55-.52-.34-.96-1.2-1.2-2.87-.36-2.46.6-6.3.6-6.3,0,0,2.02,3.41,2.38,5.87.08.56.11,1.03.11,1.43.68-.74,1.32-1.52,1.91-2.34-.56-.23-1.14-.98-1.64-2.6-.71-2.31-.36-6.14-.36-6.14,0,0,2.45,2.97,3.17,5.28.14.45.24.85.3,1.21.58-1.01,1.1-2.07,1.54-3.16-.56-.11-1.22-.7-1.99-2.08-1.11-1.99-1.53-5.6-1.53-5.6,0,0,2.84,2.26,3.95,4.25.18.32.33.62.44.89.31-1.08.54-2.19.71-3.32-.56.08-1.32-.33-2.34-1.64-1.32-1.7-2.24-5-2.24-5,0,0,2.98,1.7,4.3,3.4.2.26.37.5.51.72.01-.34.02-.68.02-1.03,0-.76-.03-1.51-.1-2.25-.48.26-1.28.07-2.53-1.01-1.51-1.3-2.93-4.13-2.93-4.13,0,0,3.01,1,4.51,2.3.26.23.48.44.66.64-.2-1.12-.47-2.22-.81-3.28-.34.47-1.1.54-2.6-.34-1.58-.92-3.33-3.24-3.33-3.24,0,0,2.88.4,4.45,1.33.36.21.65.41.88.61-.41-1.03-.89-2.03-1.43-2.98-.23.39-.86.55-2.18.21-1.52-.4-3.51-1.91-3.51-1.91,0,0,2.48-.33,4,.07.35.09.64.19.88.3-.61-.94-1.28-1.83-2-2.68-.05.44-.52.75-1.84.62-1.33-.13-3.21-1.13-3.21-1.13,0,0,2.04-.61,3.37-.48.4.04.71.1.96.19-.73-.79-1.51-1.53-2.33-2.22,0,.32-.3.59-1.26.62-.96.03-2.4-.52-2.4-.52,0,0,1.4-.63,2.37-.65.28,0,.5,0,.68.04-.36-.29-.74-.57-1.12-.84-.21-.15-.38-.27-.51-.38-.19.23-.6.26-1.39-.2-.86-.5-1.82-1.75-1.82-1.75,0,0,1.56.21,2.42.71.81.47.98.85.85,1.13.11.06.24.14.4.24.45.28.89.57,1.33.88-.06-.19-.09-.45-.09-.8,0-.96.6-2.38.6-2.38,0,0,.57,1.42.57,2.39,0,.82-.2,1.16-.46,1.25.83.62,1.61,1.29,2.36,1.99-.02-.24,0-.54.05-.9.18-1.32,1.25-3.16,1.25-3.16,0,0,.54,2.06.35,3.38-.14,1-.41,1.46-.72,1.6.84.88,1.62,1.81,2.33,2.8.02-.31.09-.69.23-1.16.46-1.5,2.04-3.44,2.04-3.44,0,0,.24,2.49-.22,3.99-.39,1.27-.84,1.73-1.28,1.74.68,1.06,1.29,2.17,1.81,3.32.12-.32.31-.69.58-1.12.98-1.54,3.36-3.21,3.36-3.21,0,0-.51,2.86-1.49,4.4-.72,1.13-1.31,1.56-1.78,1.57.43,1.17.78,2.38,1.04,3.61.19-.3.45-.64.81-1.02,1.36-1.46,4.24-2.78,4.24-2.78,0,0-1.11,2.97-2.47,4.43-1.02,1.09-1.75,1.43-2.25,1.33.13,1.04.2,2.1.2,3.18,0,.23,0,.47-.01.7.26-.26.59-.55,1.02-.86,1.75-1.26,5.08-2.05,5.08-2.05,0,0-1.81,2.91-3.56,4.17-1.34.97-2.19,1.15-2.7.92-.16,1.38-.43,2.73-.8,4.04.34-.2.77-.41,1.3-.62Z"/>
  <circle class="st123" cx="32.39" cy="100.81" r="3.56"/>
  <path class="st123" d="M137.71,100.8c0,1.83-1.48,3.3-3.3,3.3s-3.3-1.48-3.3-3.3,1.48-3.3,3.3-3.3,3.3,1.48,3.3,3.3Z"/>
  <g>
    <rect class="st59" x="0" y="190.83" width="247.83" height="24.85"/>
    <path class="st24" d="M2.83,192.54h-.02l-1.36.73-.2-.8,1.7-.91h.9v7.8h-1.02v-6.81Z"/>
    <path class="st24" d="M9.96,199.35v-2.12h-3.62v-.7l3.48-4.98h1.14v4.85h1.09v.83h-1.09v2.12h-1ZM9.96,196.4v-2.6c0-.41.01-.82.04-1.22h-.04c-.24.46-.43.79-.65,1.15l-1.91,2.65v.02h2.55Z"/>
    <path class="st24" d="M15.63,195.72v.78h-2.96v-.78h2.96Z"/>
    <path class="st24" d="M16.91,191.38c.64-.1,1.39-.17,2.22-.17,1.5,0,2.57.35,3.27,1.01.72.66,1.14,1.59,1.14,2.9s-.41,2.4-1.16,3.14c-.76.76-2,1.16-3.57,1.16-.74,0-1.37-.04-1.9-.1v-7.95ZM17.95,198.52c.26.05.65.06,1.06.06,2.23,0,3.44-1.25,3.44-3.43.01-1.91-1.07-3.12-3.27-3.12-.54,0-.95.05-1.22.11v6.38Z"/>
    <path class="st24" d="M26.04,196.81l-.84,2.54h-1.08l2.75-8.08h1.26l2.76,8.08h-1.12l-.86-2.54h-2.87ZM28.69,195.99l-.79-2.33c-.18-.53-.3-1.01-.42-1.48h-.02c-.12.48-.25.97-.41,1.46l-.79,2.34h2.43Z"/>
    <path class="st24" d="M32.93,199.35v-3.43l-2.55-4.65h1.19l1.14,2.23c.31.61.55,1.1.8,1.67h.02c.23-.53.5-1.06.82-1.67l1.16-2.23h1.19l-2.71,4.64v3.44h-1.06Z"/>
    <path class="st24" d="M46.97,195.8c-.06-1.13-.13-2.48-.12-3.49h-.04c-.28.95-.61,1.96-1.02,3.07l-1.43,3.92h-.79l-1.31-3.85c-.38-1.14-.71-2.18-.94-3.14h-.02c-.02,1.01-.08,2.36-.16,3.57l-.22,3.47h-1l.56-8.08h1.33l1.38,3.91c.34,1,.61,1.88.82,2.72h.04c.2-.82.49-1.7.85-2.72l1.44-3.91h1.33l.5,8.08h-1.02l-.2-3.55Z"/>
    <path class="st24" d="M56.72,195.22c0,2.78-1.69,4.26-3.75,4.26s-3.63-1.66-3.63-4.1c0-2.57,1.6-4.25,3.75-4.25s3.63,1.69,3.63,4.09ZM50.45,195.36c0,1.73.94,3.27,2.58,3.27s2.59-1.52,2.59-3.36c0-1.61-.84-3.29-2.58-3.29s-2.59,1.6-2.59,3.37Z"/>
    <path class="st24" d="M58.08,199.35v-8.08h1.14l2.59,4.09c.6.95,1.07,1.8,1.45,2.63h.02c-.1-1.09-.12-2.08-.12-3.33v-3.38h.98v8.08h-1.06l-2.57-4.1c-.56-.9-1.1-1.82-1.51-2.7h-.04c.06,1.03.08,2,.08,3.35v3.45h-.98Z"/>
    <path class="st24" d="M70.16,195.56h-3.14v2.91h3.5v.88h-4.55v-8.08h4.37v.88h-3.32v2.55h3.14v.86Z"/>
    <path class="st24" d="M73.71,199.35v-3.43l-2.55-4.65h1.19l1.14,2.23c.31.61.55,1.1.8,1.67h.02c.23-.53.5-1.06.82-1.67l1.16-2.23h1.19l-2.71,4.64v3.44h-1.06Z"/>
    <path class="st24" d="M80.95,191.38c.46-.1,1.18-.17,1.91-.17,1.04,0,1.72.18,2.22.59.42.31.67.79.67,1.43,0,.78-.52,1.46-1.37,1.78v.02c.77.19,1.67.83,1.67,2.03,0,.7-.28,1.22-.68,1.62-.56.52-1.48.76-2.79.76-.72,0-1.27-.05-1.62-.1v-7.95ZM81.99,194.69h.95c1.1,0,1.75-.58,1.75-1.36,0-.95-.72-1.32-1.77-1.32-.48,0-.76.04-.92.07v2.6ZM81.99,198.56c.2.04.5.05.88.05,1.08,0,2.07-.4,2.07-1.57,0-1.1-.95-1.56-2.09-1.56h-.86v3.08Z"/>
    <path class="st24" d="M88.76,196.81l-.84,2.54h-1.08l2.75-8.08h1.26l2.76,8.08h-1.12l-.86-2.54h-2.87ZM91.41,195.99l-.79-2.33c-.18-.53-.3-1.01-.42-1.48h-.02c-.12.48-.25.97-.41,1.46l-.79,2.34h2.43Z"/>
    <path class="st24" d="M100.27,199.09c-.38.19-1.15.38-2.13.38-2.28,0-3.99-1.44-3.99-4.09s1.72-4.25,4.22-4.25c1.01,0,1.64.22,1.92.36l-.25.85c-.4-.19-.96-.34-1.63-.34-1.9,0-3.15,1.21-3.15,3.33,0,1.98,1.14,3.25,3.11,3.25.64,0,1.28-.13,1.7-.34l.22.83Z"/>
    <path class="st24" d="M101.58,191.27h1.04v3.9h.04c.22-.31.43-.6.64-.86l2.47-3.04h1.3l-2.93,3.43,3.15,4.65h-1.23l-2.66-3.97-.77.89v3.08h-1.04v-8.08Z"/>
  </g>
  <g>
    <path class="st51" d="M38.3,69.64c-.07.29-.14.49-.21.61-.06.1-.13.15-.24.17-.13.02-.34,0-.62-.05l-7.4-1.45.05.19c.08.34.15.72.19,1.14.04.42.05.94.02,1.56v.11s.47.09.47.09l.02-.12c.08-.39.16-.68.23-.87.07-.16.16-.27.27-.31.08-.03.24-.06.55,0l5.32,1.04c.35.07.5.15.58.2.09.07.14.17.15.32.01.17,0,.44-.06.81l-.02.12.48.09.02-.13c.06-.44.17-1.05.32-1.81.14-.72.26-1.25.35-1.6l.03-.13-.48-.09-.03.12Z"/>
    <path class="st1" d="M40.51,62.88c-.11.27-.21.46-.3.57-.07.09-.15.13-.26.13-.12.01-.33-.05-.6-.14l-.77-.28.55-1.52-.99-.36-.55,1.52-5.31-1.9-.13.37,4.36,6.36.02.03.38.14,1.19-3.32.77.28c.33.12.48.22.54.29.08.08.11.19.1.34-.01.17-.07.43-.19.79l-.04.11.46.17.04-.13c.13-.43.33-1.02.59-1.75.24-.68.44-1.2.58-1.53l.05-.12-.46-.17-.05.11ZM37.1,64.13l-.83,2.32-2.41-3.49,3.24,1.16Z"/>
    <rect class="st67" x="36.9" y="56.16" width="4.88" height=".95" transform="translate(-29.31 63.14) rotate(-60.63)"/>
    <path class="st125" d="M46.97,46.08c-1.06-.89-2.13-1.27-3.19-1.14-1.05.13-2.09.79-3.07,1.97-.13.15-.37.46-.73.91l-.69.84c-.34.41-.61.71-.82.92l-.09.1.38.32.08-.09c.2-.22.36-.36.48-.43.09-.06.19-.07.29-.03.12.04.3.16.52.34l4.57,3.81c.22.18.36.33.43.45.05.09.06.19.02.29-.05.13-.16.31-.34.55l-.07.1.38.32.08-.11c.21-.29.54-.71.99-1.24.14-.17.37-.43.69-.79l.49-.56c.63-.75,1.04-1.53,1.22-2.31.18-.78.13-1.55-.15-2.27-.27-.72-.76-1.37-1.44-1.94ZM46.44,52.83c-.1.05-.2.05-.31.01-.13-.05-.3-.16-.51-.34l-4.61-3.84c-.21-.17-.35-.32-.42-.44-.06-.1-.07-.2-.04-.3.04-.12.14-.28.29-.47.55-.66,1.1-1.09,1.63-1.3.27-.1.55-.16.84-.16.26,0,.53.04.8.13.58.19,1.22.58,1.91,1.15.69.58,1.2,1.14,1.51,1.66.3.51.41,1.06.32,1.62-.09.57-.43,1.21-.99,1.88-.16.2-.3.33-.42.38Z"/>
    <path class="st84" d="M57.07,42.78c-.27.2-.61.18-1.04-.05l-7.19-3.88-.07-.04-.29.23,2.27,7.62c.17.58.14,1.03-.11,1.34l-.06.08.3.37.1-.1c.18-.18.42-.39.72-.63.38-.31.77-.61,1.16-.9l.11-.08-.31-.38-.1.08c-.28.22-.52.34-.71.36-.17.02-.31-.04-.44-.2-.13-.16-.27-.46-.4-.88l-.37-1.24,2.28-1.85,1.78.99c.21.11.36.22.44.31.07.09.08.16.03.25-.06.12-.21.29-.44.5l-.09.08.31.38.1-.09c.26-.24.68-.6,1.25-1.06.44-.36.8-.64,1.08-.83l.11-.08-.31-.38-.1.07ZM52.46,42.39l-1.96,1.59-.98-3.23,2.95,1.64Z"/>
    <path class="st156" d="M61.89,40.06c-.26.13-.46.21-.6.24-.11.02-.2,0-.28-.07-.1-.08-.22-.25-.37-.5l-1.07-1.87-.11-4.21c0-.38.02-.68.07-.89.05-.2.14-.35.25-.46l.07-.07-.24-.41-.11.08c-.21.15-.48.31-.81.5-.43.24-.86.48-1.29.7l-.12.06.25.43.11-.06c.31-.17.57-.26.76-.27.18,0,.28.06.37.21.12.21.19.55.2,1.01l.08,3.23-3.55-2.14c-.14-.08-.23-.17-.28-.26-.05-.09-.05-.18.02-.28.08-.12.24-.26.49-.39l.11-.06-.25-.44-.11.07c-.3.2-.81.5-1.53.92-.36.21-.69.38-.99.53l-.12.06.25.44.11-.06c.07-.04.17-.05.28-.03.13.02.32.1.57.25l4.47,2.59.88,1.53c.14.25.23.44.25.57.02.11,0,.2-.08.28-.09.1-.26.24-.51.4l-.1.06.25.43.11-.07c.3-.2.77-.48,1.4-.84.59-.34,1.07-.6,1.43-.78l.12-.06-.25-.43-.11.05Z"/>
    <path class="st120" d="M77.87,34.6c-.29.06-.5.08-.64.07-.11,0-.19-.05-.25-.14-.07-.11-.15-.3-.22-.58l-1.46-5.77c-.07-.28-.1-.48-.08-.61.01-.11.06-.19.16-.25.12-.08.32-.16.6-.24l.11-.04-.12-.48-.13.04c-.37.12-.88.26-1.56.43l-.67.17-.95,7.15-4.31-5.87-.09.03c-.27.09-.62.19-1.04.3-.49.12-.88.21-1.16.26l-.13.02.12.48.12-.02c.29-.06.51-.08.64-.07.11,0,.19.06.25.14.05.07.13.23.22.58l1.43,5.65c.07.28.1.5.09.65,0,.13-.06.23-.16.31-.11.09-.3.18-.57.26l-.11.04.12.48.13-.04c.26-.09.65-.2,1.14-.32.54-.14.97-.23,1.27-.28l.13-.02-.12-.48-.12.02c-.32.07-.56.09-.72.06-.14-.02-.24-.08-.31-.19-.08-.12-.16-.33-.23-.61l-1.4-5.53,4.72,6.32.36-.09,1.02-7.72,1.42,5.6c.07.28.1.49.08.61-.01.11-.06.19-.16.25-.11.07-.32.16-.6.24l-.11.04.12.48.13-.04c.34-.11.87-.26,1.58-.44.67-.17,1.2-.29,1.58-.36l.13-.02-.12-.48-.12.02Z"/>
    <path class="st107" d="M85.62,26.34c-.64-.33-1.39-.48-2.21-.45-.81.03-1.53.25-2.15.66-.62.41-1.1.98-1.43,1.69-.33.71-.48,1.52-.44,2.42.03.92.24,1.72.61,2.37.37.66.89,1.16,1.53,1.49.59.3,1.26.45,2.01.45.07,0,.14,0,.21,0,.81-.03,1.53-.25,2.15-.66.62-.41,1.11-.98,1.43-1.69.33-.71.48-1.52.44-2.41-.03-.92-.24-1.72-.61-2.37-.37-.66-.89-1.16-1.53-1.49ZM80.91,30.55c-.03-.81.06-1.53.25-2.17.2-.62.49-1.12.87-1.47.38-.35.83-.54,1.34-.55.03,0,.06,0,.08,0,.47,0,.9.15,1.29.44.42.31.77.78,1.03,1.38.27.6.42,1.32.45,2.13.03.8-.05,1.53-.25,2.16-.2.62-.49,1.12-.87,1.47-.38.35-.83.54-1.34.55-.5.01-.96-.13-1.38-.44-.42-.31-.77-.78-1.03-1.38-.27-.6-.42-1.32-.45-2.13Z"/>
    <path class="st31" d="M98.75,27.31c-.28-.02-.67-.07-1.17-.14-.55-.08-.98-.16-1.28-.23l-.13-.03-.07.49.12.02c.32.06.55.14.69.22.12.07.19.17.22.29.03.14.02.37-.02.66l-.71,4.68-3.35-6.84h-.07c-.28-.02-.61-.06-.98-.12-.5-.08-.89-.15-1.16-.21l-.13-.03-.07.49.12.02c.29.06.5.12.62.18.1.05.16.13.18.23.03.13.02.33-.02.62l-.88,5.77c-.04.29-.1.5-.17.63-.06.12-.15.19-.27.22-.14.04-.35.05-.63.02h-.12s-.07.48-.07.48h.14c.28.03.67.08,1.17.15.56.09.98.16,1.28.23l.13.03.07-.49-.12-.02c-.32-.06-.55-.14-.69-.22-.12-.07-.19-.17-.22-.29-.03-.14-.02-.36.02-.66l.89-5.87,4.01,8.21.48.07,1.09-7.21c.04-.29.1-.5.17-.63.06-.12.15-.19.27-.22.14-.04.35-.05.63-.02h.12s.07-.48.07-.48h-.14Z"/>
    <path class="st19" d="M105.33,29.36c-1.55-.53-2.73-.95-3.5-1.24l-.12-.04-.16.46.11.04c.27.11.47.21.58.29.09.07.13.15.14.26,0,.09-.02.27-.13.6l-1.93,5.63c-.09.27-.18.46-.27.56-.07.08-.15.12-.26.12h0c-.14,0-.35-.04-.63-.12l-.11-.03-.16.46.12.04c.79.25,1.98.64,3.53,1.17,1.3.44,2.23.77,2.76.98l.13.05.03-.14c.13-.55.26-1.04.41-1.47.12-.34.22-.6.31-.79l.06-.13-.52-.18-.05.1c-.23.5-.46.87-.66,1.1-.2.21-.43.33-.7.36-.28.03-.68-.04-1.16-.2l-.89-.3c-.28-.1-.47-.18-.58-.26-.09-.06-.13-.14-.13-.25,0-.13.04-.33.13-.6l.89-2.61.68.23c.29.1.5.25.61.44.11.2.14.44.08.74-.07.33-.11.52-.12.58l-.02.1.51.17.03-.13c.18-.69.34-1.24.48-1.63l.19-.54c.13-.39.27-.74.4-1.05l.05-.12-.51-.17-.17.31c-.12.24-.23.43-.34.58-.1.13-.23.23-.4.29-.17.06-.38.05-.64-.04l-.68-.23.88-2.56c.09-.27.18-.46.26-.56.07-.08.16-.11.26-.12.14,0,.34.05.62.15l1.01.35c.41.14.69.29.85.46.15.16.23.35.24.59,0,.26-.04.64-.15,1.14l-.02.11.52.18.03-.14c.03-.17.1-.41.2-.7.13-.39.31-.82.54-1.3l.06-.13-.14-.04c-.5-.15-1.36-.43-2.54-.83Z"/>
    <path class="st32" d="M117.14,35.4l.23-.42-.13-.05c-.23-.1-.52-.24-.85-.42-.43-.23-.86-.48-1.27-.73l-.11-.07-.23.43.11.06c.31.18.52.35.63.5.09.13.1.27.01.43-.12.21-.37.45-.76.7l-2.71,1.77-.04-4.15c0-.16.03-.28.07-.37.05-.09.12-.13.23-.13h.01c.15,0,.35.07.59.21l.11.06.24-.45-.12-.06c-.33-.15-.87-.43-1.59-.82-.36-.2-.69-.39-.97-.57l-.11-.07-.24.45.11.06c.07.04.13.11.18.22.05.12.08.33.09.62l.14,5.16-.84,1.55c-.14.25-.26.42-.35.51-.08.07-.17.09-.28.08-.14-.02-.34-.1-.6-.23l-.11-.05-.24.43.12.06c.32.15.81.4,1.45.75.61.33,1.08.6,1.41.81l.11.07.23-.43-.1-.06c-.25-.15-.43-.28-.52-.38-.08-.08-.1-.17-.09-.28.02-.13.1-.32.23-.57l1.03-1.89,3.53-2.3c.32-.21.59-.34.79-.4.2-.06.37-.07.52-.03l.1.03Z"/>
    <path class="st109" d="M124.28,46.86c-.03-.49-.26-1.04-.7-1.64.48.19.92.26,1.31.21.51-.06.93-.27,1.27-.64.41-.45.56-.98.45-1.59-.11-.59-.5-1.2-1.16-1.81-.15-.14-.29-.26-.41-.37l-1.02-.93c-.5-.46-.88-.83-1.12-1.08l-.09-.1-.33.36.08.08c.21.21.34.38.41.5.05.1.06.19.02.29-.05.12-.17.29-.37.5l-4.05,4.37c-.2.21-.35.35-.47.4-.1.05-.19.05-.29,0-.13-.06-.3-.18-.53-.37l-.09-.08-.33.36.1.08c.28.22.66.57,1.19,1.05.38.35.77.73,1.16,1.11.11.12.26.26.43.41.47.44.96.75,1.45.93.32.12.64.17.94.17.16,0,.32-.02.47-.05.45-.09.84-.32,1.16-.67.39-.42.57-.94.54-1.53ZM123.19,45.98c.04.45-.14.9-.55,1.33-.9.97-1.89.94-3.01-.1-.19-.17-.31-.32-.37-.43-.05-.1-.05-.19,0-.29.05-.12.17-.28.35-.48l1.98-2.13.7.65c.56.52.86,1.01.9,1.46ZM124.98,43.89c-.38.41-.78.65-1.2.72-.4.07-.85-.13-1.34-.58l-.54-.5,1.76-1.9c.19-.2.34-.33.46-.4.1-.05.21-.06.31-.03h0c.12.04.27.15.45.32.44.4.66.8.66,1.17,0,.37-.19.77-.57,1.19Z"/>
    <path class="st154" d="M132.3,49.1l.04-.07-.22-.3-7.72,1.93c-.59.15-1.03.09-1.33-.17l-.08-.06-.38.28.09.1c.17.19.37.44.59.74.29.39.58.8.85,1.2l.07.11.4-.29-.07-.1c-.2-.29-.32-.53-.33-.72-.02-.17.06-.31.22-.43.17-.12.47-.24.9-.36l1.25-.31,1.75,2.36-1.07,1.73c-.12.21-.23.35-.33.42-.09.07-.16.07-.25.02-.12-.07-.28-.23-.48-.47l-.08-.09-.4.29.09.1c.23.27.57.71,1,1.29.34.45.6.83.78,1.12l.07.11.4-.29-.07-.1c-.19-.28-.16-.62.09-1.03l4.2-7.01ZM130.38,49.68l-1.77,2.87-1.51-2.03,3.27-.84Z"/>
    <path class="st153" d="M134.07,63.69l-.22-.48-.1.03c-.5.16-.88.26-1.14.3-.25.04-.51.03-.77-.03-.35-.08-.67-.26-.96-.54-.3-.29-.53-.62-.71-.99-.22-.48-.28-.98-.18-1.48.1-.51.38-1.01.82-1.48.45-.48,1.07-.9,1.84-1.26.76-.35,1.48-.56,2.13-.62.65-.06,1.21.02,1.68.24.46.22.8.57,1.02,1.04.19.4.3.81.32,1.22.03.4-.04.78-.21,1.13-.11.24-.24.43-.4.59-.17.16-.47.39-.89.7l-.08.06.22.48.11-.05c1.19-.55,2.03-.93,2.51-1.12l.12-.05-.23-.49-.11.04c-.46.16-.62.12-.64.07,0-.02-.02-.07,0-.19.08-.42.11-.84.08-1.23h0c-.03-.4-.16-.84-.38-1.32-.34-.73-.83-1.31-1.45-1.72-.62-.41-1.33-.64-2.11-.66-.79-.02-1.59.15-2.4.53-.83.39-1.49.89-1.95,1.48-.46.6-.72,1.27-.78,1.99-.05.72.1,1.46.45,2.22.22.46.47.83.74,1.1.27.27.62.53,1.01.77.11.08.15.13.16.15,0,.01.02.04-.04.11-.05.05-.16.15-.42.31l-.1.06.23.49.12-.06c.47-.26,1.34-.68,2.58-1.26l.11-.05Z"/>
    <path class="st94" d="M141.98,71.97c-.08-.25-.17-.6-.27-1.04-.11-.47-.21-.96-.29-1.44l-.02-.13-.48.11.03.12c.09.44.04.68-.15.72-.16.04-.49,0-1.18-.37l-1.7-.88c-.43-.22-.72-.57-.88-1.07l2.49-.56c.35-.08.53-.08.62-.07.11.01.19.07.24.16.07.12.15.32.23.6l.03.11.48-.11-.04-.13c-.11-.38-.24-.91-.39-1.57-.16-.73-.27-1.25-.33-1.6l-.02-.13-.48.11.02.12c.05.29.07.51.05.64-.01.11-.06.19-.15.25-.11.07-.3.14-.58.2l-5.81,1.32c-.28.06-.49.09-.62.07-.11-.01-.19-.07-.24-.16-.07-.12-.15-.32-.23-.6l-.03-.11-.48.11.04.13c.1.34.24.88.4,1.59.15.67.26,1.21.32,1.59l.02.13.48-.11-.02-.12c-.05-.29-.07-.51-.05-.64.01-.11.06-.19.15-.25.11-.07.3-.14.59-.2l2.82-.64c.03.22.01.41-.04.55-.06.17-.23.42-.51.72l-2.16,2.41c-.09.11-.16.14-.19.15-.01,0-.04,0-.08-.05-.03-.05-.09-.15-.15-.38l-.03-.12-.48.11.04.13c.11.4.22.82.33,1.27.13.59.24,1.1.3,1.5l.02.13.46-.1v-.1c0-.25.03-.46.1-.64h0c.07-.18.18-.36.33-.54l3.08-3.69,2.82,1.44c.31.15.55.33.72.53.17.2.31.43.41.68l.04.1.47-.11-.04-.13Z"/>
  </g>
</svg>