<?xml version="1.0" encoding="utf-8"?>
<!-- Generator: Adobe Illustrator 16.0.3, SVG Export Plug-In . SVG Version: 6.00 Build 0)  -->
<!DOCTYPE svg PUBLIC "-//W3C//DTD SVG 1.1//EN" "http://www.w3.org/Graphics/SVG/1.1/DTD/svg11.dtd">
<svg version="1.1" id="Layer_1" xmlns="http://www.w3.org/2000/svg" xmlns:xlink="http://www.w3.org/1999/xlink" x="0px" y="0px"
	 width="531.204px" height="66px" viewBox="0 -6.26 531.204 66" enable-background="new 0 -6.26 531.204 66" xml:space="preserve">
<path fill="#02003A" d="M156.393,48.469V4.358h17.212c11.784,0,19.372,9.501,19.372,22.519c0,7.156-2.406,13.449-7.033,17.337
	c-3.27,2.714-7.526,4.257-13.079,4.257L156.393,48.469L156.393,48.469z M165.339,40.757h6.91c8.39,0,11.66-5.12,11.66-13.882
	c0-8.761-3.825-14.868-11.414-14.868h-7.156V40.757z M211.416,49.394c-10.488,0-16.41-7.341-16.41-16.78
	c0-9.377,6.354-16.657,15.608-16.657c10.179,0,15.608,7.773,15.608,19.063h-22.95c0.617,4.874,3.332,7.896,8.082,7.896
	c3.27,0,5.182-1.48,6.107-3.888h8.267C224.557,44.644,219.56,49.394,211.416,49.394z M210.737,22.434
	c-4.442,0-6.601,2.652-7.341,6.786h14.066C217.215,25.209,214.563,22.434,210.737,22.434z M242.321,49.394
	c-9.192,0-14.313-4.441-14.807-11.166h7.773c0.555,3.64,3.146,5.244,6.91,5.244c3.702,0,5.8-1.419,5.8-3.642
	c0-3.021-4.011-3.33-8.33-4.193c-5.676-1.111-11.229-2.653-11.229-9.563c0-6.848,5.676-10.118,12.894-10.118
	c8.33,0,12.957,4.133,13.574,10.488h-7.588c-0.37-3.393-2.53-4.627-6.109-4.627c-3.27,0-5.429,1.234-5.429,3.517
	c0,2.714,4.195,2.961,8.699,3.887c5.307,1.11,11.168,2.592,11.168,9.995C255.648,45.57,250.219,49.394,242.321,49.394z
	 M258.814,48.469V16.82h8.39v31.649H258.814z M258.814,11.885V4.358h8.39v7.527H258.814z M285.938,59.265
	c-8.637,0-13.943-3.701-14.807-9.871h8.328c0.68,1.975,2.469,3.517,6.354,3.517c4.75,0,7.033-2.281,7.033-6.601v-3.455h-0.185
	c-1.852,2.098-4.258,3.701-8.268,3.701c-7.033,0-13.943-5.552-13.943-15.114c0-9.439,5.676-15.485,13.696-15.485
	c3.949,0,6.849,1.542,8.761,4.195h0.125V16.82h8.082v29.243c0,4.441-1.42,7.465-3.764,9.624
	C294.698,58.155,290.625,59.265,285.938,59.265z M285.814,39.83c5.306,0,7.465-3.887,7.465-8.574c0-4.628-2.468-8.575-7.526-8.575
	c-4.258,0-7.096,3.332-7.096,8.637C278.657,36.686,281.495,39.83,285.814,39.83z M314.104,16.82v4.318h0.186
	c2.158-3.394,5.059-5.183,9.377-5.183c6.539,0,10.92,4.937,10.92,11.846v20.667h-8.391V29.033c0-3.393-1.975-5.799-5.49-5.799
	c-3.701,0-6.416,2.961-6.416,7.28v17.953h-8.391V16.819L314.104,16.82L314.104,16.82z M366.655,49.455
	c-11.969,0-18.756-5.306-19.064-14.621h8.76c0.617,5.306,3.643,7.402,9.934,7.402c4.564,0,8.576-1.604,8.576-5.676
	c0-4.318-4.195-5.183-10.92-6.725c-7.896-1.79-15.115-3.888-15.115-13.08c0-8.698,7.096-13.201,16.904-13.201
	c9.934,0,16.35,4.874,17.027,13.758h-8.576c-0.492-4.442-3.947-6.663-8.514-6.663c-4.813,0-7.959,2.036-7.959,5.182
	c0,3.578,3.086,4.627,9.625,6.046c9.068,1.975,16.473,4.135,16.473,13.635C383.805,44.458,376.586,49.455,366.655,49.455z
	 M402.536,49.394c-9.994,0-16.227-7.279-16.227-16.719s6.17-16.72,15.793-16.72c8.205,0,13.266,4.75,14.375,11.599h-8.203
	c-0.557-2.776-2.717-4.874-5.801-4.874c-5.059,0-7.648,3.887-7.648,9.994c0,5.983,2.404,9.994,7.525,9.994
	c3.395,0,5.799-1.789,6.354-5.367h8.082C416.231,44.027,410.987,49.394,402.536,49.394z M428.219,4.358v16.596h0.188
	c2.281-3.332,4.873-4.997,9.191-4.997c6.539,0,10.918,4.937,10.918,11.846v20.667h-8.389V29.034c0-3.393-1.975-5.799-5.492-5.799
	c-3.701,0-6.416,2.961-6.416,7.28v17.953h-8.391V4.358H428.219z M468.065,49.394c-9.811,0-16.535-7.279-16.535-16.719
	s6.725-16.72,16.535-16.72c9.809,0,16.531,7.28,16.531,16.72C484.598,42.115,477.874,49.394,468.065,49.394z M468.065,42.978
	c5.119,0,8.02-4.133,8.02-10.303s-2.9-10.364-8.02-10.364c-5.184,0-8.021,4.194-8.021,10.364S462.881,42.978,468.065,42.978z
	 M502.874,49.394c-9.809,0-16.533-7.279-16.533-16.719s6.725-16.72,16.533-16.72s16.535,7.28,16.535,16.72
	S512.684,49.394,502.874,49.394z M502.874,42.978c5.121,0,8.021-4.133,8.021-10.303s-2.9-10.364-8.021-10.364
	c-5.182,0-8.021,4.194-8.021,10.364C494.854,38.845,497.692,42.978,502.874,42.978z M522.813,48.469V4.358h8.391v44.111H522.813z"/>
<path fill="#02003A" d="M23.64,12.51c7.943,0,14.403,6.411,14.403,14.295c0,7.887-6.459,14.3-14.403,14.3
	c-7.938,0-14.396-6.412-14.396-14.3C9.244,18.921,15.702,12.51,23.64,12.51z M23.64,3.334C10.586,3.334,0,13.841,0,26.805
	C0,39.772,10.585,50.28,23.64,50.28c13.061,0,23.645-10.508,23.645-23.475C47.285,13.841,36.7,3.334,23.64,3.334z"/>
<path fill="#02003A" d="M84.019,31.055c-1.831,5.813-7.304,10.053-13.751,10.053c-7.942,0-14.4-6.415-14.4-14.3
	c0-7.881,6.458-14.3,14.4-14.3c6.198,0,11.491,3.904,13.523,9.375h9.591C91.102,11.281,81.62,3.337,70.268,3.337
	c-13.058,0-23.641,10.505-23.641,23.478c0,12.96,10.583,23.476,23.641,23.476c11.594,0,21.229-8.289,23.246-19.222h-9.495V31.055z"
	/>
<path fill="#02003A" d="M25.065,33.518l19.003,18.457l6.946-6.152L38.638,33.57"/>
<rect x="116.895" y="0" fill="#0013DE" width="9.644" height="53.479"/>
</svg>
