<?xml version="1.0" encoding="UTF-8"?>
<svg id="Layer_1" xmlns="http://www.w3.org/2000/svg" version="1.1" xmlns:xlink="http://www.w3.org/1999/xlink" viewBox="0 0 152.26 157.79">
  <!-- Generator: Adobe Illustrator 30.5.1, SVG Export Plug-In . SVG Version: 2.1.4 Build 3)  -->
  <defs>
    <style>
      .st0 {
        fill: url(#linear-gradient2);
      }

      .st1 {
        fill: #11164d;
      }

      .st2 {
        fill: url(#linear-gradient1);
      }

      .st3 {
        fill: url(#linear-gradient4);
      }

      .st4 {
        fill: url(#linear-gradient3);
      }

      .st5 {
        display: none;
      }

      .st6 {
        opacity: .7;
      }

      .st7 {
        fill: url(#linear-gradient);
      }

      .st8 {
        fill: #040718;
      }

      .st9 {
        opacity: .7;
      }
    </style>
    <linearGradient id="linear-gradient" x1="-158.2" y1="-1079.88" x2="-158.2" y2="-1026.17" gradientTransform="translate(168 -957.6) scale(1 -1)" gradientUnits="userSpaceOnUse">
      <stop offset=".25" stop-color="#ecc575"/>
      <stop offset=".77" stop-color="#ecd69d"/>
    </linearGradient>
    <linearGradient id="linear-gradient1" x1="-27.65" y1="-1082.77" x2="-27.65" y2="-1026.17" gradientTransform="translate(168 -957.6) scale(1 -1)" gradientUnits="userSpaceOnUse">
      <stop offset=".25" stop-color="#ecc575"/>
      <stop offset=".77" stop-color="#ecd69d"/>
    </linearGradient>
    <linearGradient id="linear-gradient2" x1="-91.9" y1="-1089.78" x2="-91.9" y2="-1086.67" gradientTransform="translate(168 -957.6) scale(1 -1)" gradientUnits="userSpaceOnUse">
      <stop offset=".25" stop-color="#ecc575"/>
      <stop offset=".77" stop-color="#ecd69d"/>
    </linearGradient>
    <linearGradient id="linear-gradient3" x1="-94.11" y1="-1089.59" x2="-94.11" y2="-1086.54" gradientTransform="translate(168 -957.6) scale(1 -1)" gradientUnits="userSpaceOnUse">
      <stop offset=".25" stop-color="#ecc575"/>
      <stop offset=".77" stop-color="#ecd69d"/>
    </linearGradient>
    <linearGradient id="linear-gradient4" x1="73.78" y1="143.35" x2="73.78" y2="31.14" gradientTransform="translate(0 158.4) scale(1 -1)" gradientUnits="userSpaceOnUse">
      <stop offset=".25" stop-color="#ecc575"/>
      <stop offset=".77" stop-color="#ecd69d"/>
    </linearGradient>
  </defs>
  <g id="_x32_1_days">
    <g class="st6">
      <g>
        <path class="st8" d="M66.71,92.45c1.54,1.55,2.31,3.81,2.31,6.78,0,1.92-.38,3.59-1.13,5.03s-1.85,2.55-3.27,3.33c-1.43.78-3.13,1.17-5.11,1.17l-1.53-.03c-.98-.03-1.7-.05-2.16-.05-1.44,0-2.52.03-3.26.08v-.53c.63-.04,1.09-.11,1.38-.21.29-.11.49-.31.59-.6.1-.3.16-.78.16-1.45v-13.07c0-.67-.05-1.15-.16-1.45-.11-.3-.3-.5-.59-.6-.29-.11-.75-.17-1.38-.21v-.53c.61.05,1.46.08,2.55.08l2.23-.03c1.19-.03,1.99-.05,2.39-.05,3.1,0,5.43.77,6.97,2.33h0ZM57.86,90.78c-.27.12-.46.34-.57.66-.11.32-.16.79-.16,1.43v13.17c0,.63.05,1.11.16,1.42.11.32.29.54.57.66.27.12.69.19,1.25.19,1.86,0,3.32-.34,4.39-1.01,1.07-.68,1.82-1.67,2.25-2.97s.65-2.96.65-4.98-.24-3.67-.71-4.94c-.47-1.27-1.24-2.22-2.3-2.86-1.06-.63-2.5-.95-4.3-.95-.54,0-.95.06-1.22.18h-.01Z"/>
        <path class="st8" d="M86.14,108.25v.53c-.7-.05-1.64-.08-2.81-.08-1.51,0-2.63.03-3.37.08v-.53c.67-.04,1.15-.12,1.43-.25s.44-.38.44-.72c0-.3-.11-.71-.32-1.24l-1.6-4.32h-6.36l-1.08,2.79c-.35.95-.53,1.67-.53,2.16,0,.54.19.94.56,1.18.38.25.95.38,1.72.39v.53c-1-.05-2.01-.08-3.02-.08-.79,0-1.45.03-1.97.08v-.53c.88-.21,1.57-.97,2.08-2.29l6.18-15.96h.42l6.42,16.57c.42,1.09,1.02,1.65,1.81,1.69ZM79.7,101.19l-2.94-7.88-3,7.88h5.94Z"/>
        <path class="st8" d="M99.63,90.13v.53c-.35.09-.69.31-1.03.67-.33.36-.69.92-1.08,1.67l-4.13,8.2v4.79c0,.67.05,1.15.16,1.45.11.3.3.5.59.6.29.11.75.18,1.38.21v.53c-.8-.05-1.92-.08-3.34-.08-1.51,0-2.63.03-3.37.08v-.53c.63-.04,1.09-.11,1.38-.21.29-.11.49-.31.59-.6.11-.3.16-.78.16-1.45v-3.95l-5.34-9.88c-.31-.58-.59-.97-.83-1.17-.24-.2-.47-.3-.7-.3v-.55c.68.05,1.46.08,2.31.08,1.7,0,2.93-.03,3.68-.08v.55c-1.22,0-1.84.33-1.84,1,0,.26.09.57.26.92l4.37,8.41,3.37-6.69c.47-.93.71-1.69.71-2.27,0-.49-.19-.84-.58-1.05-.38-.21-.96-.32-1.74-.34v-.53c1,.05,2.01.08,3.03.08.79,0,1.45-.03,1.97-.08h.02Z"/>
      </g>
    </g>
    <g class="st6">
      <g>
        <path class="st8" d="M25.73,137.88c-1.55-.43-3-1.25-4.3-2.49-2.61-2.48-2.79-6.02-.28-8.67,2.58-2.72,6.12-2.72,8.73-.24,1.29,1.22,2.19,2.61,2.33,4.24l-2.18.07c-.04-1.04-.58-2.13-1.43-2.93-1.75-1.66-4.18-1.43-5.78.26-1.71,1.81-1.82,4.25-.08,5.91.77.73,1.59,1.24,2.41,1.44l1.9-2-1.73-1.65,1.29-1.36,3.24,3.09-4.11,4.34h0Z"/>
        <path class="st8" d="M40.26,143.54c-1.49,2.4-4.14,2.83-6.41,1.41-2.27-1.41-3.06-3.99-1.57-6.39l3.9-6.28,1.76,1.1-3.86,6.23c-.61.98-.88,2.61.81,3.66,1.69,1.06,3.03.1,3.64-.88l3.87-6.22,1.76,1.09-3.9,6.29h0Z"/>
        <path class="st8" d="M51.22,140.32l1.68.63.6,12.72-2.22-.84-.08-2.89-4.74-1.78-1.93,2.13-2.18-.82,8.86-9.16h.01ZM51.15,148.02v-5.09l-3.4,3.81,3.4,1.28Z"/>
        <path class="st8" d="M60.25,143.24l3.99.7c2.21.39,4.16,1.47,3.71,4.05-.29,1.66-1.46,2.71-3.21,2.66l2.16,5.63-2.47-.44-1.81-5.35-1.5-.26-.85,4.88-2.05-.36,2.02-11.52h0ZM63.04,148.76c1.15.2,2.52.34,2.78-1.15.24-1.36-1-1.75-2.05-1.94l-1.77-.31-.55,3.12s1.59.28,1.59.28Z"/>
        <path class="st8" d="M75.67,144.94l1.8-.02,5.15,11.64-2.38.03-1.12-2.67-5.06.05-1.03,2.69-2.33.03,4.96-11.75h0ZM78.39,152.15l-1.85-4.74-1.78,4.78,3.63-.04Z"/>
        <path class="st8" d="M85.12,144.51l2.69-.58,7.37,7.29h.04l-1.85-8.5,2.03-.44,2.48,11.43-2.58.56-7.54-7.53h-.03l1.9,8.77-2.03.44-2.48-11.43h0Z"/>
        <path class="st8" d="M102.09,141.69l-3.29,1.41-.74-1.73,8.5-3.63.74,1.74-3.29,1.4,3.84,9.03-1.91.81-3.84-9.03h0Z"/>
        <path class="st8" d="M109.06,136.34l6.51-4.18,1.01,1.59-4.76,3.05,1.54,2.42,4.51-2.89,1.01,1.59-4.51,2.9,1.71,2.67,5.01-3.21,1.01,1.58-6.77,4.34-6.29-9.85h.02Z"/>
        <path class="st8" d="M118.62,129.71l5.79-5.14,1.25,1.41-4.23,3.76,1.9,2.15,4.01-3.56,1.25,1.41-4.01,3.56,2.1,2.37,4.45-3.96,1.25,1.41-6,5.34-7.75-8.76h0Z"/>
      </g>
    </g>
    <path class="st7" d="M19.22,118.79c-8.76-11.76-13.96-26.34-13.96-42.11,0-2.74.16-5.45.47-8.11H.81c-.28,2.66-.44,5.37-.44,8.11,0,17.12,5.73,32.93,15.36,45.6l3.48-3.49h.01Z"/>
    <path class="st2" d="M129.78,121.7l3.46,3.47c11.02-13.12,17.67-30.04,17.67-48.49,0-2.74-.15-5.44-.44-8.11h-4.92c.31,2.66.47,5.37.47,8.11,0,17.1-6.1,32.8-16.24,45.02Z"/>
    <rect class="st0" x="48.07" y="116.01" width="56.05" height="3.11"/>
    <g>
      <path d="M63.19,76.78c0,1.57.12,2.7.37,3.4.25.7.71,1.17,1.39,1.42s1.76.41,3.24.49v1.24c-1.73-.12-4.36-.19-7.9-.19-3.75,0-6.71.06-8.89.19v-1.24c1.85-.08,3.19-.25,4.01-.49s1.4-.72,1.73-1.42c.33-.7.49-1.83.49-3.4v-27.91c0-1.44-.21-2.49-.62-3.15s-1.11-1.1-2.1-1.33c-.99-.23-2.47-.34-4.45-.34v-1.3c3-.45,5.48-1,7.44-1.64,1.95-.64,3.71-1.35,5.28-2.13v37.79h0Z"/>
      <path d="M93.94,71.9v4.88c0,1.57.12,2.7.37,3.4.25.7.71,1.17,1.39,1.42s1.76.41,3.24.49v1.24c-1.73-.12-4.36-.19-7.9-.19-3.75,0-6.71.06-8.89.19v-1.24c1.85-.08,3.19-.25,4.01-.49.82-.25,1.4-.72,1.73-1.42s.49-1.83.49-3.4v-4.88h-16.98v-1.23l21.55-31.92h.99v29.02h7.78v4.14h-7.78ZM88.38,67.77v-20.38l-13.64,20.38h13.64Z"/>
    </g>
    <g class="st9">
      <path class="st8" d="M.45,56.91l10.89,2.9-.49,1.85-8.77-2.33,1.35,2.55-1.56.74-1.86-4.02.45-1.68Z"/>
      <path class="st8" d="M5.09,44.6l6.64,2.93.66-1.5,1.57.69-.66,1.5,2.1.92-.77,1.75-2.1-.92-1.93,4.39-1.73-.76-4.65-7.01.87-1.98ZM9.81,51.89l1.15-2.61-4.17-1.84v.03s3.02,4.42,3.02,4.42Z"/>
      <path class="st8" d="M14.44,29.78c1.82-2.27,5-3.28,7.95-.91,3.12,2.5,2.22,6.23.69,8.15l-2.66,3.32-8.79-7.05,2.81-3.5ZM21.25,36.41c1.5-1.88,1.96-4.18-.17-5.89s-4.09-1.01-5.62.9l-1.16,1.44,5.96,4.78.99-1.23Z"/>
      <path class="st8" d="M25.53,18.41l11.02,5.41-1.74,1.49-2.47-1.28-3.71,3.18.9,2.62-1.71,1.46-3.6-11.75,1.32-1.13ZM28.02,25.46l2.66-2.28-4.3-2.36,1.64,4.63Z"/>
      <path class="st8" d="M32.42,13.2l4.71,2.37.03-5.29,2.03-1.25-.23,7.71,2.53,4.11-1.71,1.05-2.53-4.11-6.99-3.27,2.14-1.32Z"/>
      <path class="st8" d="M52.15,3.77l4.98,6.82.85-8.42,2.92-.8,2.97,10.87-1.84.5-2.47-9.03h-.03s-.83,9.94-.83,9.94l-1.35.37-5.77-8.12h-.03s2.47,9.03,2.47,9.03l-1.84.5-2.97-10.87,2.95-.81Z"/>
      <path class="st8" d="M72.5,11.84c-3.47.16-6.03-2.11-6.19-5.59-.15-3.24,1.82-6.06,5.75-6.25,3.56-.17,6.03,2.11,6.19,5.62.17,3.53-2.28,6.05-5.75,6.21ZM72.46,10.03c2.43-.11,3.79-2.07,3.68-4.36-.11-2.31-1.78-3.95-4.08-3.84-2.29.11-3.76,1.98-3.66,4.2.11,2.31,1.64,4.11,4.06,4Z"/>
      <path class="st8" d="M85.63.8l4.08,9.12h.03s1.31-8.26,1.31-8.26l1.98.31-1.76,11.13-2.51-.4-4.15-9.4h-.03s-1.35,8.53-1.35,8.53l-1.98-.31,1.76-11.13,2.62.42Z"/>
      <path class="st8" d="M105.28,5.89l-.6,1.71-5.15-1.81-.92,2.61,4.88,1.71-.6,1.71-4.88-1.71-1.01,2.88,5.42,1.9-.6,1.71-7.31-2.56,3.73-10.63,7.04,2.47Z"/>
      <path class="st8" d="M110.75,8.42l.29,5.27,4.61-2.6,2.1,1.14-6.8,3.64-2.31,4.23-1.76-.96,2.31-4.24-.63-7.69,2.21,1.2Z"/>
      <path class="st8" d="M129.52,21.62c1.07,1,2.02,2.8.55,4.39-.79.85-1.91,1.05-3.12.47l-.02.02c.94,1.12.88,2.63-.08,3.65-1.48,1.58-3.46,1.17-5.26-.51l-3.03-2.82,7.69-8.24,3.26,3.04ZM122.61,28.24c1.16,1.09,2.13,1.24,2.89.43.78-.84.53-1.69-.59-2.73l-1.48-1.38-2.22,2.38,1.4,1.3ZM125.99,24.6c.88.83,1.8.92,2.39.29.67-.72.45-1.56-.55-2.49l-1.27-1.18-1.96,2.1,1.39,1.29Z"/>
      <path class="st8" d="M138.82,32.14l-6.08,10.66-1.38-1.83,1.43-2.39-2.94-3.9-2.67.74-1.35-1.79,11.95-2.87,1.04,1.39ZM131.63,34.19l2.11,2.8,2.62-4.15-4.72,1.35Z"/>
      <path class="st8" d="M146.66,48.6l-1.73-.88c.33-.9.37-1.74-.07-2.62-1.04-2.06-3.33-2.65-5.34-1.65-2.08,1.04-3.07,3.22-2,5.34.48.95,1.35,1.44,2.36,1.65l-.31,2.01c-1.66-.25-2.94-1.37-3.68-2.85-1.56-3.1-.56-6.39,2.57-7.96,3.13-1.57,6.39-.58,8.01,2.63.72,1.44.78,2.83.18,4.33Z"/>
      <path class="st8" d="M150.13,54.05l-4.58,1.36.03.09,5.91,3.11.77,2.59-6.49-3.57-4.21,7.11-.8-2.7,3.92-6.26-.03-.11-5.31,1.58-.57-1.92,10.8-3.21.57,1.92Z"/>
    </g>
  </g>
  <g id="Layer_2" class="st5">
    <rect class="st4" x="46.33" y="116.1" width="55.12" height="3.06"/>
    <path class="st8" d="M77.64,77.54c0,1.58.12,2.72.37,3.43s.71,1.18,1.4,1.43c.68.25,1.77.41,3.26.5v1.25c-1.74-.12-4.39-.19-7.96-.19-3.77,0-6.76.06-8.96.19v-1.25c1.87-.08,3.21-.25,4.04-.5s1.41-.72,1.74-1.43c.33-.71.5-1.85.5-3.43v-28.16c0-1.45-.21-2.51-.62-3.18-.41-.66-1.12-1.11-2.11-1.34-1-.23-2.49-.34-4.48-.34v-1.31c3.03-.46,5.52-1.01,7.49-1.65,1.97-.64,3.74-1.36,5.32-2.15v38.13h.01Z"/>
    <g>
      <path class="st1" d="M58.44,90.48v.52c-.35.09-.69.31-1.02.67s-.69.91-1.07,1.66l-4.11,8.15v4.77c0,.66.05,1.15.16,1.44.11.3.3.5.59.6.29.11.75.18,1.37.21v.52c-.8-.05-1.91-.08-3.32-.08-1.5,0-2.62.02-3.35.08v-.53c.63-.04,1.09-.11,1.38-.21s.48-.3.59-.6c.1-.29.16-.78.16-1.44v-3.93l-5.31-9.83c-.31-.58-.59-.97-.82-1.17s-.47-.3-.69-.3v-.55c.68.05,1.45.08,2.3.08,1.69,0,2.91-.03,3.66-.08v.55c-1.22,0-1.83.33-1.83,1,0,.26.09.57.26.92l4.34,8.36,3.35-6.66c.47-.93.71-1.68.71-2.25,0-.49-.19-.84-.58-1.05-.38-.21-.96-.33-1.73-.34v-.53c.99.05,2,.08,3.01.08.79,0,1.44-.03,1.96-.08v.02Z"/>
      <path class="st1" d="M72.7,109.04c-1.19-.05-3.18-.08-5.99-.08-3.35,0-5.88.02-7.59.08v-.52c.63-.04,1.09-.11,1.37-.21.29-.1.48-.3.59-.6.1-.29.16-.78.16-1.44v-13c0-.67-.05-1.15-.16-1.45-.1-.3-.3-.5-.59-.6-.29-.11-.74-.17-1.37-.21v-.53c1.71.05,4.24.08,7.59.08,2.56,0,4.39-.03,5.47-.08-.12,1.16-.18,2.19-.18,3.09,0,.68.03,1.22.08,1.63h-.6c-.12-1.14-.28-1.98-.47-2.53-.19-.55-.51-.95-.97-1.2-.45-.25-1.14-.38-2.07-.38h-2.17c-.63,0-1.09.05-1.38.15s-.48.29-.59.59c-.11.3-.16.78-.16,1.44v6.19h1.73c.61,0,1.08-.14,1.41-.43s.55-.63.67-1.02c.11-.4.2-.89.27-1.48l.08-.52h.6c-.05.74-.08,1.55-.08,2.46v1.26c0,.89.05,2.13.16,3.72h-.6c-.02-.12-.07-.55-.16-1.27-.09-.72-.33-1.27-.72-1.64s-.94-.55-1.63-.55h-1.73v6.29c0,.66.05,1.15.16,1.44.11.3.3.49.59.59.29.09.74.14,1.37.14h1.91c1.08,0,1.91-.14,2.47-.43.57-.29.98-.75,1.24-1.39.26-.63.45-1.58.57-2.82h.6c-.05.47-.08,1.1-.08,1.89,0,1,.06,2.12.19,3.36v-.02Z"/>
      <path class="st1" d="M90.1,108.52v.52c-.7-.05-1.63-.08-2.8-.08-1.5,0-2.62.02-3.35.08v-.52c.67-.04,1.14-.12,1.43-.25s.43-.37.43-.72c0-.3-.1-.71-.31-1.24l-1.6-4.3h-6.33l-1.07,2.78c-.35.95-.52,1.66-.52,2.15,0,.54.19.94.56,1.18.37.24.94.37,1.71.39v.52c-1-.05-2-.08-3.01-.08-.78,0-1.44.02-1.96.08v-.52c.87-.21,1.56-.97,2.07-2.28l6.15-15.89h.42l6.38,16.49c.43,1.08,1.03,1.65,1.81,1.68h0ZM83.68,101.49l-2.93-7.84-2.98,7.84s5.91,0,5.91,0Z"/>
      <path class="st1" d="M106.19,107.73c-.4.59-.8,1.02-1.2,1.28-.4.26-.93.4-1.6.4-.71,0-1.3-.21-1.77-.63-.46-.42-.81-1.15-1.03-2.2l-.58-2.62c-.21-.91-.41-1.61-.59-2.1-.18-.49-.46-.88-.82-1.18-.37-.3-.88-.45-1.54-.45h-2.49v6.03c0,.66.05,1.15.16,1.44.1.3.3.5.59.6.29.11.75.18,1.37.21v.52c-.8-.05-1.91-.08-3.32-.08-1.5,0-2.62.02-3.35.08v-.53c.63-.04,1.09-.11,1.37-.21.29-.1.48-.3.59-.6.1-.29.16-.78.16-1.44v-13c0-.67-.05-1.15-.16-1.45-.11-.3-.3-.5-.59-.6-.29-.11-.74-.17-1.37-.21v-.53c.73.05,1.8.08,3.19.08l2.83-.03c.33-.01.71-.02,1.13-.02,2.02,0,3.58.42,4.67,1.27s1.63,1.94,1.63,3.29c0,.68-.16,1.37-.48,2.06-.33.69-.86,1.31-1.62,1.86s-1.75.92-2.97,1.11l.31.05c1.15.19,1.99.54,2.51,1.05.52.51.91,1.31,1.15,2.42l.65,2.67c.18.8.36,1.36.55,1.67s.46.47.78.47c.3,0,.55-.08.75-.24.2-.16.43-.41.7-.76l.39.29v.03ZM95.29,91.18c-.27.13-.46.35-.56.66-.1.31-.16.79-.16,1.42v6.45h1.75c1.73,0,2.91-.39,3.56-1.15.64-.77.97-1.83.97-3.2s-.34-2.52-1.02-3.25c-.68-.74-1.79-1.1-3.32-1.1-.54,0-.95.06-1.22.18h0Z"/>
    </g>
    <path class="st3" d="M73.79,1.49L5.35,18.26v63.9c0,15.36,6.73,29.91,20,43.26,11.01,11.08,26.49,21.48,47.31,31.81l1.12.56,1.12-.56c20.82-10.33,36.3-20.73,47.31-31.81,13.27-13.35,20-27.91,20-43.26V18.26L73.79,1.49ZM137.17,82.16c0,14.18-6.06,27.16-18.53,39.71-10.42,10.48-25.1,20.4-44.86,30.29-19.75-9.89-34.43-19.8-44.86-30.29-12.47-12.54-18.53-25.53-18.53-39.71V22.22l61-14.94v15.59h4.64V7.24l61.14,14.98v59.94Z"/>
  </g>
</svg>