<?xml version="1.0" encoding="utf-8"?>
<!-- Generator: Adobe Illustrator 27.5.0, SVG Export Plug-In . SVG Version: 6.00 Build 0)  -->
<svg version="1.1" xmlns="http://www.w3.org/2000/svg" xmlns:xlink="http://www.w3.org/1999/xlink" x="0px" y="0px"
	 viewBox="0 0 320 320" style="enable-background:new 0 0 320 320;" xml:space="preserve">
<style type="text/css">
	.st0{fill:#FFFFFF;}
	.st1{fill:#999999;}
	.st2{fill:#C7942C;}
	.st3{fill:none;stroke:#000000;stroke-width:3;stroke-linecap:round;stroke-linejoin:round;stroke-miterlimit:10;}
	.st4{fill-rule:evenodd;clip-rule:evenodd;fill:none;}
</style>
<g id="white">
</g>
<g id="gray">
</g>
<g id="gold">
</g>
<g id="black">
	<g>
		<g>
			<g>
				<path d="M317.21,157.07l-12.79-9.7l10.91-11.77c0.79-0.85,1.13-2,0.93-3.14c-0.2-1.14-0.91-2.1-1.94-2.63l-14.29-7.33
					l8.71-13.49c0.63-0.98,0.76-2.16,0.37-3.26c-0.4-1.09-1.26-1.91-2.37-2.26l-15.34-4.74l6.23-14.8c0.45-1.07,0.37-2.26-0.21-3.27
					c-0.58-1-1.58-1.66-2.73-1.81l-15.93-2.01l3.56-15.65c0.25-1.1-0.01-2.23-0.71-3.11c-0.7-0.88-1.75-1.39-2.88-1.39l-16.22,0.79
					l0.79-16.04c0.05-1.02-0.31-1.98-1.01-2.72c-0.88-0.93-2.23-1.34-3.48-1.05l-15.65,3.56l-2-15.93
					c-0.23-1.84-1.81-3.22-3.66-3.22c-0.49,0-0.97,0.1-1.43,0.29l-14.79,6.23l-4.74-15.34c-0.48-1.55-1.89-2.6-3.52-2.6
					c-0.71,0-1.39,0.2-1.99,0.59l-13.49,8.7l-7.33-14.28c-0.63-1.24-1.89-2-3.28-2c-0.93,0-1.82,0.35-2.5,0.98l-11.78,10.91
					l-9.7-12.79c-0.7-0.93-1.77-1.46-2.93-1.46c-1.16,0-2.23,0.53-2.93,1.46l-9.7,12.79L135.59,4.67c-0.68-0.63-1.57-0.98-2.5-0.98
					c-1.39,0-2.65,0.77-3.28,2l-7.33,14.28l-13.49-8.7c-0.6-0.39-1.29-0.59-1.99-0.59c-1.63,0-3.04,1.04-3.52,2.6l-4.74,15.34
					l-14.8-6.22c-0.46-0.19-0.94-0.29-1.43-0.29c-1.85,0-3.42,1.39-3.65,3.22l-2.01,15.93L61.2,37.68c-1.25-0.28-2.6,0.12-3.49,1.05
					c-0.7,0.74-1.06,1.7-1.01,2.72l0.79,16.03L41.46,56.7l-0.18,0c-1.12,0-2.17,0.51-2.88,1.39c-0.7,0.88-0.96,2.01-0.71,3.11
					l3.56,15.65l-15.93,2.01c-1.15,0.14-2.15,0.8-2.73,1.81c-0.58,1.01-0.66,2.2-0.2,3.27l6.23,14.8l-15.34,4.74
					c-1.11,0.34-1.98,1.17-2.37,2.26c-0.4,1.09-0.26,2.28,0.37,3.25l8.7,13.49l-14.28,7.33c-1.03,0.53-1.74,1.49-1.94,2.63
					c-0.2,1.15,0.14,2.29,0.93,3.14l10.91,11.77l-12.79,9.7c-0.93,0.7-1.46,1.77-1.46,2.93c0,1.16,0.53,2.23,1.46,2.93l12.79,9.7
					L4.67,184.41c-0.79,0.86-1.13,2-0.92,3.15c0.2,1.14,0.91,2.1,1.94,2.63l14.28,7.33l-8.7,13.5c-0.63,0.97-0.77,2.16-0.37,3.25
					c0.4,1.09,1.26,1.92,2.38,2.26l15.34,4.74l-6.23,14.79c-0.45,1.07-0.38,2.26,0.2,3.27c0.58,1.01,1.57,1.67,2.73,1.81l15.93,2.01
					l-3.56,15.65c-0.25,1.1,0.01,2.24,0.71,3.12c0.7,0.88,1.75,1.39,2.87,1.39l16.22-0.79l-0.79,16.03
					c-0.05,1.02,0.31,1.98,1.01,2.72c0.88,0.93,2.22,1.34,3.49,1.05l15.65-3.56l2.01,15.93c0.23,1.84,1.8,3.22,3.65,3.22
					c0.49,0,0.97-0.1,1.43-0.29l14.79-6.23l4.74,15.34c0.48,1.55,1.9,2.6,3.52,2.6c0.71,0,1.39-0.2,1.99-0.59l13.49-8.7l7.33,14.28
					c0.63,1.23,1.89,2,3.28,2c0.93,0,1.82-0.35,2.5-0.99l11.77-10.91l9.7,12.79c0.7,0.93,1.77,1.46,2.93,1.46
					c1.16,0,2.23-0.53,2.93-1.46l9.7-12.79l11.77,10.91c0.68,0.63,1.57,0.99,2.5,0.99c1.39,0,2.65-0.77,3.28-2l7.33-14.28l13.49,8.7
					c0.6,0.38,1.29,0.59,1.99,0.59c1.63,0,3.04-1.04,3.52-2.6l4.74-15.34l14.8,6.23c0.46,0.19,0.94,0.29,1.43,0.29
					c1.85,0,3.42-1.38,3.66-3.22l2-15.93l15.65,3.56c1.25,0.29,2.6-0.12,3.48-1.05c0.7-0.74,1.06-1.7,1.01-2.72l-0.79-16.03
					l16.03,0.79l0.19,0.01c1.12,0,2.17-0.51,2.88-1.38c0.7-0.88,0.96-2.02,0.71-3.12l-3.56-15.65l15.93-2.01
					c1.15-0.14,2.15-0.8,2.73-1.81c0.58-1,0.66-2.2,0.21-3.27l-6.23-14.79l15.34-4.74c1.11-0.35,1.97-1.17,2.37-2.26
					c0.39-1.09,0.27-2.28-0.37-3.25l-8.71-13.5l14.29-7.33c1.03-0.53,1.74-1.49,1.94-2.63c0.2-1.15-0.13-2.29-0.93-3.15
					l-10.91-11.77l12.79-9.7c0.93-0.7,1.46-1.77,1.46-2.93C318.67,158.84,318.13,157.77,317.21,157.07z M315.67,160.91l-15.03,11.4
					l12.82,13.83c0.25,0.27,0.35,0.62,0.29,0.98c-0.06,0.35-0.28,0.65-0.61,0.81l-16.78,8.62l10.22,15.85
					c0.2,0.3,0.24,0.67,0.12,1.01c-0.13,0.34-0.4,0.59-0.74,0.7l-18.02,5.57l7.32,17.38c0.14,0.33,0.12,0.7-0.06,1.01
					c-0.18,0.31-0.49,0.52-0.84,0.56l-18.71,2.36l4.19,18.38c0.11,0.47-0.09,0.81-0.22,0.97c-0.22,0.27-0.54,0.43-0.94,0.43
					c0,0-0.01,0-0.01,0l-18.84-0.93l0.93,18.83c0.02,0.32-0.09,0.62-0.31,0.84c-0.27,0.29-0.69,0.42-1.08,0.33l-18.39-4.19
					l-2.36,18.71c-0.11,0.85-0.96,1.17-1.57,0.91l-17.38-7.31l-5.57,18.02c-0.26,0.85-1.16,0.98-1.71,0.62l-15.85-10.22l-8.62,16.78
					c-0.23,0.46-0.68,0.62-1.02,0.62c-0.2,0-0.5-0.05-0.77-0.3l-13.83-12.82l-11.4,15.03c-0.44,0.58-1.38,0.58-1.82,0l-11.4-15.03
					l-13.83,12.82c-0.27,0.25-0.57,0.3-0.77,0.3c-0.34,0-0.78-0.16-1.02-0.62l-8.62-16.78l-15.85,10.22
					c-0.55,0.36-1.45,0.22-1.71-0.62l-5.57-18.02l-17.38,7.31c-0.61,0.26-1.47-0.06-1.57-0.91l-2.36-18.71l-18.39,4.19
					c-0.4,0.09-0.81-0.04-1.08-0.33c-0.22-0.23-0.33-0.53-0.31-0.84l0.93-18.83l-18.9,0.93c-0.35,0-0.67-0.15-0.89-0.43
					c-0.13-0.16-0.33-0.5-0.22-0.97l4.18-18.39l-18.71-2.36c-0.36-0.04-0.67-0.25-0.85-0.56c-0.18-0.31-0.2-0.68-0.06-1.01
					l7.31-17.38l-18.02-5.57c-0.34-0.11-0.61-0.36-0.74-0.7c-0.12-0.33-0.08-0.7,0.12-1l10.22-15.85l-16.78-8.62
					c-0.32-0.16-0.54-0.46-0.6-0.81c-0.06-0.36,0.04-0.71,0.29-0.98l12.82-13.83l-15.03-11.4c-0.29-0.22-0.45-0.55-0.45-0.91
					c0-0.36,0.16-0.69,0.45-0.91l15.03-11.4L6.54,133.86c-0.25-0.26-0.35-0.62-0.29-0.97c0.06-0.35,0.28-0.65,0.6-0.81l16.78-8.61
					L13.4,107.61c-0.2-0.3-0.24-0.67-0.11-1c0.12-0.34,0.39-0.59,0.74-0.7l18.02-5.57l-7.31-17.38c-0.14-0.33-0.12-0.7,0.06-1.01
					c0.18-0.31,0.49-0.52,0.85-0.56l18.71-2.36l-4.18-18.39c-0.11-0.47,0.09-0.8,0.22-0.97c0.22-0.27,0.54-0.43,0.94-0.43
					c0,0,0,0,0,0l18.84,0.93l-0.93-18.84c-0.01-0.31,0.1-0.61,0.31-0.84c0.28-0.29,0.68-0.42,1.08-0.33l18.39,4.18l2.36-18.71
					c0.11-0.85,0.97-1.16,1.57-0.91l17.38,7.31l5.57-18.02c0.26-0.85,1.16-0.98,1.71-0.62l15.85,10.22l8.62-16.78
					c0.23-0.46,0.68-0.62,1.02-0.62c0.2,0,0.5,0.05,0.77,0.31l13.83,12.82l11.4-15.03c0.44-0.58,1.38-0.58,1.82,0l11.4,15.03
					l13.83-12.82c0.28-0.25,0.57-0.3,0.77-0.3c0.34,0,0.78,0.16,1.02,0.62l8.62,16.78l15.85-10.22c0.55-0.36,1.45-0.22,1.71,0.62
					l5.57,18.02l17.38-7.31c0.61-0.26,1.47,0.06,1.57,0.91l2.36,18.71l18.39-4.18c0.39-0.09,0.8,0.04,1.08,0.33
					c0.22,0.23,0.33,0.53,0.31,0.84l-0.93,18.84l18.9-0.93c0.35,0,0.67,0.16,0.89,0.43c0.13,0.16,0.33,0.5,0.22,0.96l-4.19,18.39
					l18.71,2.36c0.36,0.04,0.66,0.25,0.84,0.56c0.18,0.31,0.21,0.68,0.06,1.01l-7.32,17.38l18.02,5.57c0.34,0.11,0.61,0.36,0.74,0.7
					c0.12,0.34,0.08,0.71-0.11,1.01l-10.23,15.85l16.78,8.61c0.32,0.16,0.54,0.46,0.61,0.82c0.06,0.36-0.04,0.71-0.29,0.97
					l-12.82,13.83l15.03,11.4c0.29,0.22,0.45,0.55,0.45,0.91C316.12,160.36,315.96,160.69,315.67,160.91z"/>
				<path d="M160,318.98c-1.26,0-2.42-0.58-3.18-1.58l-9.49-12.52l-11.52,10.68c-0.74,0.69-1.7,1.07-2.71,1.07
					c-1.51,0-2.87-0.83-3.56-2.17l-7.18-13.97l-13.2,8.51c-0.65,0.42-1.4,0.64-2.16,0.64c-1.76,0-3.3-1.13-3.82-2.82l-4.64-15.01
					l-14.48,6.09c-0.5,0.21-1.02,0.32-1.55,0.32c-2.01,0-3.71-1.5-3.96-3.5l-1.96-15.58l-15.31,3.49c-1.34,0.31-2.83-0.14-3.79-1.14
					c-0.76-0.8-1.15-1.85-1.09-2.95l0.77-15.68l-15.88,0.77l0,0c-1.24,0-2.37-0.55-3.13-1.5c-0.76-0.95-1.04-2.18-0.77-3.38
					l3.49-15.31l-15.58-1.96c-1.25-0.15-2.33-0.87-2.96-1.97c-0.63-1.09-0.71-2.39-0.22-3.55l6.09-14.47l-15.01-4.64
					c-1.21-0.38-2.15-1.27-2.58-2.45c-0.43-1.18-0.28-2.47,0.4-3.53l8.51-13.21l-13.97-7.17c-1.12-0.57-1.89-1.62-2.11-2.86
					c-0.22-1.24,0.15-2.49,1-3.42l10.68-11.52L2.6,163.18c-1-0.76-1.58-1.92-1.58-3.18c0-1.26,0.58-2.42,1.58-3.19l12.52-9.49
					L4.44,135.8c-0.86-0.92-1.22-2.17-1-3.41c0.22-1.24,0.99-2.28,2.11-2.86l13.97-7.17L11,109.16c-0.69-1.06-0.83-2.35-0.4-3.53
					c0.43-1.19,1.37-2.08,2.58-2.45l15-4.64L22.1,84.06c-0.49-1.17-0.41-2.46,0.22-3.55c0.63-1.09,1.71-1.81,2.96-1.96l15.58-1.96
					l-3.49-15.31c-0.27-1.19,0.01-2.43,0.77-3.38c0.76-0.96,1.9-1.51,3.12-1.51l0.19,0l15.69,0.78l-0.77-15.69
					c-0.05-1.1,0.34-2.15,1.1-2.95c0.95-1,2.44-1.45,3.78-1.14l15.31,3.49l1.96-15.58c0.25-1.99,1.95-3.5,3.96-3.5
					c0.53,0,1.05,0.11,1.55,0.31l14.48,6.09l4.64-15c0.52-1.69,2.06-2.82,3.82-2.82c0.77,0,1.52,0.22,2.17,0.64l13.2,8.51
					l7.18-13.97c0.68-1.34,2.05-2.17,3.56-2.17c1.01,0,1.97,0.38,2.71,1.07l11.52,10.67l9.49-12.51c0.76-1,1.92-1.58,3.18-1.58
					c1.26,0,2.42,0.58,3.19,1.58l9.49,12.51L184.2,4.44c0.74-0.69,1.71-1.07,2.71-1.07c1.51,0,2.87,0.83,3.56,2.17l7.17,13.97
					l13.2-8.51c0.65-0.42,1.39-0.64,2.16-0.64c1.76,0,3.3,1.13,3.82,2.82l4.64,15l14.47-6.09c0.5-0.21,1.02-0.31,1.55-0.31
					c2.01,0,3.71,1.5,3.97,3.5l1.96,15.59l15.31-3.49c1.35-0.3,2.83,0.15,3.78,1.14c0.76,0.79,1.15,1.84,1.1,2.95l-0.77,15.69
					l15.87-0.78l0,0c1.24,0,2.38,0.55,3.13,1.5c0.76,0.96,1.04,2.19,0.78,3.38l-3.49,15.32l15.58,1.96
					c1.25,0.16,2.33,0.87,2.96,1.96c0.63,1.1,0.71,2.39,0.22,3.55l-6.09,14.48l15,4.64c1.2,0.37,2.14,1.26,2.57,2.45
					c0.43,1.19,0.29,2.48-0.39,3.54l-8.52,13.2l13.98,7.17c1.12,0.58,1.89,1.62,2.11,2.86c0.22,1.24-0.15,2.49-1.01,3.41
					l-10.68,11.52l12.52,9.49c1.01,0.76,1.58,1.92,1.58,3.18c0,1.26-0.58,2.42-1.58,3.18l-12.52,9.49l10.68,11.52
					c0.86,0.93,1.23,2.17,1.01,3.42c-0.21,1.24-0.98,2.28-2.11,2.86l-13.98,7.17l8.52,13.21c0.68,1.06,0.83,2.34,0.39,3.53
					c-0.43,1.18-1.37,2.08-2.57,2.45l-15,4.64l6.09,14.47c0.49,1.16,0.41,2.46-0.22,3.55c-0.63,1.1-1.71,1.81-2.96,1.97l-15.58,1.96
					l3.49,15.31c0.27,1.19-0.01,2.43-0.78,3.38c-0.76,0.96-1.9,1.5-3.12,1.5l-0.19,0l-15.69-0.77l0.77,15.68
					c0.05,1.11-0.34,2.16-1.1,2.95c-0.96,1-2.45,1.44-3.78,1.14l-15.31-3.49l-1.96,15.58c-0.25,2-1.96,3.5-3.97,3.5
					c-0.53,0-1.05-0.11-1.55-0.32l-14.47-6.09l-4.64,15.01c-0.52,1.69-2.06,2.82-3.82,2.82c-0.77,0-1.52-0.22-2.16-0.64l-13.2-8.51
					l-7.17,13.97c-0.69,1.34-2.05,2.17-3.56,2.17c-1.01,0-1.97-0.38-2.72-1.07l-11.52-10.68l-9.49,12.52
					C162.42,318.41,161.26,318.98,160,318.98z M147.41,303.95l9.91,13.07c0.64,0.85,1.62,1.33,2.68,1.33c1.06,0,2.04-0.48,2.68-1.33
					l9.91-13.07l12.03,11.15c0.62,0.58,1.44,0.9,2.29,0.9c1.27,0,2.42-0.7,3-1.83l7.49-14.59l13.78,8.89
					c0.55,0.35,1.18,0.54,1.82,0.54c1.48,0,2.78-0.96,3.22-2.38l4.84-15.67l15.12,6.36c0.42,0.18,0.86,0.27,1.3,0.27
					c1.69,0,3.13-1.27,3.34-2.95l2.05-16.27l15.99,3.64c1.14,0.26,2.39-0.12,3.19-0.96c0.64-0.67,0.97-1.56,0.92-2.49l-0.81-16.38
					l16.56,0.81c1.02,0,1.98-0.46,2.62-1.26c0.64-0.8,0.88-1.85,0.65-2.85l-3.64-15.99l0.35-0.04l15.93-2
					c1.05-0.13,1.96-0.73,2.5-1.66c0.53-0.92,0.6-2.01,0.19-2.99l-6.36-15.12l0.33-0.1l15.34-4.74c1.02-0.32,1.81-1.07,2.17-2.07
					c0.36-1,0.24-2.08-0.33-2.97l-8.89-13.79l14.6-7.49c0.95-0.49,1.59-1.36,1.77-2.41c0.19-1.05-0.12-2.1-0.85-2.88l-11.15-12.03
					l0.28-0.21l12.79-9.7c0.85-0.64,1.33-1.62,1.33-2.68c0-1.06-0.49-2.04-1.33-2.68l-13.07-9.91l11.15-12.03
					c0.72-0.78,1.03-1.83,0.85-2.88c-0.18-1.04-0.83-1.92-1.78-2.41l-14.59-7.49l0.19-0.29l8.71-13.49c0.58-0.89,0.7-1.98,0.33-2.98
					c-0.37-1-1.15-1.75-2.17-2.06l-15.67-4.84l6.36-15.12c0.41-0.98,0.34-2.07-0.19-2.99c-0.53-0.92-1.45-1.52-2.5-1.65l-16.27-2.05
					l0.08-0.34l3.56-15.65c0.23-1-0.01-2.04-0.65-2.85c-0.64-0.81-1.6-1.27-2.63-1.27l-16.55,0.81l0.81-16.38
					c0.04-0.93-0.29-1.81-0.92-2.48c-0.8-0.84-2.05-1.22-3.19-0.96l-15.99,3.64l-0.04-0.34l-2.01-15.93
					c-0.21-1.68-1.65-2.95-3.34-2.95c-0.45,0-0.89,0.09-1.31,0.26l-15.12,6.36l-0.1-0.33l-4.74-15.34
					c-0.44-1.42-1.74-2.38-3.22-2.38c-0.65,0-1.28,0.19-1.82,0.54l-13.78,8.89l-0.16-0.31l-7.33-14.28c-0.58-1.13-1.73-1.83-3-1.83
					c-0.85,0-1.66,0.32-2.29,0.9l-12.03,11.15l-9.91-13.07c-0.64-0.85-1.62-1.33-2.68-1.33c-1.06,0-2.04,0.49-2.68,1.33l-9.91,13.07
					L135.38,4.9c-0.62-0.58-1.44-0.9-2.29-0.9c-1.27,0-2.42,0.7-3,1.83l-7.49,14.59l-13.78-8.89c-0.55-0.35-1.18-0.54-1.82-0.54
					c-1.49,0-2.78,0.95-3.22,2.38l-4.84,15.67l-15.12-6.36c-0.42-0.18-0.86-0.26-1.31-0.26c-1.69,0-3.13,1.27-3.34,2.95l-2.05,16.27
					l-0.34-0.08l-15.65-3.56c-1.13-0.26-2.39,0.12-3.19,0.96c-0.64,0.67-0.97,1.56-0.92,2.49l0.81,16.38l-16.56-0.82
					c-1.02,0-1.98,0.46-2.62,1.27c-0.64,0.8-0.88,1.84-0.65,2.85l3.64,15.99l-16.27,2.05c-1.05,0.13-1.96,0.73-2.5,1.66
					c-0.53,0.92-0.6,2.01-0.19,2.99l6.36,15.12l-15.67,4.84c-1.02,0.31-1.81,1.07-2.17,2.06c-0.36,1-0.24,2.08,0.34,2.98l8.89,13.79
					l-14.59,7.49c-0.95,0.49-1.59,1.37-1.78,2.41c-0.18,1.05,0.12,2.09,0.85,2.88l11.15,12.03l-13.07,9.91
					c-0.85,0.64-1.33,1.62-1.33,2.68c0,1.06,0.49,2.04,1.33,2.68l13.07,9.91L4.9,184.62c-0.72,0.78-1.03,1.83-0.85,2.88
					c0.18,1.05,0.83,1.92,1.78,2.41l14.59,7.49l-0.19,0.29l-8.7,13.5c-0.58,0.89-0.7,1.98-0.34,2.97c0.36,1,1.15,1.75,2.17,2.07
					l15.67,4.84l-6.36,15.12c-0.41,0.98-0.35,2.07,0.19,2.99c0.53,0.92,1.44,1.53,2.49,1.66l16.27,2.05l-3.64,15.99
					c-0.23,1.01,0.01,2.05,0.65,2.85c0.64,0.81,1.6,1.27,2.63,1.27l16.55-0.81l-0.81,16.38c-0.05,0.93,0.28,1.81,0.92,2.49
					c0.8,0.84,2.05,1.22,3.19,0.96l15.99-3.64l2.05,16.27c0.21,1.68,1.65,2.95,3.34,2.95c0.45,0,0.89-0.09,1.31-0.27l15.12-6.36
					l4.84,15.67c0.44,1.42,1.73,2.38,3.22,2.38c0.65,0,1.28-0.19,1.82-0.54l13.78-8.89l7.49,14.59c0.58,1.13,1.73,1.83,3,1.83
					c0.85,0,1.66-0.32,2.28-0.9L147.41,303.95z M160,316.42c-0.47,0-0.89-0.2-1.16-0.56l-11.19-14.75l-13.58,12.59
					c-0.35,0.32-0.73,0.39-0.99,0.39c-0.43,0-1-0.21-1.3-0.79l-8.46-16.47l-15.56,10.04c-0.24,0.15-0.52,0.23-0.81,0.23
					c-0.65,0-1.17-0.39-1.37-1.03l-5.47-17.69l-17.06,7.18c-0.18,0.07-0.37,0.11-0.56,0.11c-0.62,0-1.33-0.4-1.44-1.27l-2.31-18.37
					l-18.05,4.11c-0.49,0.11-1.03-0.05-1.38-0.42c-0.28-0.29-0.42-0.67-0.4-1.07l0.91-18.49l-18.55,0.91c0,0,0,0,0,0
					c-0.46,0-0.87-0.2-1.15-0.55c-0.16-0.2-0.42-0.63-0.28-1.23l4.11-18.05l-18.37-2.31c-0.46-0.06-0.85-0.32-1.08-0.72
					c-0.23-0.4-0.26-0.87-0.08-1.29l7.18-17.06l-17.69-5.47c-0.44-0.14-0.78-0.47-0.94-0.9c-0.16-0.42-0.1-0.89,0.15-1.28
					l10.03-15.56l-16.47-8.46c-0.41-0.21-0.69-0.59-0.77-1.04c-0.08-0.46,0.05-0.91,0.37-1.25l12.58-13.57L4.14,161.16
					c-0.37-0.28-0.58-0.7-0.58-1.16s0.21-0.88,0.58-1.16l14.75-11.19L6.3,134.08c-0.31-0.33-0.45-0.79-0.37-1.24
					c0.08-0.46,0.36-0.83,0.77-1.04l16.47-8.46l-10.04-15.56c-0.25-0.38-0.3-0.85-0.14-1.28c0.16-0.43,0.5-0.76,0.94-0.89
					l17.68-5.47l-7.18-17.06c-0.18-0.42-0.15-0.89,0.08-1.29c0.23-0.4,0.62-0.66,1.08-0.72l18.37-2.31L39.86,60.7
					c-0.14-0.59,0.12-1.03,0.28-1.23c0.28-0.36,0.7-0.55,1.19-0.55l18.51,0.91l-0.91-18.49c-0.02-0.4,0.12-0.79,0.4-1.07
					c0.35-0.37,0.89-0.52,1.38-0.42l18.05,4.11l2.31-18.37c0.14-1.14,1.28-1.46,2.01-1.16l17.06,7.18l5.46-17.68
					c0.2-0.63,0.72-1.03,1.37-1.03c0.29,0,0.58,0.08,0.81,0.24l15.56,10.04l8.46-16.47c0.3-0.58,0.87-0.79,1.3-0.79
					c0.26,0,0.64,0.07,0.99,0.39l13.58,12.58l11.19-14.75c0.53-0.7,1.79-0.7,2.32,0l11.19,14.75L185.92,6.3
					c0.28-0.25,0.62-0.39,0.99-0.39c0.43,0,1,0.21,1.3,0.79l8.46,16.47l15.56-10.04c0.23-0.15,0.52-0.24,0.81-0.24
					c0.65,0,1.17,0.39,1.37,1.03l5.47,17.68l17.06-7.18c0.72-0.31,1.87,0.01,2.01,1.16l2.31,18.37l18.05-4.11
					c0.48-0.12,1.03,0.05,1.38,0.42c0.28,0.28,0.42,0.67,0.4,1.07l-0.91,18.49l18.55-0.91l0,0c0.46,0,0.87,0.2,1.15,0.55
					c0.13,0.16,0.42,0.61,0.28,1.23l-4.11,18.05l18.37,2.31c0.46,0.06,0.85,0.32,1.08,0.71c0.23,0.4,0.26,0.87,0.08,1.29
					l-7.18,17.06l17.69,5.47c0.44,0.14,0.78,0.46,0.94,0.89c0.15,0.44,0.1,0.9-0.14,1.29l-10.04,15.56l16.46,8.46
					c0.41,0.21,0.69,0.58,0.77,1.04c0.08,0.45-0.05,0.91-0.37,1.24l-12.58,13.58l14.75,11.19c0.37,0.28,0.58,0.7,0.58,1.16
					c0,0.46-0.21,0.88-0.57,1.16l-14.75,11.19l12.58,13.57c0.31,0.34,0.45,0.8,0.37,1.25c-0.08,0.46-0.37,0.83-0.77,1.04
					l-16.46,8.46l10.04,15.56c0.25,0.38,0.3,0.85,0.15,1.28c-0.16,0.43-0.5,0.76-0.94,0.9l-17.69,5.47l7.18,17.06
					c0.18,0.42,0.15,0.89-0.08,1.29c-0.23,0.4-0.62,0.66-1.08,0.72l-18.37,2.31l4.11,18.05c0.13,0.6-0.12,1.03-0.28,1.23
					c-0.29,0.36-0.7,0.55-1.19,0.55l-18.51-0.91l0.91,18.49c0.02,0.41-0.12,0.79-0.4,1.08c-0.35,0.37-0.89,0.54-1.38,0.41
					l-18.04-4.11l-2.31,18.37c-0.14,1.16-1.28,1.47-2.01,1.16l-17.06-7.18l-5.47,17.68c-0.2,0.63-0.72,1.03-1.37,1.03
					c-0.29,0-0.57-0.08-0.81-0.23l-15.56-10.04l-8.46,16.47c-0.3,0.58-0.87,0.79-1.3,0.79c-0.26,0-0.63-0.07-0.99-0.39l-13.58-12.59
					l-11.19,14.75C160.9,316.21,160.46,316.42,160,316.42z M147.74,300.18l11.61,15.31c0.29,0.38,1.02,0.38,1.31,0l11.61-15.31
					l0.26,0.24l13.83,12.82c0.16,0.15,0.35,0.22,0.56,0.22c0.24,0,0.56-0.12,0.74-0.45l8.78-17.08l16.14,10.41
					c0.13,0.09,0.3,0.13,0.47,0.13c0.18,0,0.61-0.06,0.77-0.59l5.67-18.35l17.7,7.45c0.41,0.18,1.06,0,1.14-0.66l2.4-19.06
					l18.73,4.27c0.29,0.07,0.58-0.03,0.78-0.24c0.16-0.16,0.24-0.38,0.23-0.61l-0.95-19.18l19.18,0.94c0.29,0,0.53-0.11,0.69-0.31
					c0.09-0.11,0.24-0.36,0.16-0.7l-4.26-18.72l0.34-0.04l18.71-2.36c0.26-0.03,0.48-0.18,0.61-0.41c0.13-0.23,0.15-0.49,0.05-0.73
					l-7.45-17.71l0.33-0.1l18.02-5.57c0.25-0.08,0.45-0.27,0.54-0.51c0.09-0.24,0.05-0.51-0.09-0.72l-10.41-16.14l17.09-8.78
					c0.24-0.12,0.39-0.33,0.44-0.59c0.04-0.25-0.03-0.51-0.21-0.71l-13.05-14.08l0.28-0.21l15.03-11.4c0.21-0.16,0.32-0.4,0.32-0.66
					c0-0.26-0.12-0.5-0.32-0.66l-15.31-11.61l13.06-14.09c0.18-0.19,0.25-0.45,0.21-0.71c-0.05-0.26-0.2-0.47-0.44-0.59l-17.09-8.77
					l0.19-0.29l10.23-15.85c0.14-0.22,0.17-0.48,0.08-0.73c-0.09-0.24-0.29-0.43-0.54-0.5l-18.35-5.67l7.45-17.7
					c0.1-0.24,0.08-0.51-0.05-0.73c-0.13-0.23-0.35-0.37-0.61-0.41l-19.06-2.4l0.07-0.34l4.19-18.39c0.08-0.34-0.07-0.58-0.16-0.7
					c-0.16-0.2-0.39-0.31-0.64-0.31L259.5,60.5l0.95-19.18c0.01-0.23-0.07-0.44-0.22-0.6c-0.2-0.21-0.51-0.3-0.78-0.24l-18.73,4.26
					l-0.04-0.35l-2.36-18.71c-0.08-0.65-0.73-0.83-1.14-0.66l-17.7,7.45l-0.1-0.33l-5.57-18.02c-0.11-0.37-0.4-0.59-0.77-0.59
					c-0.17,0-0.34,0.05-0.47,0.14l-16.14,10.41l-0.16-0.31l-8.62-16.78c-0.17-0.33-0.49-0.45-0.74-0.45c-0.21,0-0.4,0.08-0.56,0.22
					l-14.08,13.05l-11.61-15.3c-0.29-0.38-1.02-0.38-1.31,0l-11.61,15.3L133.65,6.77c-0.16-0.15-0.34-0.22-0.56-0.22
					c-0.25,0-0.57,0.12-0.74,0.45l-8.77,17.09l-16.14-10.41c-0.14-0.09-0.3-0.14-0.47-0.14c-0.37,0-0.66,0.22-0.77,0.59l-5.67,18.35
					l-17.7-7.45c-0.41-0.17-1.06,0.01-1.14,0.66l-2.4,19.06l-0.34-0.08l-18.39-4.18c-0.28-0.07-0.59,0.03-0.79,0.24
					c-0.15,0.16-0.23,0.38-0.22,0.61L60.5,60.5l-19.19-0.95c-0.29,0-0.52,0.1-0.68,0.31c-0.11,0.14-0.23,0.38-0.16,0.7l4.26,18.73
					l-19.06,2.4c-0.26,0.03-0.48,0.18-0.61,0.41c-0.13,0.23-0.15,0.49-0.05,0.73l7.45,17.7l-18.35,5.67
					c-0.25,0.08-0.44,0.26-0.53,0.51c-0.09,0.25-0.06,0.51,0.08,0.73l10.41,16.14l-17.09,8.77c-0.23,0.12-0.39,0.33-0.44,0.59
					c-0.04,0.25,0.03,0.51,0.21,0.7l13.06,14.09l-15.3,11.61c-0.21,0.16-0.33,0.4-0.33,0.66s0.12,0.5,0.33,0.66l15.31,11.61
					L6.77,186.35c-0.18,0.19-0.26,0.45-0.21,0.71c0.05,0.25,0.21,0.47,0.44,0.59l17.09,8.78l-0.19,0.29l-10.22,15.85
					c-0.14,0.22-0.17,0.48-0.08,0.72c0.09,0.25,0.28,0.43,0.53,0.51l18.35,5.67l-7.45,17.71c-0.1,0.24-0.08,0.51,0.05,0.73
					c0.13,0.23,0.35,0.37,0.61,0.41l19.06,2.4l-4.26,18.72c-0.08,0.34,0.07,0.58,0.16,0.7c0.16,0.2,0.39,0.31,0.64,0.31l19.23-0.94
					l-0.95,19.18c-0.01,0.23,0.07,0.45,0.22,0.61c0.2,0.21,0.5,0.3,0.78,0.24l18.73-4.27l2.4,19.06c0.08,0.65,0.73,0.84,1.14,0.66
					l17.7-7.45l5.67,18.35c0.16,0.53,0.59,0.59,0.77,0.59c0.17,0,0.33-0.05,0.47-0.13l16.14-10.41l8.77,17.09
					c0.17,0.33,0.49,0.45,0.74,0.45c0.14,0,0.36-0.04,0.56-0.22L147.74,300.18z"/>
			</g>
			<path d="M160,76.9c-45.82,0-83.1,37.28-83.1,83.1c0,45.82,37.28,83.1,83.1,83.1c45.82,0,83.1-37.28,83.1-83.1
				C243.1,114.18,205.82,76.9,160,76.9z M160,238.94c-43.53,0-78.94-35.41-78.94-78.94c0-43.53,35.41-78.94,78.94-78.94
				c43.52,0,78.94,35.41,78.94,78.94C238.94,203.53,203.52,238.94,160,238.94z"/>
		</g>
		<path d="M160.32,290.84c-72.15,0-130.84-58.69-130.84-130.84c0-72.15,58.69-130.84,130.84-130.84S291.16,87.85,291.16,160
			C291.16,232.15,232.47,290.84,160.32,290.84z M160.32,32.94c-70.06,0-127.06,57-127.06,127.06c0,70.06,57,127.06,127.06,127.06
			c70.06,0,127.06-57,127.06-127.06C287.38,89.94,230.38,32.94,160.32,32.94z"/>
		<g>
			<path d="M214.48,142.69c2.09,1.23,3.63,3.22,3.77,5.71c-2.46-0.49-4.64-4.18-5.69-6.51
				C213.24,142.06,213.88,142.34,214.48,142.69L214.48,142.69z M216.76,149.48c1.86,1.54,3.17,4.14,2.78,6.58
				c-2.35-0.92-3.96-5.28-4.56-7.68C215.62,148.66,216.22,149.03,216.76,149.48L216.76,149.48z M217.74,156.71
				c1.64,2.04,2.39,4.79,1.59,7.32c-1.84-1.26-2.53-4.16-2.89-6.31c-0.14-0.82-0.23-1.65-0.29-2.48
				C216.74,155.66,217.27,156.15,217.74,156.71L217.74,156.71z M217.32,164.14c1.24,2.18,1.59,5.23,0.29,7.46
				c-2.03-1.71-1.91-6.63-1.63-9.2C216.51,162.92,216.95,163.5,217.32,164.14L217.32,164.14z M215.55,171.13
				c0.89,2.38,0.68,5.44-1.01,7.42c-1.74-2.03-0.78-6.86-0.04-9.35C214.94,169.79,215.29,170.44,215.55,171.13L215.55,171.13z
				 M212.57,177.51c0.51,2.72-0.34,5.52-2.42,7.37c-1.07-2.14-0.13-5.02,0.66-7.13c0.3-0.79,0.64-1.57,1.02-2.34
				C212.18,176.08,212.42,176.78,212.57,177.51L212.57,177.51z M208.41,183.29c0.03,2.72-1.37,5.63-3.79,6.99
				c-0.99-2.57,1.84-7.08,3.44-9.23C208.28,181.76,208.4,182.52,208.41,183.29L208.41,183.29z M210.89,136.31
				c2.11,0.78,4.22,2.65,4.66,4.94c-2.46-0.09-5.3-3.39-6.65-5.39C209.58,135.92,210.25,136.08,210.89,136.31L210.89,136.31z
				 M208.32,131.12c1.02,1.7,2.75,3.98,4.69,4.66c0.07-2.83-3.05-5.62-5.71-6.62C207.6,129.84,207.94,130.49,208.32,131.12
				L208.32,131.12z M218.41,140.86c-0.3,2.47-0.2,5,0.96,7.23c1.71-1.54,1.24-5.01,0.62-6.93c-0.29-0.87-0.69-1.73-1.14-2.52
				C218.64,139.37,218.5,140.11,218.41,140.86L218.41,140.86z M221.21,148.35c-0.79,2.29-1.22,5.27-0.5,7.63
				c2.73-1.87,2.37-6.87,1.4-9.72C221.75,146.93,221.45,147.63,221.21,148.35L221.21,148.35z M222.58,156.43
				c-1.31,2.31-2.26,5.09-2.1,7.75c2.41-0.93,3.3-4.33,3.49-6.7c0.08-1,0.06-2.01-0.06-3C223.41,155.09,222.97,155.75,222.58,156.43
				L222.58,156.43z M222.39,164.83c-1.68,1.89-3.36,4.58-3.67,7.14c2.69-0.4,4.1-3.48,4.84-5.77c0.29-0.99,0.48-2.01,0.56-3.04
				C223.5,163.67,222.92,164.24,222.39,164.83L222.39,164.83z M220.65,172.85c-2.07,1.5-4.26,3.8-5.08,6.28
				c2.74,0.2,4.77-2.55,5.97-4.65c0.49-0.92,0.88-1.89,1.16-2.88C221.98,171.95,221.29,172.38,220.65,172.85L220.65,172.85z
				 M217.48,180.27c-2.56,1.16-4.95,2.97-6.43,5.37c2.66,0.76,5.45-1.67,6.99-3.54c0.67-0.81,1.25-1.7,1.73-2.64
				C218.98,179.66,218.22,179.94,217.48,180.27L217.48,180.27z M212.92,187.09c-2.67,0.63-5.7,2.04-7.56,4.11
				c2.55,1.37,5.7-0.57,7.69-2.11c0.86-0.7,1.64-1.5,2.33-2.37C214.56,186.76,213.73,186.89,212.92,187.09L212.92,187.09z
				 M214.19,133.93c0.18,2.26,0.88,5.06,2.4,6.81c1.3-1.87,0.15-5.14-0.86-6.88c-0.44-0.76-0.96-1.49-1.55-2.15
				C214.13,132.46,214.14,133.2,214.19,133.93L214.19,133.93z"/>
			<path d="M213.03,135.82c1.47,2.21,2.58,4.22,3.65,6.65c2.37,5.69,3.3,10.32,3.37,16.48c-0.21,8.09-1.88,14.04-5.96,21.02
				c-4.21,6.58-8.58,10.73-15.38,14.57c0.1,0.18,0.2,0.37,0.3,0.56c6.88-3.92,11.31-8.15,15.54-14.86
				c4.09-7.08,5.73-13.11,5.86-21.29c-0.13-6.2-1.12-10.85-3.6-16.53C215.69,140,214.55,138,213.03,135.82L213.03,135.82z"/>
			<path d="M105.52,142.69c-2.09,1.23-3.63,3.22-3.77,5.71c2.46-0.49,4.64-4.18,5.69-6.51
				C106.77,142.06,106.12,142.34,105.52,142.69L105.52,142.69z M103.24,149.48c-1.85,1.54-3.18,4.14-2.79,6.58
				c2.35-0.92,3.96-5.28,4.57-7.68C104.38,148.66,103.78,149.03,103.24,149.48L103.24,149.48z M102.26,156.71
				c-1.64,2.04-2.4,4.79-1.59,7.32c1.84-1.26,2.53-4.16,2.89-6.31c0.14-0.82,0.24-1.65,0.29-2.48
				C103.26,155.66,102.72,156.15,102.26,156.71L102.26,156.71z M102.68,164.14c-1.24,2.18-1.58,5.23-0.29,7.46
				c2.03-1.71,1.91-6.63,1.63-9.2C103.49,162.92,103.04,163.5,102.68,164.14L102.68,164.14z M104.45,171.13
				c-0.89,2.38-0.68,5.44,1.01,7.42c1.74-2.03,0.78-6.86,0.04-9.35C105.06,169.79,104.71,170.44,104.45,171.13L104.45,171.13z
				 M107.43,177.51c-0.51,2.72,0.34,5.52,2.42,7.37c1.07-2.14,0.14-5.02-0.66-7.13c-0.3-0.79-0.64-1.57-1.02-2.34
				C107.82,176.08,107.58,176.78,107.43,177.51L107.43,177.51z M111.59,183.29c-0.03,2.72,1.37,5.63,3.79,6.99
				c0.99-2.57-1.84-7.08-3.43-9.23C111.72,181.76,111.6,182.52,111.59,183.29L111.59,183.29z M109.1,136.31
				c-2.11,0.78-4.22,2.65-4.66,4.94c2.47-0.09,5.3-3.39,6.65-5.39C110.42,135.92,109.75,136.08,109.1,136.31L109.1,136.31z
				 M111.68,131.12c-1.01,1.7-2.75,3.98-4.69,4.66c-0.06-2.83,3.05-5.62,5.71-6.62C112.4,129.84,112.05,130.49,111.68,131.12
				L111.68,131.12z M101.59,140.86c0.3,2.47,0.2,5-0.96,7.23c-1.71-1.54-1.25-5.01-0.61-6.93c0.29-0.87,0.68-1.73,1.14-2.52
				C101.36,139.37,101.5,140.11,101.59,140.86L101.59,140.86z M98.79,148.35c0.79,2.29,1.22,5.27,0.5,7.63
				c-2.73-1.87-2.37-6.87-1.41-9.72C98.25,146.93,98.54,147.63,98.79,148.35L98.79,148.35z M97.42,156.43
				c1.3,2.31,2.26,5.09,2.1,7.75c-2.41-0.93-3.3-4.33-3.49-6.7c-0.08-1-0.06-2.01,0.07-3C96.59,155.09,97.03,155.75,97.42,156.43
				L97.42,156.43z M97.61,164.83c1.69,1.89,3.36,4.58,3.67,7.14c-2.69-0.4-4.1-3.48-4.84-5.77c-0.29-0.99-0.47-2.01-0.56-3.04
				C96.5,163.67,97.08,164.24,97.61,164.83L97.61,164.83z M99.36,172.85c2.07,1.5,4.26,3.8,5.08,6.28c-2.74,0.2-4.76-2.55-5.96-4.65
				c-0.49-0.92-0.88-1.89-1.16-2.88C98.02,171.95,98.71,172.38,99.36,172.85L99.36,172.85z M102.52,180.27
				c2.57,1.16,4.95,2.97,6.43,5.37c-2.66,0.76-5.44-1.67-6.98-3.54c-0.67-0.81-1.25-1.7-1.73-2.64
				C101.01,179.66,101.78,179.94,102.52,180.27L102.52,180.27z M107.08,187.09c2.67,0.63,5.7,2.04,7.56,4.11
				c-2.55,1.37-5.71-0.57-7.7-2.11c-0.86-0.7-1.64-1.5-2.33-2.37C105.44,186.76,106.27,186.89,107.08,187.09L107.08,187.09z
				 M105.81,133.93c-0.18,2.26-0.88,5.06-2.4,6.81c-1.3-1.87-0.15-5.14,0.86-6.88c0.44-0.76,0.97-1.49,1.55-2.15
				C105.87,132.46,105.86,133.2,105.81,133.93L105.81,133.93z"/>
			<path d="M106.97,135.82c-1.47,2.21-2.58,4.22-3.66,6.65c-2.37,5.69-3.3,10.32-3.36,16.48c0.21,8.09,1.87,14.04,5.96,21.02
				c4.21,6.58,8.58,10.73,15.38,14.57c-0.1,0.18-0.2,0.37-0.31,0.56c-6.88-3.92-11.31-8.15-15.53-14.86
				c-4.09-7.08-5.73-13.11-5.86-21.29c0.13-6.2,1.12-10.85,3.6-16.53C104.31,140,105.45,138,106.97,135.82L106.97,135.82z"/>
		</g>
		<path d="M110.77,255.58c0,1.78,1.44,3.22,3.22,3.22c1.78,0,3.22-1.44,3.22-3.22c0-1.78-1.44-3.22-3.22-3.22
			C112.21,252.36,110.77,253.8,110.77,255.58z"/>
		<path d="M203.63,256.34c0,1.78,1.45,3.22,3.22,3.22c1.78,0,3.22-1.44,3.22-3.22c0-1.78-1.44-3.22-3.22-3.22
			C205.08,253.12,203.63,254.56,203.63,256.34z"/>
		<g>
			<path d="M102.72,238.78c0.06-0.22,0.02-0.43-0.13-0.63c-0.15-0.2-0.44-0.45-0.87-0.76c-0.04-0.03-0.03-0.08,0.02-0.15
				s0.1-0.1,0.14-0.07c0.4,0.29,0.72,0.52,0.95,0.7l1.38,1.01l1.37,0.95c0.25,0.16,0.58,0.38,0.99,0.68
				c0.04,0.03,0.03,0.08-0.02,0.15c-0.05,0.08-0.1,0.1-0.14,0.07c-0.43-0.3-0.76-0.49-1-0.57c-0.24-0.08-0.46-0.05-0.67,0.08
				c-0.21,0.13-0.44,0.38-0.71,0.76l-6.21,8.73c-0.27,0.38-0.43,0.68-0.48,0.91s0,0.45,0.14,0.66c0.15,0.21,0.43,0.46,0.86,0.77
				c0.04,0.03,0.03,0.08-0.02,0.15c-0.05,0.08-0.1,0.1-0.14,0.07l-0.97-0.72c-0.53-0.42-0.98-0.75-1.33-1
				c-0.39-0.28-0.87-0.6-1.44-0.97l-0.96-0.65c-0.04-0.03-0.03-0.08,0.02-0.15c0.05-0.08,0.1-0.1,0.14-0.07
				c0.41,0.29,0.75,0.47,0.99,0.54c0.25,0.06,0.47,0.03,0.67-0.1c0.2-0.13,0.43-0.39,0.7-0.77l6.18-8.69
				C102.49,239.3,102.66,239,102.72,238.78z"/>
			<path d="M78.8,235.9c0.06-0.07,0.11-0.09,0.13-0.07c0.45,0.42,0.95,0.58,1.5,0.49c0.55-0.09,1.1-0.44,1.65-1.04l8.13-8.78
				c0.03-0.03,0.08-0.03,0.15,0.01c0.07,0.04,0.1,0.08,0.1,0.13l-0.6,16.63l6.4-6.91c0.56-0.6,0.86-1.17,0.92-1.71
				c0.06-0.54-0.14-1.01-0.6-1.43c-0.02-0.02,0-0.07,0.06-0.13s0.11-0.09,0.13-0.07c0.31,0.28,0.53,0.5,0.68,0.66l0.88,0.85
				l1.02,0.91c0.19,0.16,0.46,0.39,0.8,0.71c0.03,0.03,0.02,0.08-0.04,0.15c-0.06,0.07-0.11,0.09-0.15,0.05
				c-0.49-0.45-1.01-0.64-1.57-0.57c-0.56,0.07-1.12,0.41-1.67,1.01l-6.88,7.44c0,0.63,0.07,1.13,0.2,1.51
				c0.13,0.37,0.33,0.68,0.6,0.93c0.02,0.02,0,0.07-0.06,0.13c-0.06,0.07-0.11,0.09-0.13,0.07l-0.66-0.65
				c-0.14-0.15-0.34-0.35-0.61-0.6l-1.1-0.99c-0.15-0.12-0.32-0.26-0.51-0.44c-0.09-0.08-0.14-0.17-0.14-0.26
				c0-0.09,0.01-0.24,0.05-0.46l0.1-0.92l0.55-12.86l-5.56,6.01c-0.56,0.6-0.86,1.17-0.92,1.71c-0.06,0.54,0.13,1.02,0.57,1.43
				c0.02,0.02,0,0.07-0.06,0.13c-0.06,0.07-0.11,0.09-0.13,0.07l-0.68-0.66c-0.34-0.36-0.63-0.65-0.87-0.87
				c-0.23-0.21-0.54-0.48-0.95-0.81l-0.76-0.67C78.71,236.01,78.73,235.97,78.8,235.9z"/>
			<path d="M76.46,231.17c0.83,0.13,1.81-0.04,2.93-0.51c0.02-0.02,0.06,0.01,0.11,0.07c0.05,0.07,0.06,0.11,0.02,0.14
				c-0.51,0.32-1.17,0.74-1.96,1.26c-0.8,0.52-1.38,0.93-1.76,1.22c-0.06,0.05-0.12,0.04-0.17-0.03c-0.05-0.07-0.05-0.12,0.01-0.17
				c0.27-0.21,0.14-0.65-0.39-1.33c-0.78-1.08-1.71-2.31-2.8-3.71c-0.56-0.72-1.16-1.47-1.81-2.25l-0.98-1.23
				c-0.36-0.46-0.65-0.78-0.88-0.94c-0.23-0.17-0.46-0.21-0.69-0.13c-0.06,0.03-0.11,0.01-0.16-0.05s-0.05-0.11,0-0.15
				c0.41-0.26,1.01-0.67,1.8-1.23c0.8-0.56,1.43-1.03,1.91-1.39c0.04-0.03,0.08-0.01,0.13,0.06c0.05,0.07,0.06,0.12,0.04,0.16
				c-0.84,0.85-1.31,1.67-1.41,2.47c-0.09,0.8,0.16,1.58,0.75,2.34c0.27,0.34,0.49,0.57,0.68,0.69s0.38,0.14,0.58,0.08
				s0.46-0.22,0.79-0.48l8.42-6.55c0.38-0.29,0.62-0.54,0.74-0.75c0.11-0.21,0.12-0.44,0.01-0.71c-0.11-0.27-0.35-0.64-0.72-1.11
				c-0.03-0.04-0.01-0.08,0.07-0.14s0.12-0.07,0.15-0.03c0.33,0.43,0.59,0.77,0.76,1.02l1.15,1.51l1.13,1.41
				c0.21,0.25,0.49,0.59,0.84,1.04c0.02,0.02-0.01,0.06-0.08,0.12c-0.07,0.06-0.12,0.07-0.14,0.05c-0.37-0.47-0.67-0.8-0.91-0.98
				s-0.47-0.24-0.71-0.18c-0.24,0.06-0.54,0.23-0.91,0.51l-8.46,6.58c-0.32,0.25-0.52,0.46-0.62,0.63c-0.1,0.17-0.12,0.36-0.05,0.57
				c0.06,0.21,0.22,0.47,0.48,0.8C74.93,230.61,75.63,231.05,76.46,231.17z"/>
			<path d="M70.48,205.26c-0.02-0.04-0.03-0.08-0.03-0.13c0-0.04,0.01-0.07,0.02-0.08c1.09-0.45,2.06-0.91,2.91-1.39
				c0.11-0.06,0.2-0.08,0.27-0.07c0.07,0.01,0.14,0.08,0.21,0.2l4.98,8.72c0.02,0.04-0.01,0.08-0.09,0.13
				c-0.08,0.05-0.13,0.05-0.16,0.01c-0.26-0.46-0.48-0.77-0.67-0.94c-0.19-0.17-0.4-0.24-0.63-0.2s-0.56,0.17-0.96,0.4l-9.3,5.31
				c-0.4,0.23-0.68,0.43-0.82,0.62s-0.19,0.4-0.15,0.66c0.05,0.26,0.2,0.61,0.45,1.05c0.02,0.04-0.01,0.08-0.09,0.13
				c-0.08,0.05-0.13,0.05-0.15,0.01l-4.77-8.36c-0.08-0.13-0.05-0.24,0.07-0.3l2.59-1.53c0.03-0.02,0.07,0.01,0.12,0.08
				c0.06,0.07,0.07,0.12,0.03,0.15c-1.34,1.19-1.58,2.56-0.7,4.1l0.46,0.8c0.28,0.48,0.56,0.77,0.85,0.88
				c0.29,0.1,0.64,0.03,1.06-0.2l4.1-2.34l-1.1-1.93c-0.84-1.47-1.76-1.93-2.75-1.36c-0.04,0.02-0.08,0-0.12-0.08
				c-0.04-0.07-0.04-0.12,0-0.14l1.76-0.98l0.93-0.56c0.41-0.27,0.75-0.48,1.02-0.64c0.03-0.01,0.06,0.02,0.11,0.1
				c0.05,0.08,0.06,0.13,0.03,0.14c-1.15,0.66-1.3,1.74-0.44,3.24l1.09,1.91l4.56-2.6c0.44-0.25,0.7-0.51,0.78-0.78
				c0.08-0.27,0-0.61-0.25-1.04l-0.56-0.98c-1.02-1.79-2.55-2.44-4.56-1.92C70.54,205.33,70.51,205.31,70.48,205.26z"/>
			<path d="M66.9,187.27c0.09-0.03,0.14-0.03,0.15,0.01l1.35,3.47c0.13,0.33-0.21,1.17-1.01,2.51c-0.8,1.34-1.99,3.06-3.56,5.14
				c0.15,0.31,0.26,0.54,0.33,0.72c0.12,0.32,0.25,0.7,0.39,1.14l4.81-1.87c0.45-0.17,0.75-0.34,0.92-0.5
				c0.17-0.16,0.25-0.36,0.23-0.61c-0.01-0.25-0.12-0.62-0.31-1.11c-0.01-0.03,0.03-0.06,0.11-0.09s0.14-0.04,0.15-0.01
				c0.18,0.47,0.32,0.84,0.41,1.11l0.6,1.6l0.62,1.54c0.12,0.27,0.27,0.64,0.46,1.11c0.02,0.04-0.02,0.08-0.1,0.12
				s-0.14,0.03-0.15-0.01c-0.19-0.49-0.36-0.83-0.52-1.03c-0.16-0.19-0.36-0.29-0.6-0.3c-0.24-0.01-0.58,0.08-1.01,0.24l-9.99,3.87
				c-0.43,0.17-0.73,0.33-0.9,0.49c-0.17,0.16-0.25,0.37-0.24,0.63c0.01,0.26,0.11,0.63,0.29,1.1c0.01,0.03-0.03,0.06-0.11,0.09
				c-0.09,0.03-0.13,0.04-0.15,0.01l-0.41-1.13c-0.22-0.64-0.4-1.16-0.55-1.55c-0.18-0.47-0.41-0.98-0.67-1.53
				c-0.09-0.18-0.19-0.4-0.31-0.66c-0.12-0.26-0.24-0.56-0.37-0.89c-0.49-1.25-0.62-2.31-0.39-3.19c0.22-0.87,0.78-1.48,1.65-1.82
				c0.79-0.31,1.59-0.36,2.39-0.17c0.8,0.19,1.53,0.58,2.19,1.17c1.28-1.85,2.26-3.37,2.93-4.54c0.67-1.17,1.11-2.15,1.31-2.93
				c0.2-0.78,0.19-1.47-0.04-2.06C66.78,187.34,66.81,187.31,66.9,187.27z M63.56,199.21c-0.36-0.93-0.86-1.51-1.48-1.73
				c-0.62-0.22-1.45-0.13-2.49,0.27c-1.17,0.45-1.9,0.96-2.21,1.54c-0.31,0.57-0.32,1.24-0.03,1.98c0.22,0.56,0.48,0.92,0.78,1.08
				c0.3,0.16,0.72,0.13,1.27-0.08l4.55-1.77C63.88,200.13,63.75,199.7,63.56,199.21z"/>
			<path d="M49.77,174.05c0.09-0.02,0.14-0.01,0.15,0.02c0.12,0.61,0.43,1.03,0.93,1.28s1.15,0.29,1.95,0.13l11.73-2.37
				c0.05-0.01,0.08,0.02,0.11,0.09c0.03,0.07,0.03,0.13,0.01,0.16l-10.21,13.13l9.23-1.86c0.8-0.16,1.38-0.44,1.74-0.85
				c0.36-0.4,0.48-0.91,0.36-1.51c-0.01-0.03,0.04-0.05,0.13-0.07s0.14-0.01,0.15,0.02c0.08,0.41,0.14,0.72,0.17,0.93l0.22,1.21
				l0.29,1.33c0.06,0.24,0.14,0.58,0.23,1.04c0.01,0.05-0.03,0.08-0.12,0.1c-0.09,0.02-0.14,0-0.15-0.04
				c-0.13-0.65-0.44-1.11-0.94-1.38c-0.5-0.27-1.14-0.32-1.94-0.16l-9.93,2c-0.37,0.51-0.61,0.96-0.72,1.34
				c-0.11,0.38-0.13,0.75-0.06,1.11c0.01,0.03-0.04,0.05-0.13,0.07c-0.09,0.02-0.14,0.01-0.15-0.02l-0.16-0.91
				c-0.02-0.2-0.07-0.48-0.15-0.84l-0.32-1.45c-0.05-0.18-0.1-0.4-0.16-0.65c-0.02-0.12-0.01-0.22,0.04-0.29
				c0.05-0.07,0.15-0.19,0.31-0.34l0.62-0.69l7.97-10.11l-8.03,1.62c-0.8,0.16-1.39,0.44-1.75,0.85c-0.37,0.4-0.49,0.9-0.37,1.49
				c0.01,0.03-0.04,0.05-0.13,0.07c-0.09,0.02-0.14,0.01-0.15-0.02l-0.16-0.93c-0.07-0.49-0.13-0.89-0.2-1.21
				c-0.06-0.3-0.16-0.71-0.29-1.22l-0.22-0.99C49.63,174.09,49.68,174.06,49.77,174.05z"/>
			<path d="M63.18,154.39c0.09,0,0.14,0.04,0.14,0.11c0.01,0.29,0.01,0.76-0.01,1.41c-0.01,0.65-0.02,1.12-0.01,1.41
				c0.01,0.39,0.04,0.84,0.08,1.36s0.07,0.93,0.08,1.22c0,0.06-0.04,0.09-0.14,0.1c-0.09,0-0.14-0.03-0.14-0.09
				c-0.01-0.45-0.07-0.77-0.18-0.98c-0.11-0.21-0.27-0.3-0.51-0.3c-0.23,0.01-0.62,0.15-1.17,0.43l-3.51,1.86l0.16,5.6l2.53,1.04
				c0.47,0.19,0.89,0.28,1.26,0.27c0.54-0.01,0.94-0.22,1.21-0.61c0.27-0.39,0.39-0.94,0.37-1.63c0-0.08,0.04-0.12,0.14-0.12
				c0.09,0,0.14,0.04,0.14,0.11c0.01,0.28,0,0.68-0.01,1.2c-0.01,0.59-0.02,1.1,0,1.53c0.01,0.42,0.04,0.9,0.09,1.46
				c0.04,0.49,0.07,0.9,0.08,1.22c0,0.08-0.04,0.12-0.14,0.12c-0.09,0-0.14-0.04-0.14-0.11c-0.01-0.43-0.11-0.79-0.28-1.08
				c-0.18-0.29-0.49-0.57-0.94-0.83s-1.11-0.58-1.98-0.94l-11.33-4.66c-0.05-0.03-0.07-0.1-0.08-0.21c0-0.11,0.02-0.17,0.06-0.19
				l11.27-5.98c1.1-0.57,1.84-1.04,2.24-1.42c0.4-0.37,0.59-0.77,0.58-1.19C63.04,154.44,63.09,154.4,63.18,154.39z M57.4,166.29
				l-0.14-5.07l-5.32,2.81L57.4,166.29z"/>
			<path d="M50.58,152.01c0.5,0.67,1.32,1.24,2.45,1.69c0.03,0,0.04,0.05,0.03,0.13c-0.01,0.08-0.04,0.12-0.08,0.12
				c-0.59-0.13-1.35-0.29-2.29-0.47c-0.93-0.19-1.64-0.31-2.11-0.36c-0.08-0.01-0.11-0.06-0.1-0.14c0.01-0.08,0.05-0.12,0.13-0.11
				c0.34,0.04,0.56-0.37,0.66-1.23c0.2-1.31,0.4-2.85,0.61-4.61c0.11-0.9,0.2-1.86,0.29-2.88l0.16-1.57
				c0.07-0.58,0.08-1.01,0.03-1.29c-0.05-0.28-0.18-0.47-0.4-0.57c-0.06-0.02-0.08-0.07-0.08-0.15c0.01-0.08,0.04-0.11,0.1-0.1
				c0.47,0.1,1.18,0.23,2.14,0.39s1.74,0.27,2.34,0.34c0.05,0,0.06,0.05,0.05,0.13c-0.01,0.08-0.04,0.13-0.09,0.14
				c-1.2,0.02-2.11,0.28-2.73,0.78c-0.62,0.5-0.99,1.24-1.11,2.2c-0.05,0.43-0.05,0.75,0,0.97s0.17,0.37,0.35,0.46
				s0.48,0.16,0.9,0.21l10.6,1.23c0.48,0.06,0.83,0.05,1.05-0.02s0.39-0.23,0.5-0.5c0.11-0.27,0.2-0.7,0.27-1.3
				c0.01-0.05,0.05-0.06,0.15-0.05c0.09,0.01,0.14,0.04,0.13,0.08c-0.06,0.54-0.12,0.96-0.17,1.26l-0.24,1.88l-0.19,1.8
				c-0.02,0.32-0.07,0.77-0.13,1.33c0,0.03-0.05,0.04-0.14,0.03c-0.09-0.01-0.14-0.03-0.13-0.06c0.07-0.6,0.08-1.04,0.04-1.33
				c-0.04-0.29-0.17-0.5-0.38-0.63c-0.21-0.13-0.55-0.21-1.01-0.27l-10.64-1.24c-0.4-0.05-0.69-0.04-0.89,0.01
				c-0.19,0.06-0.34,0.18-0.44,0.37c-0.1,0.19-0.17,0.49-0.22,0.91C49.88,150.54,50.08,151.34,50.58,152.01z"/>
			<path d="M65.63,136.05c0.23-0.03,0.41-0.14,0.54-0.36c0.13-0.21,0.26-0.58,0.38-1.09c0.01-0.04,0.06-0.06,0.15-0.04
				s0.13,0.05,0.12,0.1c-0.11,0.48-0.21,0.86-0.3,1.14l-0.42,1.66l-0.36,1.63c-0.05,0.29-0.14,0.68-0.26,1.18
				c-0.01,0.04-0.06,0.06-0.15,0.04c-0.09-0.02-0.13-0.05-0.12-0.1c0.12-0.51,0.17-0.89,0.15-1.14c-0.02-0.25-0.13-0.45-0.32-0.59
				c-0.2-0.14-0.52-0.27-0.97-0.38l-10.42-2.49c-0.45-0.11-0.79-0.14-1.02-0.1c-0.23,0.04-0.42,0.17-0.55,0.38s-0.27,0.57-0.39,1.08
				c-0.01,0.04-0.06,0.06-0.15,0.04c-0.09-0.02-0.13-0.05-0.12-0.1l0.3-1.16c0.19-0.65,0.33-1.19,0.43-1.61
				c0.11-0.47,0.23-1.03,0.36-1.7l0.25-1.13c0.01-0.04,0.06-0.06,0.15-0.04s0.13,0.05,0.12,0.1c-0.12,0.5-0.16,0.87-0.13,1.12
				c0.03,0.25,0.15,0.45,0.35,0.58c0.2,0.13,0.52,0.26,0.97,0.36l10.37,2.48C65.06,136.03,65.41,136.07,65.63,136.05z"/>
			<path d="M67.77,128.86c-1.03,0.8-2.19,1.28-3.48,1.43s-2.57-0.01-3.84-0.5c-1.48-0.57-2.61-1.44-3.38-2.59
				c-0.77-1.16-1.19-2.42-1.27-3.8c-0.08-1.38,0.12-2.68,0.59-3.9c0.53-1.37,1.31-2.44,2.35-3.23c1.04-0.79,2.19-1.26,3.46-1.41
				c1.26-0.15,2.49,0.01,3.67,0.46c1.31,0.51,2.38,1.32,3.2,2.43c0.83,1.11,1.33,2.37,1.52,3.77c0.19,1.4,0.02,2.78-0.51,4.13
				C69.57,126.99,68.8,128.06,67.77,128.86z M70.05,122.12c-0.2-0.86-0.68-1.67-1.44-2.42c-0.75-0.75-1.76-1.36-3.01-1.84
				c-1.32-0.51-2.6-0.75-3.82-0.72c-1.22,0.03-2.28,0.34-3.19,0.93c-0.9,0.58-1.57,1.42-1.99,2.52c-0.54,1.4-0.46,2.67,0.25,3.83
				c0.7,1.16,1.94,2.08,3.71,2.76c1.37,0.53,2.69,0.78,3.97,0.75c1.28-0.02,2.39-0.32,3.33-0.87c0.93-0.56,1.6-1.34,1.99-2.35
				C70.19,123.85,70.25,122.99,70.05,122.12z"/>
			<path d="M69.6,95.33c0.08,0.05,0.11,0.09,0.09,0.11c-0.32,0.53-0.38,1.05-0.18,1.57c0.2,0.52,0.65,0.99,1.35,1.42l10.21,6.23
				c0.04,0.02,0.05,0.07,0.02,0.15c-0.03,0.07-0.06,0.12-0.1,0.13l-16.42,2.7l8.04,4.9c0.7,0.43,1.32,0.61,1.85,0.56
				c0.54-0.05,0.97-0.34,1.29-0.87c0.02-0.03,0.06-0.01,0.14,0.03s0.11,0.08,0.09,0.11c-0.22,0.36-0.39,0.62-0.51,0.8l-0.66,1.04
				l-0.69,1.18c-0.12,0.22-0.29,0.53-0.53,0.92c-0.02,0.04-0.08,0.04-0.15-0.01c-0.08-0.05-0.11-0.09-0.08-0.13
				c0.35-0.57,0.43-1.12,0.25-1.65c-0.18-0.53-0.62-1.01-1.32-1.44l-8.65-5.28c-0.62,0.13-1.1,0.29-1.44,0.49
				c-0.34,0.2-0.6,0.46-0.8,0.77c-0.02,0.03-0.06,0.02-0.14-0.03c-0.08-0.05-0.11-0.09-0.09-0.11l0.5-0.78
				c0.12-0.16,0.27-0.4,0.47-0.72l0.75-1.28c0.08-0.17,0.19-0.36,0.33-0.58c0.06-0.11,0.14-0.17,0.22-0.19
				c0.08-0.02,0.24-0.04,0.46-0.04l0.92-0.09l12.71-2l-6.99-4.26c-0.7-0.43-1.32-0.61-1.86-0.57c-0.54,0.05-0.97,0.33-1.29,0.84
				c-0.02,0.03-0.06,0.02-0.14-0.03c-0.08-0.05-0.11-0.08-0.09-0.11l0.51-0.8c0.28-0.41,0.51-0.75,0.68-1.02
				c0.16-0.26,0.36-0.63,0.61-1.09l0.51-0.88C69.47,95.27,69.52,95.28,69.6,95.33z"/>
			<path d="M92.8,90c0.07,0.06,0.08,0.12,0.03,0.18c-0.19,0.22-0.51,0.56-0.96,1.03c-0.45,0.47-0.77,0.81-0.96,1.03
				c-0.25,0.29-0.54,0.64-0.86,1.06c-0.32,0.42-0.58,0.73-0.77,0.95c-0.04,0.05-0.1,0.04-0.17-0.02c-0.07-0.06-0.08-0.11-0.04-0.16
				c0.29-0.34,0.47-0.62,0.53-0.84c0.06-0.22,0.01-0.41-0.17-0.56c-0.17-0.15-0.56-0.31-1.15-0.48l-3.84-1.02l-3.69,4.21l1.15,2.48
				c0.22,0.46,0.46,0.81,0.74,1.05c0.41,0.36,0.84,0.48,1.3,0.37s0.92-0.42,1.38-0.94c0.05-0.06,0.11-0.06,0.18,0
				c0.07,0.06,0.08,0.12,0.03,0.18c-0.18,0.21-0.46,0.5-0.83,0.88c-0.41,0.42-0.76,0.79-1.04,1.12c-0.27,0.31-0.58,0.69-0.93,1.13
				c-0.3,0.39-0.56,0.71-0.77,0.95c-0.05,0.06-0.11,0.06-0.18,0c-0.07-0.06-0.08-0.12-0.03-0.18c0.28-0.33,0.46-0.65,0.52-0.99
				c0.06-0.33,0.02-0.75-0.12-1.25s-0.42-1.18-0.82-2.04l-5.15-11.12c-0.01-0.05,0.01-0.12,0.08-0.2c0.07-0.08,0.13-0.11,0.17-0.09
				l12.33,3.26c1.19,0.33,2.06,0.49,2.61,0.48c0.55,0,0.96-0.16,1.23-0.47C92.67,89.94,92.73,89.94,92.8,90z M80.48,94.81l3.34-3.81
				l-5.81-1.55L80.48,94.81z"/>
			<path d="M95.29,85.71c0.27,0.32,0.49,0.52,0.66,0.62c0.17,0.1,0.36,0.1,0.55,0.02c0.19-0.08,0.46-0.27,0.8-0.56l1.06-0.9
				c0.84-0.71,1.35-1.54,1.53-2.49c0.18-0.95,0.03-1.9-0.44-2.85c-0.02-0.04,0-0.09,0.07-0.13c0.06-0.04,0.11-0.05,0.14-0.01
				c0.83,1.2,1.56,2.16,2.17,2.89c0.08,0.09,0.12,0.18,0.12,0.25c0,0.07-0.05,0.15-0.16,0.24l-8.26,7c-0.02,0.02-0.06,0-0.12-0.08
				c-0.06-0.07-0.08-0.12-0.05-0.14c0.4-0.34,0.67-0.61,0.8-0.83c0.13-0.21,0.16-0.43,0.08-0.66c-0.08-0.23-0.27-0.51-0.57-0.87
				l-6.92-8.18c-0.3-0.35-0.55-0.58-0.75-0.69c-0.2-0.11-0.43-0.12-0.67-0.02s-0.56,0.31-0.95,0.63c-0.02,0.02-0.07,0-0.12-0.08
				c-0.06-0.07-0.08-0.12-0.05-0.14L85.09,78c0.54-0.42,0.97-0.76,1.3-1.04c0.35-0.3,0.78-0.68,1.28-1.14l0.87-0.77
				c0.04-0.03,0.08-0.01,0.14,0.06c0.06,0.07,0.07,0.12,0.04,0.15c-0.39,0.33-0.65,0.6-0.77,0.82c-0.13,0.22-0.15,0.44-0.07,0.67
				c0.08,0.23,0.27,0.51,0.57,0.87L95.29,85.71z"/>
			<path d="M112.24,76.04c-0.21,0.1-0.48,0.22-0.8,0.38c-0.32,0.16-0.68,0.34-1.07,0.55l-1.43,0.8c-0.25,0.15-0.61,0.35-1.07,0.6
				c-0.03,0.01-0.06-0.02-0.11-0.1c-0.04-0.08-0.05-0.13-0.02-0.14c0.46-0.25,0.78-0.46,0.95-0.65c0.17-0.18,0.25-0.39,0.22-0.63
				c-0.02-0.24-0.15-0.57-0.37-0.97l-5.09-9.43c-0.22-0.41-0.42-0.69-0.6-0.84c-0.18-0.15-0.39-0.2-0.65-0.16
				c-0.26,0.04-0.61,0.18-1.06,0.43c-0.03,0.01-0.06-0.02-0.11-0.1s-0.05-0.13-0.02-0.14l1.09-0.56c0.61-0.29,1.09-0.54,1.45-0.73
				c0.54-0.29,1.08-0.61,1.62-0.95c0.66-0.39,1.11-0.65,1.34-0.78c1.39-0.75,2.76-1.14,4.13-1.17c1.37-0.04,2.6,0.26,3.69,0.87
				c1.1,0.62,1.96,1.51,2.59,2.68c0.71,1.32,1.03,2.65,0.97,3.99s-0.47,2.56-1.2,3.67s-1.72,1.99-2.96,2.66
				C113.32,75.54,112.82,75.78,112.24,76.04z M115.45,73c0.48-0.84,0.69-1.81,0.63-2.9c-0.07-1.09-0.43-2.25-1.09-3.48
				c-0.63-1.17-1.39-2.12-2.29-2.85c-0.9-0.74-1.85-1.19-2.85-1.36s-1.97,0-2.91,0.5c-0.57,0.31-0.99,0.58-1.27,0.82
				c-0.28,0.24-0.44,0.48-0.48,0.74c-0.04,0.26,0.04,0.58,0.24,0.96l4.94,9.16c0.3,0.56,0.66,0.88,1.07,0.96
				c0.41,0.08,1.03-0.1,1.86-0.54C114.25,74.51,114.96,73.84,115.45,73z"/>
			<path d="M125.57,68.85c-1.27-0.29-2.38-0.88-3.32-1.78c-0.94-0.9-1.62-2-2.05-3.28c-0.5-1.51-0.54-2.93-0.14-4.25
				s1.12-2.46,2.13-3.4s2.14-1.61,3.39-2.02c1.39-0.46,2.72-0.54,3.99-0.24c1.27,0.3,2.36,0.9,3.28,1.78
				c0.92,0.88,1.57,1.92,1.97,3.13c0.44,1.33,0.49,2.67,0.16,4.02s-0.99,2.54-1.95,3.57s-2.14,1.78-3.51,2.23
				C128.16,69.05,126.84,69.14,125.57,68.85z M132.22,66.33c0.54-0.71,0.86-1.59,0.95-2.64s-0.06-2.22-0.48-3.5
				c-0.45-1.35-1.07-2.48-1.87-3.4c-0.8-0.92-1.71-1.54-2.74-1.87c-1.03-0.33-2.1-0.31-3.21,0.06c-1.42,0.47-2.35,1.34-2.8,2.62
				c-0.45,1.28-0.37,2.82,0.22,4.62c0.46,1.39,1.11,2.58,1.94,3.55c0.83,0.98,1.76,1.65,2.79,2.02c1.02,0.37,2.05,0.38,3.07,0.04
				C130.98,67.54,131.68,67.04,132.22,66.33z"/>
			<path d="M143.14,64.06c-1.37-0.48-2.47-1.23-3.3-2.25c-0.83-1.03-1.34-2.23-1.54-3.6c-0.21-1.47-0.01-2.82,0.59-4.06
				s1.53-2.26,2.79-3.07c1.26-0.81,2.72-1.33,4.38-1.57c0.76-0.11,1.52-0.15,2.26-0.13s1.36,0.11,1.85,0.28
				c0.15,0.04,0.23,0.08,0.26,0.13c0.03,0.04,0.07,0.16,0.11,0.36l0.73,2.98c0.01,0.05-0.03,0.08-0.11,0.11
				c-0.08,0.03-0.14,0.01-0.16-0.05c-0.46-0.92-1.17-1.71-2.14-2.4s-2.12-0.93-3.47-0.74c-1.05,0.15-1.97,0.55-2.76,1.21
				c-0.79,0.66-1.36,1.52-1.71,2.59c-0.35,1.07-0.44,2.26-0.25,3.58c0.2,1.39,0.65,2.62,1.35,3.68c0.7,1.06,1.6,1.85,2.69,2.36
				c1.09,0.52,2.29,0.68,3.59,0.5c0.66-0.09,1.16-0.24,1.5-0.45c0.34-0.2,0.57-0.52,0.69-0.94c0.11-0.42,0.11-1.01,0-1.78
				c-0.11-0.79-0.24-1.34-0.37-1.64s-0.37-0.48-0.7-0.54s-0.88-0.04-1.66,0.07c-0.09,0.01-0.15-0.04-0.16-0.16
				c-0.01-0.05,0-0.09,0.02-0.13c0.02-0.04,0.04-0.06,0.07-0.07c1.28-0.1,2.3-0.21,3.06-0.32c0.76-0.11,1.55-0.24,2.37-0.41
				c0.03,0,0.06,0.01,0.09,0.05s0.04,0.07,0.05,0.1c0.01,0.11-0.02,0.17-0.09,0.18c-0.31,0.03-0.51,0.11-0.62,0.24
				c-0.11,0.13-0.15,0.38-0.14,0.73c0.01,0.36,0.08,0.97,0.2,1.84c0.1,0.69,0.19,1.17,0.29,1.46c0.09,0.28,0.15,0.46,0.16,0.54
				c0.01,0.09,0.01,0.16-0.02,0.19c-0.03,0.04-0.09,0.08-0.19,0.12c-1.86,0.7-3.55,1.16-5.06,1.37
				C146.05,64.66,144.5,64.54,143.14,64.06z"/>
			<path d="M172.22,57.11c0.7,0.76,1.01,1.67,0.94,2.71c-0.06,0.8-0.33,1.51-0.82,2.13s-1.13,1.09-1.94,1.41
				c-0.8,0.32-1.68,0.45-2.64,0.38c-0.45-0.03-0.96-0.09-1.54-0.18c-0.2-0.03-0.45-0.06-0.76-0.1c-0.31-0.04-0.65-0.07-1.04-0.1
				l-1.66-0.1c-0.29-0.01-0.69-0.03-1.2-0.06c-0.05,0-0.07-0.05-0.06-0.14c0.01-0.09,0.03-0.14,0.08-0.13
				c0.49,0.04,0.86,0.02,1.12-0.05c0.25-0.07,0.44-0.2,0.55-0.41c0.12-0.21,0.19-0.54,0.22-1l0.78-10.68
				c0.03-0.45,0.01-0.78-0.08-1.01s-0.24-0.4-0.47-0.5c-0.23-0.1-0.59-0.17-1.09-0.21c-0.03,0-0.04-0.05-0.04-0.14
				c0.01-0.09,0.03-0.14,0.06-0.14l1.2,0.11c0.67,0.08,1.22,0.14,1.63,0.17c0.43,0.03,0.89,0.04,1.37,0.03c0.17,0,0.38,0,0.61,0
				c0.24,0,0.51,0.01,0.82,0.04c1.37,0.1,2.4,0.44,3.08,1.01c0.68,0.58,0.99,1.34,0.92,2.29c-0.05,0.74-0.34,1.39-0.86,1.94
				c-0.52,0.56-1.23,0.97-2.13,1.25C170.54,55.85,171.52,56.35,172.22,57.11z M170.79,60.2c0.08-1.17-0.15-2.13-0.71-2.88
				c-0.56-0.75-1.42-1.17-2.59-1.26c-0.55-0.04-1.02-0.06-1.39-0.06l-0.41,5.61c-0.03,0.35,0,0.63,0.08,0.84
				c0.08,0.21,0.24,0.37,0.5,0.49c0.25,0.12,0.64,0.2,1.17,0.24C169.52,63.34,170.63,62.34,170.79,60.2z M166.83,49.78
				c-0.19,0.19-0.31,0.59-0.36,1.2l-0.32,4.38l0.97,0.09c0.91,0.07,1.61-0.18,2.12-0.74c0.5-0.56,0.79-1.31,0.86-2.25
				c0.06-0.88-0.09-1.57-0.47-2.08c-0.38-0.51-0.97-0.79-1.77-0.85C167.36,49.51,167.02,49.59,166.83,49.78z"/>
			<path d="M186.04,62.94c0.04,0.01,0.08,0.03,0.12,0.06c0.03,0.03,0.05,0.05,0.04,0.07c-0.39,1.11-0.69,2.15-0.89,3.1
				c-0.03,0.12-0.07,0.2-0.12,0.25c-0.06,0.04-0.15,0.05-0.29,0.02l-9.82-2.08c-0.04-0.01-0.06-0.06-0.04-0.15
				c0.02-0.09,0.05-0.13,0.1-0.12c0.51,0.11,0.89,0.15,1.14,0.12c0.25-0.03,0.44-0.14,0.57-0.34c0.13-0.2,0.24-0.53,0.34-0.98
				l2.22-10.48c0.1-0.45,0.12-0.79,0.09-1.02c-0.04-0.23-0.17-0.41-0.39-0.54c-0.22-0.13-0.58-0.25-1.08-0.36
				c-0.04-0.01-0.06-0.06-0.04-0.15c0.02-0.09,0.05-0.13,0.1-0.12l9.42,2c0.15,0.03,0.21,0.12,0.18,0.25l-0.58,2.95
				c-0.01,0.03-0.05,0.04-0.14,0.04s-0.13-0.03-0.14-0.08c0-1.8-0.86-2.88-2.6-3.25l-0.91-0.19c-0.54-0.12-0.95-0.1-1.22,0.05
				c-0.27,0.15-0.45,0.46-0.55,0.92l-0.98,4.62l2.17,0.46c1.66,0.35,2.61-0.03,2.85-1.15c0.01-0.05,0.06-0.06,0.14-0.04
				s0.12,0.05,0.11,0.09l-0.44,1.96l-0.2,1.07c-0.07,0.49-0.14,0.88-0.21,1.19c-0.01,0.03-0.05,0.04-0.15,0.02
				c-0.09-0.02-0.13-0.04-0.13-0.07c0.28-1.3-0.43-2.13-2.12-2.48l-2.15-0.46l-1.09,5.14c-0.11,0.5-0.08,0.87,0.06,1.1
				c0.15,0.24,0.46,0.41,0.95,0.51l1.11,0.24c2.02,0.43,3.51-0.28,4.47-2.13C185.95,62.94,185.98,62.93,186.04,62.94z"/>
			<path d="M202.44,72.53c-0.03,0.09-0.07,0.12-0.11,0.1c-0.49-0.19-0.88-0.35-1.18-0.48l-1.57-0.63l-1.84-0.68
				c-0.26-0.08-0.61-0.21-1.04-0.38c-0.04-0.02-0.05-0.07-0.01-0.16c0.03-0.09,0.07-0.12,0.11-0.1c0.55,0.21,0.96,0.33,1.23,0.35
				c0.27,0.02,0.49-0.05,0.65-0.22c0.16-0.17,0.33-0.48,0.5-0.92l1.92-4.99l-7.41-2.85l-1.92,4.99c-0.17,0.43-0.25,0.77-0.24,1.01
				c0.01,0.24,0.12,0.45,0.35,0.62c0.22,0.17,0.61,0.36,1.16,0.57c0.03,0.01,0.03,0.06-0.01,0.15c-0.03,0.09-0.06,0.12-0.09,0.11
				c-0.49-0.19-0.87-0.34-1.14-0.46l-1.78-0.71l-1.58-0.58c-0.28-0.09-0.66-0.23-1.15-0.42c-0.03-0.01-0.03-0.06,0.01-0.15
				c0.03-0.09,0.06-0.12,0.09-0.11c0.52,0.2,0.91,0.31,1.19,0.33c0.27,0.02,0.49-0.05,0.66-0.23c0.17-0.18,0.33-0.48,0.5-0.91
				l3.84-10c0.17-0.43,0.24-0.77,0.24-1c-0.01-0.24-0.12-0.44-0.33-0.61c-0.21-0.17-0.57-0.36-1.08-0.55
				c-0.03-0.01-0.03-0.06,0.01-0.15c0.03-0.09,0.06-0.12,0.09-0.11l1.14,0.46c0.65,0.28,1.16,0.5,1.54,0.64
				c0.5,0.19,1.11,0.41,1.81,0.65l1.15,0.42c0.03,0.01,0.03,0.06-0.01,0.15c-0.03,0.09-0.06,0.12-0.09,0.11
				c-0.53-0.21-0.94-0.31-1.23-0.32c-0.29-0.01-0.52,0.07-0.69,0.24c-0.17,0.17-0.34,0.48-0.51,0.91l-1.69,4.41l7.41,2.85l1.69-4.41
				c0.17-0.43,0.25-0.77,0.24-1.01c-0.01-0.24-0.12-0.45-0.34-0.64c-0.22-0.18-0.59-0.38-1.13-0.58c-0.04-0.02-0.05-0.07-0.01-0.15
				c0.03-0.09,0.07-0.12,0.11-0.1l1.03,0.42c0.68,0.29,1.29,0.54,1.82,0.75c0.39,0.15,0.92,0.34,1.59,0.56l1.2,0.44
				c0.04,0.02,0.05,0.07,0.02,0.15c-0.03,0.09-0.07,0.12-0.12,0.1c-0.52-0.2-0.91-0.3-1.18-0.32c-0.27-0.01-0.48,0.07-0.65,0.23
				c-0.16,0.17-0.33,0.47-0.5,0.9l-3.84,10c-0.17,0.43-0.25,0.77-0.24,1.01s0.11,0.44,0.32,0.61c0.21,0.16,0.57,0.34,1.09,0.54
				C202.46,72.4,202.47,72.45,202.44,72.53z"/>
			<path d="M217.23,81.39c-0.05,0.08-0.1,0.1-0.17,0.06c-0.25-0.15-0.65-0.41-1.18-0.77s-0.93-0.62-1.18-0.77
				c-0.33-0.2-0.73-0.42-1.19-0.67c-0.46-0.25-0.82-0.44-1.07-0.59c-0.05-0.03-0.05-0.09-0.01-0.17s0.1-0.1,0.15-0.07
				c0.38,0.23,0.69,0.36,0.92,0.38c0.23,0.02,0.41-0.07,0.52-0.26c0.12-0.2,0.21-0.6,0.27-1.21l0.34-3.96l-4.79-2.89l-2.24,1.57
				c-0.41,0.29-0.71,0.6-0.9,0.91c-0.28,0.46-0.33,0.91-0.14,1.35c0.19,0.44,0.58,0.83,1.17,1.19c0.07,0.04,0.08,0.1,0.03,0.18
				c-0.05,0.08-0.1,0.1-0.17,0.06c-0.24-0.14-0.57-0.36-1.01-0.66c-0.49-0.33-0.91-0.61-1.28-0.83c-0.36-0.21-0.78-0.45-1.27-0.71
				c-0.44-0.23-0.8-0.43-1.07-0.59c-0.07-0.04-0.08-0.1-0.03-0.18s0.11-0.1,0.17-0.06c0.37,0.22,0.72,0.34,1.06,0.34
				s0.74-0.11,1.21-0.34c0.46-0.23,1.08-0.62,1.86-1.16l10.05-7.02c0.05-0.02,0.12-0.01,0.21,0.05c0.09,0.06,0.13,0.11,0.12,0.16
				l-1.05,12.72c-0.11,1.23-0.12,2.11-0.02,2.65c0.1,0.54,0.33,0.91,0.68,1.13C217.27,81.25,217.28,81.31,217.23,81.39z
				 M210.35,70.1l4.34,2.62l0.51-5.99L210.35,70.1z"/>
			<path d="M236.52,79.11c-0.06,0.07-0.11,0.09-0.14,0.06c-0.43-0.35-0.96-0.51-1.58-0.49s-1.3,0.25-2.02,0.68l-10.91,6.23
				c-0.05,0.04-0.14,0.01-0.26-0.09c-0.12-0.1-0.17-0.18-0.14-0.23l3.41-13.39c0.15-0.62,0.2-1.12,0.15-1.49
				c-0.05-0.38-0.22-0.69-0.52-0.93c-0.04-0.03-0.02-0.08,0.03-0.15c0.06-0.07,0.11-0.09,0.14-0.06l0.45,0.4
				c0.24,0.24,0.53,0.5,0.87,0.77c0.83,0.68,1.6,1.29,2.28,1.81c0.2,0.14,0.45,0.34,0.75,0.58c0.04,0.03,0.02,0.08-0.04,0.15
				c-0.06,0.07-0.11,0.09-0.14,0.06c-0.75-0.62-1.34-0.66-1.77-0.14c-0.17,0.2-0.29,0.48-0.38,0.83l-2.51,9.85l8.17-4.64
				c0.34-0.2,0.61-0.41,0.79-0.64c0.27-0.33,0.37-0.68,0.3-1.04c-0.07-0.36-0.33-0.72-0.77-1.08c-0.04-0.03-0.02-0.08,0.03-0.15
				s0.11-0.09,0.14-0.06l0.84,0.72c0.43,0.4,0.84,0.75,1.22,1.06c0.23,0.19,0.52,0.4,0.87,0.65l0.75,0.58
				C236.59,78.99,236.58,79.04,236.52,79.11z"/>
			<path d="M231.42,93.48c-0.1,0.21-0.1,0.42,0.01,0.65c0.11,0.23,0.35,0.53,0.71,0.91c0.03,0.03,0.01,0.08-0.05,0.15
				c-0.07,0.06-0.12,0.08-0.15,0.05c-0.34-0.36-0.61-0.65-0.8-0.87l-1.17-1.25l-1.17-1.19c-0.21-0.2-0.5-0.49-0.85-0.85
				c-0.03-0.03-0.01-0.08,0.05-0.15c0.07-0.06,0.12-0.08,0.15-0.05c0.36,0.38,0.65,0.63,0.88,0.75c0.22,0.12,0.44,0.14,0.67,0.05
				c0.23-0.09,0.51-0.29,0.84-0.61l7.74-7.41c0.33-0.32,0.55-0.59,0.64-0.8c0.09-0.22,0.09-0.44-0.02-0.67
				c-0.1-0.23-0.34-0.54-0.7-0.92c-0.03-0.03-0.01-0.08,0.05-0.15c0.07-0.06,0.12-0.08,0.15-0.05l0.82,0.88
				c0.45,0.51,0.82,0.92,1.12,1.24c0.33,0.35,0.74,0.75,1.23,1.22l0.82,0.82c0.03,0.03,0.01,0.08-0.05,0.15
				c-0.07,0.06-0.12,0.08-0.15,0.05c-0.35-0.37-0.64-0.61-0.88-0.71s-0.46-0.12-0.68-0.02c-0.22,0.09-0.5,0.3-0.83,0.62l-7.7,7.38
				C231.75,93.01,231.52,93.28,231.42,93.48z"/>
			<path d="M236.32,99.18c-0.12-1.3,0.11-2.53,0.67-3.7c0.57-1.17,1.4-2.16,2.5-2.96c1.28-0.94,2.62-1.42,4.01-1.44
				s2.68,0.31,3.89,0.99c1.2,0.68,2.19,1.55,2.96,2.6c0.87,1.18,1.35,2.43,1.45,3.73s-0.13,2.52-0.69,3.67s-1.35,2.09-2.37,2.84
				c-1.13,0.83-2.39,1.29-3.78,1.38c-1.38,0.09-2.72-0.16-4-0.76c-1.28-0.6-2.35-1.49-3.21-2.66
				C236.93,101.71,236.44,100.48,236.32,99.18z M240.76,104.74c0.84,0.3,1.77,0.33,2.81,0.1c1.04-0.23,2.09-0.74,3.18-1.53
				c1.15-0.84,2.03-1.78,2.67-2.82c0.63-1.04,0.95-2.1,0.94-3.18s-0.35-2.09-1.04-3.04c-0.88-1.21-2-1.83-3.35-1.86
				c-1.35-0.03-2.79,0.51-4.33,1.63c-1.18,0.87-2.11,1.84-2.78,2.94c-0.67,1.09-1.03,2.18-1.06,3.27c-0.04,1.09,0.26,2.07,0.9,2.94
				C239.23,103.92,239.92,104.44,240.76,104.74z"/>
			<path d="M250.68,124.69c-0.08,0.04-0.13,0.04-0.16,0l-1.65-3.34c-0.16-0.32,0.1-1.18,0.79-2.59c0.68-1.41,1.71-3.22,3.1-5.44
				c-0.18-0.29-0.31-0.52-0.39-0.68c-0.15-0.3-0.31-0.67-0.49-1.1l-4.63,2.28c-0.43,0.21-0.72,0.4-0.88,0.57
				c-0.16,0.17-0.22,0.38-0.18,0.63s0.17,0.61,0.4,1.08c0.01,0.03-0.02,0.06-0.1,0.1s-0.13,0.05-0.15,0.02
				c-0.22-0.46-0.39-0.81-0.5-1.07l-0.74-1.55l-0.76-1.48c-0.14-0.26-0.33-0.61-0.55-1.07c-0.02-0.04,0.01-0.08,0.09-0.12
				s0.13-0.04,0.16,0c0.23,0.47,0.43,0.8,0.61,0.98s0.38,0.26,0.62,0.25s0.57-0.13,0.99-0.33l9.61-4.73
				c0.42-0.21,0.7-0.39,0.86-0.56c0.16-0.17,0.22-0.39,0.18-0.65s-0.16-0.62-0.39-1.07c-0.01-0.03,0.02-0.06,0.1-0.1
				s0.13-0.05,0.14-0.02l0.51,1.09c0.27,0.62,0.5,1.12,0.68,1.49c0.23,0.46,0.49,0.94,0.8,1.46c0.1,0.17,0.22,0.38,0.36,0.63
				c0.14,0.25,0.29,0.53,0.45,0.85c0.59,1.2,0.82,2.25,0.67,3.14c-0.15,0.89-0.64,1.54-1.49,1.96c-0.76,0.38-1.55,0.5-2.37,0.38
				c-0.82-0.12-1.58-0.45-2.29-0.98c-1.12,1.96-1.96,3.55-2.52,4.78c-0.57,1.22-0.92,2.24-1.05,3.03c-0.13,0.8-0.06,1.48,0.22,2.04
				C250.79,124.61,250.76,124.65,250.68,124.69z M252.96,112.51c0.44,0.9,0.98,1.43,1.62,1.6c0.64,0.17,1.46,0,2.46-0.49
				c1.12-0.55,1.81-1.13,2.06-1.73c0.26-0.6,0.21-1.26-0.15-1.98c-0.27-0.54-0.56-0.87-0.87-1c-0.31-0.13-0.73-0.06-1.26,0.19
				l-4.38,2.16C252.55,111.62,252.72,112.04,252.96,112.51z"/>
			<path d="M263.48,131.52c-0.35,0.39-0.63,0.82-0.84,1.32c-0.21,0.49-0.44,1.14-0.69,1.96c-0.28,0.88-0.54,1.59-0.77,2.12
				c-0.23,0.53-0.55,1.01-0.98,1.45c-0.42,0.43-0.97,0.74-1.64,0.91c-0.76,0.2-1.49,0.17-2.19-0.07c-0.7-0.24-1.31-0.68-1.83-1.32
				c-0.52-0.64-0.9-1.42-1.14-2.35c-0.16-0.63-0.25-1.29-0.25-2c-0.01-0.71,0.06-1.26,0.21-1.67c0.06-0.16,0.18-0.27,0.37-0.33
				l3.37-1.01l0.02-0.01c0.06-0.02,0.1,0.01,0.13,0.09c0.03,0.07,0.01,0.12-0.04,0.15c-1.11,0.81-1.98,1.64-2.61,2.48
				c-0.63,0.84-0.81,1.75-0.56,2.74c0.17,0.64,0.48,1.13,0.94,1.48c0.46,0.34,1.11,0.41,1.93,0.2c0.66-0.17,1.19-0.46,1.61-0.88
				c0.42-0.42,0.74-0.88,0.95-1.39c0.22-0.51,0.47-1.19,0.76-2.05c0.28-0.84,0.53-1.5,0.74-1.98s0.52-0.93,0.92-1.34
				s0.91-0.69,1.54-0.85c0.78-0.2,1.49-0.15,2.14,0.14s1.19,0.75,1.64,1.38c0.44,0.63,0.76,1.32,0.96,2.08
				c0.13,0.51,0.21,1.03,0.25,1.56c0.03,0.53,0.02,0.99-0.04,1.37c-0.03,0.25-0.14,0.4-0.34,0.45L265,137
				c-0.04,0.01-0.09-0.02-0.12-0.1s-0.03-0.13,0.01-0.16c0.83-0.53,1.55-1.15,2.17-1.84c0.61-0.69,0.79-1.54,0.53-2.54
				c-0.17-0.67-0.51-1.16-1-1.45c-0.49-0.29-1.07-0.36-1.74-0.18C264.29,130.87,263.83,131.14,263.48,131.52z"/>
			<path d="M256.75,146.33c-0.21,0.14-0.34,0.38-0.39,0.72c-0.05,0.34-0.03,0.86,0.06,1.57c0.01,0.05-0.04,0.07-0.13,0.09
				s-0.14-0.01-0.15-0.05c-0.08-0.63-0.13-1.12-0.16-1.47l-0.23-2l-0.23-1.65c-0.05-0.29-0.11-0.69-0.17-1.19
				c-0.01-0.05,0.04-0.08,0.13-0.09s0.14,0.01,0.15,0.05c0.07,0.52,0.15,0.89,0.26,1.11s0.27,0.36,0.5,0.42
				c0.22,0.06,0.57,0.06,1.05,0l10.63-1.34c0.46-0.06,0.79-0.14,0.99-0.25c0.2-0.11,0.33-0.29,0.39-0.54
				c0.05-0.25,0.05-0.62-0.01-1.13c-0.01-0.05,0.04-0.07,0.13-0.09s0.14,0,0.15,0.05l0.13,1.2c0.05,0.68,0.11,1.22,0.16,1.64
				c0.04,0.35,0.12,0.78,0.23,1.28c0.04,0.18,0.08,0.43,0.14,0.74c0.05,0.31,0.11,0.68,0.16,1.11c0.19,1.51,0.02,2.75-0.51,3.71
				s-1.46,1.53-2.79,1.69c-0.96,0.12-1.81-0.02-2.55-0.44c-0.74-0.41-1.32-0.98-1.75-1.71c-0.43-0.73-0.7-1.5-0.8-2.31
				c-0.05-0.43-0.06-0.79-0.02-1.09c-0.01-0.05,0.03-0.07,0.11-0.08c0.05-0.01,0.09,0,0.14,0.02s0.07,0.04,0.06,0.07
				c-0.03,0.25-0.03,0.52,0.01,0.82c0.1,0.8,0.51,1.43,1.24,1.9c0.73,0.47,1.7,0.63,2.93,0.47c1.21-0.15,2.11-0.55,2.71-1.2
				c0.59-0.65,0.83-1.47,0.7-2.47c-0.05-0.37-0.12-0.64-0.22-0.82c-0.1-0.18-0.26-0.3-0.48-0.35c-0.22-0.05-0.55-0.05-0.99,0.01
				l-10.49,1.32C257.31,146.08,256.96,146.19,256.75,146.33z"/>
			<path d="M260.37,165.69c0,0.05-0.01,0.09-0.04,0.13s-0.04,0.06-0.06,0.06c-1.17-0.17-2.24-0.27-3.21-0.28
				c-0.12,0-0.21-0.03-0.27-0.07c-0.05-0.05-0.08-0.14-0.08-0.28l0.16-10.04c0-0.05,0.05-0.07,0.14-0.07c0.09,0,0.14,0.03,0.14,0.07
				c-0.01,0.52,0.02,0.91,0.1,1.15c0.07,0.24,0.22,0.41,0.44,0.49c0.22,0.09,0.57,0.14,1.03,0.14l10.71,0.17
				c0.46,0.01,0.8-0.03,1.02-0.11c0.22-0.08,0.37-0.24,0.46-0.49c0.09-0.25,0.14-0.62,0.15-1.13c0-0.05,0.05-0.07,0.14-0.07
				c0.09,0,0.14,0.03,0.14,0.07l-0.16,9.62c0,0.15-0.07,0.23-0.21,0.23l-3.01,0c-0.03,0-0.05-0.04-0.07-0.13s0-0.13,0.05-0.15
				c1.76-0.34,2.66-1.4,2.69-3.17l0.01-0.93c0.01-0.56-0.08-0.95-0.28-1.18c-0.2-0.23-0.53-0.36-1.01-0.36l-4.72-0.08l-0.04,2.22
				c-0.03,1.7,0.53,2.55,1.67,2.57c0.05,0,0.07,0.04,0.07,0.13c0,0.08-0.02,0.13-0.07,0.13l-2.01-0.06l-1.09,0.01
				c-0.49,0.02-0.9,0.03-1.2,0.03c-0.03,0-0.05-0.05-0.04-0.14c0-0.09,0.02-0.14,0.05-0.14c1.33,0.02,2-0.83,2.03-2.56l0.04-2.2
				l-5.25-0.08c-0.51-0.01-0.87,0.08-1.07,0.27c-0.2,0.19-0.31,0.53-0.32,1.03l-0.02,1.13c-0.03,2.07,0.95,3.39,2.94,3.98
				C260.36,165.59,260.38,165.62,260.37,165.69z"/>
			<path d="M268.61,182.81c-0.08,0.11-0.15,0.18-0.21,0.2c-0.06,0.02-0.18,0.03-0.37,0.04l-3.06-0.19
				c-0.05-0.01-0.07-0.05-0.07-0.13c0-0.08,0.03-0.13,0.09-0.15c1.31-0.21,2.35-0.65,3.13-1.33c0.78-0.69,1.25-1.61,1.43-2.77
				c0.17-1.11,0.04-2.15-0.38-3.11c-0.42-0.96-1.12-1.77-2.09-2.42c-0.97-0.65-2.15-1.08-3.54-1.29c-1.37-0.21-2.64-0.14-3.79,0.21
				s-2.1,0.93-2.83,1.74c-0.73,0.81-1.19,1.78-1.36,2.91c-0.17,1.11-0.02,2.08,0.46,2.91s1.31,1.62,2.5,2.38
				c0.04,0.02,0.05,0.07,0.02,0.14c-0.03,0.07-0.06,0.11-0.09,0.1l-2.7-0.72c-0.18-0.04-0.29-0.09-0.33-0.13
				c-0.04-0.04-0.08-0.13-0.12-0.26c-0.35-1.46-0.41-2.96-0.18-4.5c0.25-1.63,0.78-3.04,1.6-4.23c0.81-1.19,1.84-2.05,3.07-2.6
				s2.57-0.71,4.02-0.48c1.43,0.22,2.66,0.79,3.67,1.71c1.01,0.92,1.74,2.08,2.17,3.47c0.43,1.39,0.53,2.89,0.28,4.49
				C269.69,180.52,269.24,181.85,268.61,182.81z"/>
			<path d="M253.62,187.82c-0.23,0.02-0.41,0.13-0.55,0.34c-0.14,0.21-0.28,0.57-0.42,1.07c-0.01,0.04-0.06,0.05-0.15,0.03
				c-0.09-0.03-0.13-0.06-0.12-0.11c0.13-0.47,0.25-0.85,0.34-1.13l0.49-1.64l0.43-1.61c0.06-0.29,0.17-0.67,0.31-1.16
				c0.01-0.04,0.06-0.05,0.15-0.03c0.09,0.02,0.13,0.06,0.11,0.1c-0.14,0.5-0.21,0.88-0.2,1.13c0.01,0.25,0.11,0.45,0.3,0.6
				c0.19,0.15,0.51,0.29,0.95,0.41l10.31,2.92c0.45,0.13,0.78,0.17,1.02,0.14s0.42-0.15,0.57-0.36c0.15-0.21,0.29-0.56,0.44-1.07
				c0.01-0.04,0.06-0.05,0.15-0.03s0.13,0.06,0.11,0.1l-0.35,1.15c-0.21,0.64-0.38,1.17-0.5,1.59c-0.13,0.46-0.27,1.02-0.43,1.68
				l-0.29,1.12c-0.01,0.04-0.06,0.05-0.15,0.03c-0.09-0.03-0.13-0.06-0.11-0.1c0.14-0.49,0.2-0.86,0.17-1.12
				c-0.02-0.25-0.13-0.45-0.32-0.6c-0.19-0.14-0.51-0.28-0.96-0.4L254.65,188C254.19,187.86,253.85,187.81,253.62,187.82z"/>
			<path d="M245.93,205.65c-0.08-0.04-0.11-0.09-0.08-0.16c0.12-0.27,0.31-0.7,0.6-1.28c0.28-0.58,0.48-1.01,0.6-1.28
				c0.15-0.35,0.32-0.78,0.49-1.27c0.18-0.5,0.32-0.88,0.44-1.15c0.02-0.06,0.08-0.07,0.16-0.03s0.12,0.08,0.09,0.14
				c-0.18,0.41-0.26,0.73-0.25,0.96c0.01,0.23,0.12,0.39,0.33,0.48s0.63,0.12,1.24,0.1l3.97-0.22l2.2-5.15l-1.86-2
				c-0.35-0.37-0.69-0.62-1.03-0.77c-0.5-0.21-0.95-0.2-1.36,0.05c-0.41,0.25-0.75,0.69-1.02,1.33c-0.03,0.07-0.09,0.09-0.17,0.05
				s-0.11-0.09-0.08-0.16c0.11-0.26,0.28-0.62,0.52-1.09c0.26-0.53,0.47-0.99,0.64-1.39c0.16-0.38,0.34-0.84,0.53-1.36
				c0.17-0.47,0.31-0.85,0.44-1.15c0.03-0.07,0.09-0.09,0.17-0.05s0.11,0.09,0.08,0.16c-0.17,0.4-0.23,0.76-0.19,1.1
				s0.21,0.72,0.5,1.15c0.29,0.43,0.76,0.99,1.41,1.68l8.34,8.97c0.03,0.05,0.03,0.12-0.02,0.22c-0.04,0.1-0.09,0.15-0.14,0.14
				l-12.74,0.72c-1.23,0.06-2.11,0.18-2.63,0.35c-0.52,0.17-0.86,0.45-1.02,0.83C246.07,205.67,246.02,205.69,245.93,205.65z
				 M256.15,197.26l-1.99,4.66l6-0.33L256.15,197.26z"/>
			<path d="M244.88,210.51c-0.35-0.22-0.63-0.35-0.82-0.39c-0.19-0.04-0.37,0.01-0.53,0.15c-0.16,0.14-0.35,0.4-0.59,0.78
				l-0.73,1.18c-0.58,0.93-0.8,1.88-0.68,2.84c0.12,0.96,0.56,1.82,1.3,2.58c0.03,0.04,0.02,0.09-0.02,0.15
				c-0.05,0.06-0.09,0.08-0.13,0.06c-1.16-0.88-2.15-1.57-2.96-2.08c-0.11-0.07-0.17-0.13-0.19-0.2c-0.02-0.07,0-0.16,0.08-0.28
				l5.7-9.21c0.02-0.03,0.06-0.01,0.14,0.03c0.08,0.05,0.11,0.09,0.09,0.11c-0.28,0.45-0.44,0.79-0.5,1.04
				c-0.06,0.24-0.02,0.46,0.13,0.65c0.14,0.19,0.42,0.41,0.81,0.65l9.11,5.64c0.39,0.24,0.7,0.39,0.93,0.43
				c0.23,0.04,0.44-0.02,0.65-0.19c0.2-0.17,0.44-0.46,0.71-0.9c0.02-0.03,0.06-0.01,0.14,0.03c0.08,0.05,0.11,0.09,0.09,0.11
				l-0.64,0.99c-0.38,0.56-0.69,1.02-0.92,1.39c-0.24,0.39-0.53,0.89-0.86,1.48l-0.59,1c-0.02,0.04-0.08,0.04-0.15-0.01
				s-0.11-0.09-0.08-0.13c0.27-0.43,0.43-0.77,0.48-1.02c0.05-0.25,0.01-0.47-0.14-0.66s-0.42-0.41-0.81-0.65L244.88,210.51z"/>
			<path d="M236.4,220.76c-0.22-0.07-0.43-0.04-0.64,0.1c-0.21,0.14-0.47,0.42-0.79,0.83c-0.03,0.04-0.08,0.03-0.15-0.03
				c-0.07-0.06-0.1-0.1-0.07-0.14c0.3-0.39,0.55-0.7,0.74-0.92l1.07-1.34l1-1.33c0.17-0.24,0.41-0.56,0.72-0.96
				c0.03-0.04,0.08-0.03,0.15,0.03s0.1,0.1,0.07,0.14c-0.32,0.41-0.53,0.74-0.61,0.98s-0.07,0.46,0.05,0.67
				c0.12,0.21,0.36,0.46,0.73,0.74l8.46,6.58c0.37,0.28,0.66,0.46,0.89,0.52c0.23,0.06,0.45,0.02,0.66-0.12s0.48-0.41,0.8-0.83
				c0.03-0.04,0.08-0.03,0.15,0.03c0.07,0.06,0.1,0.1,0.07,0.14l-0.76,0.94c-0.44,0.52-0.79,0.95-1.06,1.29
				c-0.29,0.38-0.64,0.84-1.03,1.4l-0.69,0.93c-0.03,0.04-0.08,0.03-0.15-0.03c-0.07-0.06-0.1-0.1-0.07-0.14
				c0.31-0.4,0.5-0.73,0.58-0.97c0.07-0.25,0.05-0.47-0.08-0.67c-0.12-0.21-0.37-0.45-0.74-0.73l-8.42-6.55
				C236.92,221.01,236.62,220.83,236.4,220.76z"/>
			<path d="M238.68,232.91c-0.51-0.1-1.04-0.11-1.56-0.02c-0.53,0.08-1.2,0.23-2.03,0.45c-0.9,0.23-1.64,0.38-2.21,0.46
				c-0.57,0.08-1.15,0.06-1.75-0.07s-1.14-0.43-1.64-0.91c-0.57-0.54-0.93-1.18-1.1-1.9c-0.16-0.72-0.11-1.47,0.16-2.25
				s0.73-1.52,1.39-2.21c0.45-0.47,0.97-0.89,1.57-1.27c0.6-0.38,1.11-0.61,1.53-0.7c0.16-0.04,0.32,0.01,0.48,0.14l2.64,2.33
				l0.02,0.02c0.04,0.04,0.04,0.09,0,0.16c-0.05,0.06-0.1,0.08-0.15,0.04c-1.28-0.52-2.44-0.82-3.48-0.92
				c-1.04-0.09-1.92,0.23-2.62,0.96c-0.46,0.48-0.71,1-0.76,1.58c-0.05,0.57,0.23,1.15,0.85,1.74c0.49,0.47,1.02,0.77,1.6,0.91
				c0.58,0.13,1.14,0.16,1.69,0.08c0.55-0.08,1.26-0.23,2.14-0.43c0.86-0.2,1.55-0.34,2.08-0.41s1.07-0.04,1.62,0.08
				c0.55,0.12,1.06,0.41,1.53,0.86c0.58,0.55,0.92,1.19,1.01,1.89s-0.01,1.41-0.31,2.12c-0.3,0.7-0.72,1.34-1.27,1.91
				c-0.36,0.38-0.76,0.72-1.2,1.03c-0.44,0.31-0.83,0.54-1.19,0.69c-0.23,0.1-0.41,0.08-0.56-0.05l-2.32-2.13
				c-0.03-0.03-0.03-0.08,0.02-0.16c0.05-0.07,0.09-0.1,0.14-0.08c0.89,0.43,1.79,0.72,2.7,0.87s1.72-0.14,2.44-0.89
				c0.48-0.5,0.72-1.04,0.71-1.61c-0.01-0.57-0.26-1.1-0.76-1.58C239.66,233.25,239.19,233.01,238.68,232.91z"/>
			<path d="M232.08,243.05c0.12-0.83-0.06-1.81-0.53-2.93c-0.02-0.02,0-0.06,0.07-0.12s0.11-0.06,0.14-0.02
				c0.33,0.51,0.75,1.16,1.28,1.95c0.53,0.79,0.94,1.37,1.24,1.75c0.05,0.06,0.04,0.12-0.03,0.17s-0.12,0.05-0.17-0.01
				c-0.21-0.27-0.65-0.13-1.33,0.41c-1.07,0.79-2.3,1.73-3.69,2.83c-0.71,0.56-1.46,1.18-2.24,1.83l-1.22,1
				c-0.46,0.36-0.77,0.66-0.93,0.89c-0.16,0.23-0.2,0.46-0.12,0.69c0.03,0.06,0.01,0.11-0.05,0.16s-0.11,0.05-0.15,0
				c-0.26-0.4-0.67-1-1.24-1.79s-1.04-1.42-1.41-1.89c-0.03-0.04-0.01-0.08,0.06-0.13s0.12-0.07,0.16-0.04
				c0.86,0.83,1.69,1.3,2.48,1.38s1.58-0.17,2.34-0.78c0.34-0.27,0.57-0.5,0.68-0.69c0.12-0.19,0.14-0.38,0.08-0.58
				s-0.23-0.46-0.49-0.78l-6.62-8.36c-0.3-0.38-0.55-0.62-0.76-0.73c-0.21-0.11-0.44-0.11-0.71,0c-0.27,0.11-0.63,0.35-1.11,0.73
				c-0.04,0.03-0.08,0.01-0.14-0.07c-0.06-0.07-0.07-0.12-0.03-0.15c0.42-0.34,0.76-0.59,1.01-0.77l1.5-1.16l1.4-1.14
				c0.24-0.21,0.59-0.5,1.04-0.85c0.02-0.02,0.06,0.01,0.12,0.08c0.06,0.07,0.07,0.12,0.05,0.14c-0.47,0.37-0.79,0.68-0.97,0.92
				c-0.18,0.24-0.23,0.48-0.17,0.71s0.23,0.54,0.52,0.9l6.65,8.4c0.25,0.31,0.46,0.52,0.64,0.62c0.18,0.1,0.37,0.11,0.57,0.05
				c0.21-0.06,0.47-0.22,0.8-0.48C231.53,244.59,231.96,243.88,232.08,243.05z"/>
		</g>
		<g>
			<path d="M129.6,268.77c0.02,0.29,0.15,0.52,0.41,0.7c0.26,0.18,0.71,0.36,1.33,0.54c0.06,0.02,0.07,0.08,0.03,0.19
				c-0.03,0.11-0.08,0.16-0.13,0.14c-0.59-0.18-1.06-0.32-1.41-0.45l-2.05-0.63l-2.01-0.56c-0.36-0.08-0.84-0.22-1.45-0.4
				c-0.06-0.02-0.07-0.08-0.03-0.19c0.03-0.11,0.08-0.16,0.13-0.14c0.63,0.19,1.1,0.28,1.42,0.27c0.31-0.01,0.57-0.13,0.76-0.37
				c0.19-0.24,0.37-0.63,0.53-1.19l3.8-12.88c0.16-0.56,0.23-0.98,0.19-1.27c-0.03-0.29-0.18-0.53-0.44-0.72
				c-0.26-0.19-0.7-0.37-1.33-0.56c-0.06-0.02-0.07-0.08-0.03-0.19c0.03-0.11,0.08-0.16,0.13-0.14l1.44,0.46
				c0.8,0.28,1.47,0.49,1.99,0.65c0.57,0.17,1.27,0.36,2.1,0.56l1.4,0.38c0.06,0.02,0.07,0.08,0.03,0.19
				c-0.03,0.11-0.08,0.16-0.13,0.14c-0.61-0.18-1.08-0.26-1.4-0.23c-0.32,0.03-0.57,0.16-0.75,0.4c-0.18,0.24-0.35,0.64-0.52,1.19
				l-3.79,12.82C129.66,268.05,129.58,268.48,129.6,268.77z"/>
			<path d="M143.71,272.87c-0.29-0.05-0.65-0.12-1.09-0.19s-0.94-0.14-1.49-0.21l-2.05-0.21c-0.37-0.02-0.88-0.07-1.53-0.15
				c-0.04-0.01-0.05-0.06-0.04-0.18s0.04-0.17,0.08-0.17c0.65,0.08,1.13,0.08,1.44,0.02c0.31-0.06,0.54-0.22,0.69-0.49
				c0.15-0.26,0.25-0.68,0.32-1.26l1.57-13.34c0.07-0.58,0.06-1-0.01-1.29c-0.07-0.28-0.26-0.49-0.55-0.63
				c-0.29-0.14-0.76-0.25-1.39-0.32c-0.04-0.01-0.05-0.06-0.04-0.18s0.04-0.17,0.08-0.17l1.52,0.21c0.84,0.14,1.51,0.24,2.01,0.29
				c0.77,0.09,1.55,0.15,2.34,0.19c0.96,0.08,1.61,0.13,1.94,0.17c1.96,0.23,3.65,0.82,5.08,1.76c1.43,0.95,2.48,2.13,3.16,3.55
				c0.68,1.42,0.92,2.96,0.73,4.61c-0.22,1.86-0.84,3.46-1.88,4.79c-1.03,1.33-2.32,2.3-3.87,2.9c-1.55,0.61-3.2,0.81-4.95,0.6
				C145.18,273.13,144.49,273.02,143.71,272.87z M149.19,272.06c1.1-0.51,2.01-1.36,2.73-2.53c0.72-1.17,1.18-2.62,1.39-4.35
				c0.19-1.65,0.1-3.18-0.29-4.57s-1.04-2.55-1.95-3.44s-2.02-1.42-3.35-1.58c-0.81-0.09-1.44-0.12-1.89-0.08
				c-0.45,0.04-0.79,0.18-1.03,0.42c-0.23,0.24-0.38,0.62-0.44,1.16l-1.52,12.96c-0.09,0.79,0.04,1.37,0.41,1.76
				c0.36,0.38,1.13,0.64,2.3,0.78C146.88,272.75,148.09,272.57,149.19,272.06z"/>
			<path d="M174.7,264.55c1.02,0.81,1.58,1.87,1.7,3.17c0.08,1-0.11,1.94-0.59,2.8s-1.19,1.58-2.12,2.13
				c-0.93,0.55-2,0.88-3.19,0.98c-0.56,0.05-1.21,0.07-1.94,0.08c-0.25,0-0.57,0.01-0.96,0.02c-0.39,0.01-0.82,0.04-1.3,0.08
				l-2.08,0.21c-0.36,0.05-0.86,0.1-1.5,0.16c-0.06,0-0.09-0.05-0.1-0.17c-0.01-0.12,0.01-0.18,0.07-0.18
				c0.62-0.05,1.07-0.14,1.37-0.28c0.3-0.13,0.5-0.34,0.6-0.62c0.1-0.28,0.13-0.71,0.08-1.29l-1.13-13.38
				c-0.05-0.56-0.15-0.97-0.29-1.24c-0.15-0.27-0.38-0.44-0.68-0.52s-0.77-0.1-1.39-0.04c-0.04,0-0.06-0.05-0.07-0.17
				c-0.01-0.12,0-0.18,0.04-0.18l1.5-0.1c0.85-0.03,1.54-0.07,2.06-0.12c0.54-0.05,1.1-0.12,1.7-0.23c0.21-0.04,0.46-0.08,0.76-0.12
				c0.3-0.04,0.64-0.08,1.02-0.12c1.71-0.15,3.05,0.07,4.01,0.65c0.96,0.58,1.49,1.46,1.59,2.66c0.08,0.92-0.15,1.78-0.68,2.57
				c-0.53,0.79-1.33,1.45-2.39,1.96C172.37,263.32,173.68,263.74,174.7,264.55z M166.58,256.53c-0.2,0.27-0.27,0.79-0.2,1.56
				l0.46,5.49l1.22-0.07c1.14-0.1,1.96-0.54,2.48-1.33c0.51-0.79,0.72-1.77,0.62-2.95c-0.09-1.1-0.42-1.92-1-2.48
				c-0.57-0.55-1.36-0.79-2.36-0.7C167.19,256.1,166.78,256.26,166.58,256.53z M173.53,268.66c-0.12-1.46-0.6-2.61-1.44-3.43
				c-0.84-0.82-1.99-1.17-3.45-1.05c-0.69,0.06-1.27,0.13-1.73,0.21l0.6,7.02c0.04,0.44,0.12,0.79,0.26,1.03
				c0.14,0.24,0.37,0.41,0.71,0.51c0.34,0.1,0.83,0.12,1.49,0.06C172.57,272.79,173.76,271.34,173.53,268.66z"/>
			<path d="M184.35,257.93c0.49,0.44,1.04,0.79,1.66,1.04c0.62,0.26,1.44,0.54,2.46,0.84c1.11,0.34,2,0.65,2.67,0.94
				c0.67,0.28,1.27,0.68,1.82,1.21s0.94,1.21,1.16,2.04c0.25,0.95,0.24,1.87-0.06,2.75c-0.29,0.88-0.84,1.65-1.63,2.31
				c-0.79,0.66-1.77,1.15-2.93,1.46c-0.79,0.21-1.62,0.32-2.51,0.34c-0.89,0.02-1.58-0.06-2.09-0.25c-0.2-0.07-0.34-0.22-0.42-0.46
				l-1.31-4.21l-0.01-0.03c-0.02-0.07,0.01-0.13,0.11-0.16c0.09-0.04,0.16-0.02,0.19,0.05c1.03,1.38,2.08,2.46,3.14,3.24
				c1.06,0.78,2.2,1,3.44,0.67c0.8-0.21,1.42-0.62,1.84-1.2s0.5-1.39,0.22-2.42c-0.22-0.82-0.59-1.49-1.12-2.01
				c-0.53-0.52-1.12-0.91-1.76-1.18s-1.5-0.58-2.58-0.93c-1.05-0.34-1.88-0.64-2.5-0.91c-0.61-0.27-1.17-0.65-1.69-1.14
				c-0.51-0.49-0.87-1.13-1.08-1.92c-0.26-0.97-0.21-1.87,0.15-2.68c0.36-0.82,0.93-1.51,1.71-2.06c0.78-0.56,1.65-0.97,2.6-1.22
				c0.63-0.17,1.29-0.28,1.95-0.33c0.67-0.05,1.24-0.04,1.72,0.04c0.31,0.04,0.5,0.18,0.56,0.42l1.11,3.79
				c0.02,0.05-0.03,0.11-0.12,0.15c-0.1,0.05-0.16,0.04-0.2-0.01c-0.68-1.04-1.46-1.94-2.33-2.7c-0.87-0.76-1.94-0.97-3.19-0.63
				c-0.84,0.22-1.44,0.65-1.81,1.27c-0.36,0.62-0.43,1.35-0.21,2.19C183.53,256.93,183.87,257.49,184.35,257.93z"/>
		</g>
		<g id="XMLID_00000183235933897982638020000000809924374813018801_">
			<g id="XMLID_00000143586092296900345220000000643609537346545323_">
				<g id="XMLID_00000095308449185496405350000000863118343206110624_">
					<path d="M137.5,172.61c-0.12-0.27-0.15-0.58-0.06-0.88c0.93-3.17,4.07-5.18,7.3-4.67c3.96,0.63,12.73,3.36,14.68,3.98
						c0.97-0.29,1.95-0.5,2.94-0.64c3.12-0.44,8-0.32,13.56,2.69c1.76,0.96,3.38,2.13,4.82,3.5c2.61,2.46,4.46,5.75,5.34,9.49
						c0.24,1,0.52,2.01,0.85,3.01l3.76,8.27c0.29,0.63,0.01,1.38-0.63,1.67c-0.63,0.29-1.38,0.01-1.67-0.63l-3.79-8.33
						c-0.02-0.04-0.03-0.08-0.05-0.12c-0.36-1.09-0.68-2.2-0.94-3.29c-0.77-3.26-2.37-6.11-4.62-8.24
						c-1.28-1.22-2.72-2.27-4.28-3.12c-4.96-2.68-9.27-2.79-12.01-2.4c-0.98,0.14-1.96,0.36-2.92,0.67c-0.25,0.08-0.52,0.08-0.76,0
						c-0.1-0.03-10.5-3.34-14.69-4.01c-1.63-0.26-3.23,0.54-4.06,1.92l11.57,5.71c0.06,0.03,0.13,0.07,0.18,0.11l6.13,4.46
						c0.56,0.41,0.69,1.2,0.28,1.76c-0.41,0.56-1.2,0.69-1.76,0.28l-6.04-4.4l-12.55-6.2C137.82,173.09,137.61,172.87,137.5,172.61z
						"/>
					<path d="M130.68,172.13c-0.01-0.03-0.03-0.07-0.04-0.1l-6.55-18.43c-0.2-0.48-0.17-0.99,0.08-1.41
						c0.47-0.82,1.5-0.92,1.84-0.95c1.53-0.15,3.11,0.31,4.45,1.28c1.38,1.02,2.1,3.03,2.8,4.97c0.24,0.68,0.48,1.32,0.72,1.89
						l4.67,8.11c1.61,2.11,1.01,2.54,0.41,2.89c-0.6,0.35-0.32,2.29-2.59-1.63l-4.71-8.17c-0.02-0.04-0.04-0.08-0.06-0.12
						c-0.29-0.66-0.56-1.4-0.82-2.12c-0.54-1.51-1.16-3.22-1.91-3.78c-0.66-0.48-1.41-0.76-2.15-0.81l6.18,17.39
						c0.54,1.17,2.19,3.97,6.91,10.64c1.09,1.53,2.6,2.67,4.36,3.28l19.48,6.89c2.31,0.57,4.42,1.98,6.44,4.31
						c0.08,0.09,0.15,0.19,0.2,0.3l2.57,5.64c0.29,0.63,0.01,1.38-0.63,1.67c-0.63,0.29-1.38,0.01-1.67-0.63l-2.49-5.47
						c-1.65-1.86-3.31-2.97-5.07-3.39c-0.04-0.01-0.09-0.02-0.13-0.04l-19.53-6.91c-2.25-0.79-4.18-2.24-5.58-4.2
						C133.92,177.67,131.51,173.93,130.68,172.13z M126.42,152.61C126.42,152.61,126.42,152.61,126.42,152.61
						C126.42,152.61,126.42,152.61,126.42,152.61z"/>
					<path d="M128.75,153.4l-1.19-2.62c-0.33-0.73-0.29-1.57,0.11-2.26c0.4-0.69,1.12-1.15,1.92-1.22c0.11-0.01,0.21-0.02,0.33-0.02
						c1.36-0.06,2.74,0.47,3.8,1.44c0.17,0.15,0.33,0.31,0.49,0.47c0.59,0.57,1.06,1.25,1.4,1.99c0.5,1.11,1.04,2.34,1.57,3.57
						c0.66,1.5,1.31,3.01,1.89,4.28l2.6,4.52c0.35,0.6,0.14,1.38-0.46,1.72c-0.6,0.35-1.38,0.14-1.72-0.46l-2.63-4.57
						c-0.02-0.03-0.04-0.07-0.05-0.11c-0.59-1.3-1.26-2.83-1.93-4.37c-0.54-1.22-1.07-2.45-1.56-3.55c-0.24-0.47-0.49-0.86-0.85-1.2
						c-0.15-0.14-0.31-0.29-0.46-0.44c-0.56-0.52-1.28-0.8-1.97-0.77c-0.05,0-0.09,0.01-0.14,0.01l1.94,4.25
						c0.29,0.63-0.77-0.33-1.41-0.04C129.78,154.31,129.04,154.03,128.75,153.4z"/>
					<path d="M134.86,150.53c0.11-0.1,1.53-1.36,3.12-0.97c2.31,0.57,4.39,3.45,6.34,8.81l2.84,3.83c0.41,0.56,0.3,1.35-0.26,1.77
						c-0.56,0.42-1.35,0.3-1.77-0.26l-2.95-3.98c-0.07-0.1-0.13-0.21-0.17-0.32c-2.24-6.21-4.06-7.23-4.57-7.37
						c-1.06-0.31-1.48,0.55-1.52,0.58l-0.81-1.38L134.86,150.53z"/>
				</g>
				<path d="M141.18,153.88c-0.08-0.17-0.12-0.37-0.11-0.57c0.03-0.69-0.87-1.35-0.18-1.33c0.14,0,4.91,0.28,7.43,3.32
					c0.04,0.05,0.08,0.1,0.11,0.15l3.34,5.55l5.33,4.8c0.52,0.47,0.56,1.27,0.09,1.78c-0.47,0.52-1.26,0.56-1.78,0.09l-5.47-4.92
					c-0.09-0.08-0.17-0.18-0.24-0.29l-3.39-5.62c-1.76-2.08-3.95-2.21-4.05-2.22C141.79,154.6,141.37,154.3,141.18,153.88z"/>
			</g>
		</g>
		<g>
			<polygon points="162.17,217.95 166.97,218.76 163.41,222.08 164.13,226.89 159.87,224.54 155.52,226.71 156.44,221.93 
				153.03,218.46 157.86,217.86 160.11,213.54 			"/>
			<polygon points="179.1,214.51 183.12,213.57 181.42,217.34 183.57,220.87 179.46,220.43 176.76,223.56 175.92,219.51 
				172.1,217.91 175.69,215.86 176.03,211.74 			"/>
			<polygon points="140.9,214.51 136.88,213.57 138.58,217.34 136.43,220.87 140.54,220.43 143.24,223.56 144.08,219.51 
				147.9,217.91 144.31,215.86 143.97,211.74 			"/>
		</g>
		<g>
			<path d="M148.66,120.03c0.11,0.03,0.23,0.06,0.34,0.09c1.6,0.72,2.98,1.86,3.99,3.3l5.21,7.45c0.68,0.98,1.11,2.11,1.23,3.29
				l0.02,0.17l0.17,4.92c-0.01,0.86,0.14,2.44,1.17,3.97c1.05,1.55,2.5,2.29,3.47,2.64l1.11,0.3c0.95,0.16,3.5,0.31,4.87-2.18
				c0.32-0.58,1.04-0.79,1.62-0.47c0.58,0.32,0.79,1.04,0.47,1.62c-1.45,2.64-3.86,3.43-5.81,3.49c0.5,0.91,1.17,1.99,2.05,3.12
				c0.5,0.55,1.07,1.09,1.74,1.59c2.02,1.5,3.91,2.03,5.3,2.25c1.01-0.22,6-1.64,5.54-7.52c-0.05-0.66,0.44-1.23,1.09-1.28
				c0.66-0.05,1.23,0.44,1.28,1.09c0.42,5.43-2.81,8.27-5.62,9.46l2.05,2c0.36,0.3,1.52,1.1,3.11,0.94c1.87-0.19,2.9-1.59,3.08-1.86
				c0.03-0.04,0.06-0.08,0.09-0.12c0.27-0.31,0.5-0.66,0.68-1.03l0.24-0.49c2.29-4.74,3-10.08,2.05-15.25l-1.42-7.67
				c-0.55-2.96-2.03-5.67-4.22-7.73l-16.62-15.59c-3.67-3.44-7.94-5.99-12.71-7.59c-2.6-0.87-5.55-1.9-8.97-3.09l-0.03-0.01
				c-1.79-0.62-4.72-0.62-6.5,0.04c-7.41,2.75-14.17,6.83-20,11.95c-1.7,1.49-0.92,4.29,1.29,4.72l1.47,0.29L148.66,120.03z"/>
		</g>
		<circle cx="188.7" cy="196" r="1.27"/>
	</g>
</g>
<g id="typed">
</g>
</svg>
