<?xml version="1.0" encoding="UTF-8"?>
<svg id="Layer_1" data-name="Layer 1" xmlns="http://www.w3.org/2000/svg" viewBox="0 0 320 320">
  <defs>
    <style>
      .cls-1 {
        fill: #000;
        stroke-width: 0px;
      }

      .cls-2 {
        fill: none;
        stroke: #010101;
        stroke-linecap: round;
        stroke-linejoin: round;
        stroke-width: 3px;
      }
    </style>
  </defs>
  <g>
    <g>
      <path class="cls-1" d="M314.17,156.62l-12.79-9.7,10.91-11.77c.79-.85,1.13-2,.93-3.14-.2-1.14-.91-2.1-1.94-2.63l-14.29-7.33,8.71-13.49c.63-.98.76-2.16.37-3.26-.4-1.09-1.26-1.91-2.37-2.26l-15.34-4.74,6.23-14.8c.45-1.07.37-2.26-.21-3.27-.58-1-1.58-1.66-2.73-1.81l-15.93-2.01,3.56-15.65c.25-1.1-.01-2.23-.71-3.11-.7-.88-1.75-1.39-2.87-1.39l-16.22.79.79-16.04c.05-1.02-.31-1.98-1.01-2.72-.88-.93-2.23-1.34-3.48-1.05l-15.65,3.56-2-15.93c-.23-1.84-1.81-3.22-3.66-3.22-.49,0-.97.1-1.43.29l-14.79,6.23-4.74-15.34c-.48-1.55-1.89-2.6-3.52-2.6-.7,0-1.39.2-1.99.59l-13.49,8.7-7.33-14.28c-.63-1.24-1.89-2-3.28-2-.93,0-1.82.35-2.5.98l-11.78,10.91-9.7-12.79c-.7-.93-1.77-1.46-2.93-1.46s-2.23.53-2.93,1.46l-9.7,12.79-11.77-10.91c-.68-.63-1.57-.98-2.5-.98-1.39,0-2.65.77-3.28,2l-7.33,14.28-13.49-8.7c-.6-.39-1.29-.59-1.99-.59-1.63,0-3.04,1.04-3.52,2.6l-4.74,15.33-14.8-6.22c-.46-.19-.94-.29-1.43-.29-1.85,0-3.42,1.39-3.65,3.22l-2.01,15.93-15.65-3.56c-1.25-.28-2.6.12-3.49,1.05-.7.74-1.06,1.7-1.01,2.72l.79,16.03-16.04-.79h-.19c-1.12,0-2.17.5-2.88,1.38-.7.88-.96,2.01-.71,3.11l3.56,15.65-15.93,2.01c-1.15.14-2.15.8-2.73,1.81-.58,1.01-.66,2.2-.2,3.27l6.23,14.8-15.34,4.74c-1.11.34-1.98,1.16-2.38,2.26-.4,1.09-.26,2.28.37,3.25l8.7,13.49-14.28,7.33c-1.03.53-1.74,1.49-1.94,2.63-.2,1.15.13,2.29.93,3.14l10.91,11.77L-.25,156.62c-.93.7-1.46,1.77-1.46,2.93,0,1.16.53,2.23,1.46,2.93l12.79,9.7-10.91,11.77c-.79.86-1.12,2-.92,3.15.2,1.14.91,2.1,1.94,2.63l14.28,7.33-8.7,13.5c-.63.97-.77,2.16-.37,3.25.4,1.09,1.26,1.91,2.38,2.26l15.34,4.74-6.23,14.79c-.45,1.07-.38,2.26.2,3.27.58,1.01,1.57,1.67,2.73,1.81l15.93,2.01-3.56,15.65c-.25,1.1,0,2.24.71,3.12.7.88,1.75,1.39,2.87,1.39l16.22-.79-.79,16.03c-.05,1.02.31,1.98,1.01,2.72.88.93,2.22,1.34,3.49,1.05l15.65-3.56,2.01,15.93c.23,1.84,1.8,3.22,3.65,3.22.49,0,.97-.1,1.43-.29l14.79-6.23,4.74,15.34c.48,1.55,1.89,2.6,3.52,2.6.71,0,1.4-.21,1.99-.59l13.49-8.7,7.33,14.28c.63,1.23,1.89,2,3.28,2,.93,0,1.81-.35,2.5-.99l11.77-10.91,9.7,12.79c.7.93,1.77,1.46,2.93,1.46s2.23-.53,2.93-1.46l9.7-12.79,11.77,10.91c.68.63,1.57.99,2.5.99,1.39,0,2.65-.77,3.28-2l7.33-14.28,13.49,8.7c.6.38,1.29.59,1.99.59,1.63,0,3.04-1.04,3.52-2.6l4.74-15.34,14.8,6.23c.46.19.94.29,1.43.29,1.85,0,3.42-1.38,3.66-3.22l2-15.93,15.65,3.56c1.25.29,2.6-.12,3.48-1.05.7-.74,1.06-1.7,1.01-2.72l-.79-16.03,16.03.79h.19c1.12,0,2.17-.5,2.87-1.38.7-.88.96-2.02.71-3.12l-3.56-15.65,15.93-2.01c1.15-.14,2.15-.8,2.73-1.81.58-1,.66-2.2.21-3.27l-6.23-14.79,15.34-4.74c1.11-.35,1.97-1.17,2.37-2.26.39-1.09.27-2.28-.37-3.25l-8.71-13.5,14.29-7.33c1.03-.53,1.74-1.49,1.94-2.63.2-1.15-.13-2.29-.93-3.15l-10.91-11.77,12.79-9.7c.93-.7,1.46-1.77,1.46-2.93s-.53-2.23-1.46-2.93ZM312.64,160.46l-15.03,11.4,12.82,13.83c.25.27.35.62.29.98-.06.35-.28.65-.61.81l-16.78,8.62,10.22,15.85c.2.3.24.67.12,1.01-.13.34-.4.59-.74.7l-18.02,5.57,7.32,17.38c.14.33.12.7-.06,1.01-.18.31-.49.52-.84.56l-18.71,2.36,4.19,18.38c.11.47-.09.81-.22.97-.22.27-.54.43-.94.43h0l-18.84-.93.93,18.83c.02.32-.09.62-.31.84-.27.29-.69.42-1.08.33l-18.39-4.19-2.36,18.71c-.11.85-.96,1.17-1.57.91l-17.38-7.31-5.57,18.02c-.26.85-1.16.98-1.71.62l-15.85-10.22-8.62,16.78c-.23.45-.68.62-1.02.62-.2,0-.5-.05-.77-.3l-13.83-12.82-11.4,15.03c-.44.58-1.38.58-1.82,0l-11.4-15.03-13.83,12.82c-.27.25-.57.3-.77.3-.34,0-.78-.16-1.02-.62l-8.62-16.78-15.85,10.22c-.55.36-1.45.22-1.71-.62l-5.57-18.02-17.38,7.31c-.61.26-1.47-.06-1.57-.91l-2.36-18.71-18.39,4.19c-.4.09-.81-.04-1.08-.33-.22-.23-.33-.53-.31-.84l.93-18.83-18.9.93c-.35,0-.67-.15-.89-.43-.13-.16-.33-.5-.22-.97l4.18-18.39-18.71-2.36c-.36-.04-.67-.25-.85-.56-.18-.31-.2-.68-.06-1.01l7.31-17.38-18.02-5.57c-.34-.11-.61-.36-.73-.7-.12-.33-.08-.7.12-1l10.22-15.85-16.78-8.62c-.32-.16-.54-.46-.6-.81-.06-.36.04-.71.29-.98l12.82-13.83-15.03-11.4c-.29-.22-.45-.55-.45-.91s.16-.69.45-.91l15.03-11.4-12.82-13.83c-.25-.26-.35-.62-.29-.97.06-.35.28-.65.6-.81l16.78-8.61-10.22-15.85c-.2-.3-.24-.67-.11-1,.12-.34.39-.59.73-.7l18.02-5.57-7.31-17.38c-.14-.33-.12-.7.06-1.01.18-.31.49-.52.85-.56l18.71-2.36-4.18-18.39c-.11-.47.09-.8.22-.97.22-.27.54-.43.94-.43h0l18.84.93-.93-18.84c-.01-.31.1-.61.31-.84.28-.29.69-.42,1.08-.33l18.39,4.18,2.36-18.71c.11-.85.97-1.16,1.57-.91l17.38,7.31,5.57-18.02c.26-.85,1.16-.98,1.71-.62l15.85,10.22,8.62-16.78c.23-.46.68-.62,1.02-.62.2,0,.5.05.77.31l13.83,12.82,11.4-15.03c.44-.58,1.38-.58,1.82,0l11.4,15.03,13.83-12.82c.28-.25.57-.3.77-.3.34,0,.78.16,1.02.62l8.62,16.78,15.85-10.22c.55-.36,1.45-.22,1.71.62l5.57,18.02,17.38-7.31c.61-.26,1.47.06,1.57.91l2.36,18.71,18.39-4.18c.39-.09.8.04,1.08.33.22.23.33.53.31.84l-.93,18.84,18.9-.93c.35,0,.67.16.89.43.13.16.33.5.22.96l-4.19,18.39,18.71,2.36c.36.04.66.25.84.56.18.31.2.68.06,1.01l-7.32,17.38,18.02,5.57c.34.11.61.36.74.7.12.34.08.71-.11,1.01l-10.23,15.85,16.78,8.61c.32.16.54.46.61.82.06.36-.04.71-.29.97l-12.82,13.83,15.03,11.4c.29.22.45.55.45.91s-.17.69-.45.91Z"/>
      <path class="cls-1" d="M156.97,318.53c-1.26,0-2.42-.58-3.19-1.58l-9.49-12.52-11.52,10.68c-.74.69-1.7,1.07-2.71,1.07-1.51,0-2.87-.83-3.56-2.17l-7.18-13.97-13.2,8.51c-.65.42-1.4.64-2.17.64-1.76,0-3.3-1.13-3.82-2.82l-4.64-15.01-14.47,6.09c-.5.21-1.02.32-1.55.32-2.01,0-3.71-1.5-3.96-3.5l-1.96-15.58-15.31,3.49c-1.34.31-2.83-.14-3.79-1.14-.76-.8-1.15-1.85-1.1-2.95l.78-15.68-15.88.77h0c-1.24,0-2.38-.55-3.13-1.5-.76-.95-1.04-2.18-.77-3.38l3.49-15.31-15.58-1.96c-1.25-.15-2.33-.87-2.96-1.97-.63-1.09-.71-2.39-.22-3.55l6.09-14.47-15.01-4.64c-1.21-.38-2.15-1.27-2.58-2.45-.43-1.18-.28-2.47.4-3.53l8.51-13.21-13.97-7.17c-1.12-.57-1.89-1.62-2.11-2.86-.22-1.24.15-2.49,1-3.42l10.68-11.52L-.44,162.73c-1-.76-1.58-1.92-1.58-3.18s.58-2.42,1.58-3.19l12.52-9.49-10.68-11.52c-.86-.92-1.22-2.17-1-3.41.22-1.24.99-2.28,2.11-2.86l13.97-7.17-8.51-13.2c-.69-1.06-.83-2.35-.4-3.53.43-1.19,1.37-2.08,2.58-2.45l15-4.64-6.09-14.48c-.49-1.17-.41-2.46.22-3.55.63-1.09,1.71-1.81,2.96-1.96l15.58-1.96-3.49-15.31c-.27-1.19.01-2.43.77-3.38.76-.96,1.9-1.51,3.12-1.51h.19s15.7.78,15.7.78l-.78-15.69c-.05-1.1.34-2.15,1.1-2.95.95-1,2.44-1.45,3.79-1.14l15.31,3.49,1.96-15.58c.25-1.99,1.95-3.5,3.96-3.5.53,0,1.05.11,1.55.31l14.48,6.09,4.64-15c.52-1.69,2.06-2.82,3.82-2.82.77,0,1.51.22,2.17.64l13.2,8.51,7.18-13.97c.68-1.34,2.05-2.17,3.56-2.17,1.01,0,1.97.38,2.71,1.07l11.52,10.67,9.49-12.51c.76-1,1.92-1.58,3.19-1.58s2.42.58,3.19,1.58l9.49,12.51,11.52-10.67c.74-.69,1.71-1.07,2.71-1.07,1.51,0,2.87.83,3.56,2.17l7.17,13.97,13.2-8.51c.65-.42,1.39-.64,2.16-.64,1.76,0,3.3,1.13,3.82,2.82l4.64,15,14.47-6.09c.5-.21,1.02-.31,1.55-.31,2.01,0,3.71,1.5,3.97,3.5l1.96,15.58,15.31-3.49c1.35-.3,2.83.15,3.78,1.14.76.79,1.15,1.84,1.1,2.95l-.77,15.69,15.87-.78h0c1.24,0,2.38.55,3.13,1.5.76.96,1.04,2.19.78,3.38l-3.49,15.32,15.58,1.96c1.25.16,2.33.87,2.96,1.96.63,1.1.71,2.39.22,3.55l-6.09,14.48,15,4.64c1.2.37,2.14,1.26,2.57,2.45.43,1.19.29,2.48-.39,3.54l-8.52,13.2,13.98,7.17c1.12.58,1.89,1.62,2.11,2.86.22,1.24-.15,2.49-1.01,3.41l-10.68,11.52,12.52,9.49c1.01.76,1.58,1.92,1.58,3.18s-.58,2.42-1.58,3.18l-12.52,9.49,10.68,11.52c.86.93,1.23,2.17,1.01,3.42-.21,1.24-.98,2.28-2.11,2.86l-13.98,7.17,8.52,13.21c.68,1.06.83,2.34.39,3.53-.43,1.18-1.37,2.08-2.57,2.45l-15,4.64,6.09,14.47c.49,1.16.41,2.46-.22,3.55-.63,1.1-1.71,1.81-2.96,1.97l-15.58,1.96,3.49,15.31c.27,1.19-.01,2.43-.78,3.38-.76.96-1.9,1.5-3.12,1.5h-.19s-15.69-.77-15.69-.77l.77,15.68c.05,1.11-.34,2.16-1.1,2.95-.96,1-2.45,1.44-3.78,1.14l-15.31-3.49-1.96,15.58c-.25,2-1.96,3.5-3.97,3.5-.53,0-1.05-.11-1.55-.32l-14.47-6.09-4.64,15.01c-.52,1.69-2.06,2.82-3.82,2.82-.77,0-1.52-.22-2.16-.64l-13.2-8.51-7.17,13.97c-.69,1.34-2.05,2.17-3.56,2.17-1.01,0-1.97-.38-2.72-1.07l-11.52-10.68-9.49,12.52c-.77,1.01-1.93,1.58-3.19,1.58ZM144.37,303.5l9.91,13.07c.64.85,1.62,1.33,2.68,1.33s2.04-.48,2.68-1.33l9.91-13.07,12.03,11.15c.62.58,1.44.9,2.29.9,1.27,0,2.42-.7,3-1.83l7.49-14.59,13.78,8.89c.55.35,1.18.54,1.82.54,1.48,0,2.78-.96,3.22-2.37l4.84-15.67,15.12,6.36c.42.18.86.27,1.3.27,1.69,0,3.13-1.27,3.34-2.95l2.05-16.27,15.99,3.64c1.14.26,2.39-.12,3.19-.96.64-.67.97-1.56.92-2.49l-.81-16.38,16.56.81c1.02,0,1.98-.46,2.62-1.26.64-.8.88-1.85.65-2.85l-3.64-15.99.35-.04,15.93-2c1.05-.13,1.96-.73,2.5-1.66.53-.92.6-2.01.19-2.99l-6.36-15.12.33-.1,15.34-4.74c1.02-.32,1.81-1.07,2.17-2.07.36-1,.24-2.08-.33-2.97l-8.89-13.79,14.6-7.49c.95-.49,1.59-1.36,1.77-2.41.19-1.05-.12-2.1-.85-2.88l-11.15-12.03.28-.21,12.79-9.7c.85-.64,1.33-1.62,1.33-2.68s-.49-2.04-1.33-2.68l-13.07-9.91,11.15-12.03c.72-.78,1.03-1.83.85-2.88-.18-1.04-.83-1.92-1.78-2.41l-14.59-7.49.19-.29,8.71-13.49c.58-.89.7-1.98.33-2.98-.37-1-1.15-1.75-2.17-2.06l-15.67-4.84,6.36-15.12c.41-.98.34-2.07-.19-2.99-.53-.92-1.45-1.52-2.5-1.65l-16.27-2.05.08-.34,3.56-15.65c.23-1,0-2.04-.65-2.85-.64-.81-1.6-1.27-2.63-1.27l-16.55.81.81-16.38c.04-.93-.29-1.81-.92-2.48-.8-.84-2.05-1.22-3.19-.96l-15.99,3.64-.04-.34-2.01-15.93c-.21-1.68-1.65-2.95-3.34-2.95-.45,0-.89.09-1.31.26l-15.12,6.36-.1-.33-4.74-15.34c-.44-1.42-1.74-2.37-3.22-2.37-.65,0-1.28.19-1.82.54l-13.78,8.89-.16-.31-7.33-14.28c-.58-1.13-1.73-1.83-3-1.83-.85,0-1.66.32-2.29.9l-12.03,11.15-9.91-13.07c-.64-.85-1.62-1.33-2.68-1.33s-2.04.49-2.68,1.33l-9.91,13.07-12.03-11.15c-.62-.58-1.44-.9-2.29-.9-1.27,0-2.42.7-3,1.83l-7.49,14.59-13.79-8.89c-.54-.35-1.17-.54-1.82-.54-1.49,0-2.78.95-3.22,2.37l-4.84,15.67-15.12-6.36c-.42-.18-.86-.26-1.31-.26-1.69,0-3.13,1.27-3.34,2.95l-2.05,16.27-.34-.08-15.65-3.56c-1.13-.26-2.39.12-3.19.96-.64.67-.97,1.56-.92,2.49l.81,16.38-16.56-.82c-1.02,0-1.98.46-2.62,1.27-.64.8-.88,1.84-.65,2.85l3.64,15.99-16.27,2.05c-1.05.13-1.96.73-2.49,1.66-.53.92-.6,2.01-.19,2.99l6.36,15.12-15.67,4.84c-1.02.31-1.81,1.07-2.17,2.06-.36,1-.24,2.08.34,2.98l8.89,13.79-14.59,7.49c-.95.49-1.59,1.37-1.78,2.41-.19,1.05.12,2.09.85,2.87l11.15,12.03L-.05,156.87c-.85.64-1.33,1.62-1.33,2.68,0,1.06.49,2.04,1.33,2.68l13.07,9.91-11.15,12.03c-.72.78-1.03,1.83-.85,2.88.18,1.05.83,1.92,1.78,2.41l14.59,7.49-.19.29-8.7,13.5c-.58.89-.7,1.98-.34,2.97.36,1,1.15,1.75,2.17,2.07l15.67,4.84-6.36,15.12c-.41.98-.35,2.07.19,2.99.53.92,1.44,1.53,2.49,1.66l16.27,2.05-3.64,15.99c-.23,1.01,0,2.05.65,2.85.64.81,1.6,1.27,2.63,1.27l16.55-.81-.81,16.38c-.05.93.28,1.81.92,2.49.8.84,2.05,1.22,3.19.96l15.99-3.64,2.05,16.27c.21,1.68,1.65,2.95,3.34,2.95.45,0,.88-.09,1.31-.27l15.12-6.36,4.84,15.67c.44,1.42,1.73,2.37,3.22,2.37.65,0,1.28-.19,1.82-.54l13.79-8.89,7.49,14.59c.58,1.13,1.73,1.83,3,1.83.85,0,1.66-.32,2.28-.9l12.03-11.15ZM156.96,315.97c-.47,0-.89-.2-1.16-.56l-11.19-14.75-13.58,12.59c-.35.32-.73.39-.98.39-.43,0-1-.21-1.3-.79l-8.46-16.47-15.56,10.04c-.23.15-.52.23-.81.23-.65,0-1.17-.39-1.37-1.03l-5.46-17.69-17.06,7.18c-.18.07-.37.11-.56.11-.62,0-1.33-.4-1.44-1.27l-2.31-18.37-18.05,4.11c-.49.11-1.03-.05-1.38-.42-.28-.29-.42-.67-.4-1.07l.91-18.49-18.55.91h0c-.46,0-.87-.2-1.15-.55-.16-.21-.42-.63-.28-1.23l4.11-18.05-18.37-2.31c-.46-.06-.85-.32-1.08-.72-.23-.4-.26-.87-.08-1.29l7.18-17.06-17.69-5.47c-.44-.14-.78-.47-.94-.9-.16-.42-.1-.89.15-1.28l10.03-15.56-16.47-8.46c-.41-.21-.69-.59-.77-1.04-.08-.46.05-.91.37-1.25l12.58-13.57-14.75-11.19c-.37-.28-.58-.7-.58-1.16s.21-.88.58-1.16l14.75-11.19-12.58-13.58c-.31-.33-.45-.79-.37-1.24.08-.46.36-.83.77-1.04l16.47-8.46-10.04-15.56c-.25-.38-.3-.85-.14-1.28.16-.43.5-.76.94-.89l17.68-5.47-7.18-17.06c-.18-.42-.15-.89.08-1.29.23-.4.62-.66,1.08-.72l18.37-2.31-4.11-18.05c-.14-.59.12-1.03.28-1.23.29-.36.7-.55,1.19-.55l18.51.91-.91-18.49c-.02-.4.12-.79.4-1.07.36-.37.89-.52,1.38-.42l18.05,4.11,2.31-18.37c.14-1.14,1.28-1.46,2.01-1.16l17.06,7.18,5.46-17.68c.2-.63.72-1.03,1.37-1.03.29,0,.58.08.81.24l15.56,10.04,8.46-16.47c.3-.58.87-.79,1.3-.79.26,0,.64.07.99.39l13.57,12.58,11.19-14.75c.53-.7,1.79-.7,2.32,0l11.19,14.75,13.57-12.58c.28-.25.62-.39.99-.39.43,0,1,.21,1.3.79l8.46,16.47,15.56-10.04c.23-.15.52-.24.81-.24.65,0,1.17.39,1.37,1.03l5.47,17.68,17.06-7.18c.72-.31,1.87,0,2.01,1.16l2.31,18.37,18.05-4.11c.48-.12,1.03.05,1.38.42.28.28.42.67.4,1.07l-.91,18.49,18.55-.91h0c.46,0,.87.2,1.15.55.13.16.42.61.28,1.23l-4.11,18.05,18.37,2.31c.45.06.85.32,1.08.71.23.4.26.87.08,1.29l-7.18,17.06,17.69,5.47c.44.14.78.46.94.89.15.44.1.9-.14,1.29l-10.04,15.56,16.46,8.46c.41.21.69.58.77,1.04.08.45-.05.91-.37,1.24l-12.58,13.58,14.75,11.19c.37.28.58.7.58,1.16s-.21.88-.57,1.16l-14.75,11.19,12.58,13.57c.31.34.45.8.37,1.25-.08.46-.37.83-.77,1.04l-16.46,8.46,10.04,15.56c.25.38.3.85.15,1.28-.16.43-.5.76-.94.9l-17.69,5.47,7.18,17.06c.18.42.15.89-.08,1.29-.23.4-.62.66-1.08.72l-18.37,2.31,4.11,18.05c.13.6-.12,1.03-.28,1.23-.29.36-.7.55-1.19.55l-18.51-.91.91,18.49c.02.41-.12.79-.4,1.08-.35.37-.89.54-1.38.41l-18.04-4.11-2.31,18.37c-.14,1.16-1.28,1.47-2.01,1.16l-17.06-7.18-5.47,17.68c-.2.63-.72,1.03-1.37,1.03-.29,0-.57-.08-.81-.23l-15.56-10.04-8.46,16.47c-.3.58-.87.79-1.3.79-.26,0-.63-.07-.99-.39l-13.58-12.59-11.19,14.75c-.26.35-.7.56-1.16.56ZM144.7,299.73l11.61,15.31c.29.38,1.02.38,1.31,0l11.61-15.31.26.24,13.83,12.82c.16.15.35.22.56.22.24,0,.56-.12.74-.45l8.78-17.08,16.14,10.41c.13.09.3.13.47.13.18,0,.61-.06.77-.59l5.67-18.35,17.7,7.45c.41.18,1.06,0,1.14-.66l2.4-19.06,18.73,4.27c.29.07.58-.03.78-.24.16-.16.24-.38.23-.61l-.95-19.18,19.18.94c.29,0,.53-.11.69-.31.09-.11.24-.36.16-.7l-4.26-18.72.34-.04,18.71-2.36c.26-.03.48-.18.61-.41.13-.23.15-.49.05-.73l-7.45-17.71.33-.1,18.02-5.57c.25-.08.45-.27.54-.51.09-.24.05-.51-.09-.72l-10.41-16.14,17.09-8.78c.24-.12.39-.33.44-.59.04-.25-.03-.51-.21-.71l-13.05-14.08.28-.21,15.03-11.4c.21-.16.32-.4.32-.66s-.12-.5-.32-.66l-15.31-11.61,13.06-14.09c.18-.19.25-.45.21-.71-.05-.26-.2-.47-.44-.59l-17.09-8.77.19-.29,10.23-15.85c.14-.22.17-.48.08-.73-.09-.24-.29-.43-.54-.5l-18.35-5.67,7.45-17.7c.1-.24.08-.51-.05-.73-.13-.23-.35-.37-.61-.41l-19.06-2.4.07-.34,4.19-18.39c.08-.34-.07-.58-.16-.7-.16-.2-.39-.31-.64-.31l-19.23.94.95-19.18c.01-.23-.07-.44-.22-.6-.2-.21-.51-.3-.78-.24l-18.73,4.26-.04-.35-2.36-18.71c-.08-.65-.73-.83-1.14-.66l-17.7,7.45-.1-.33-5.57-18.02c-.11-.37-.4-.58-.77-.58-.17,0-.34.05-.47.14l-16.14,10.41-.16-.31-8.62-16.78c-.17-.33-.49-.45-.74-.45-.21,0-.4.08-.56.22l-14.08,13.05-11.61-15.3c-.29-.38-1.02-.38-1.31,0l-11.61,15.3-14.09-13.05c-.16-.15-.35-.22-.56-.22-.24,0-.57.12-.74.45l-8.77,17.09-16.14-10.41c-.13-.09-.3-.14-.47-.14-.37,0-.66.22-.77.59l-5.67,18.35-17.7-7.45c-.41-.17-1.06.01-1.14.66l-2.4,19.06-.34-.08-18.39-4.18c-.28-.07-.59.03-.79.24-.15.16-.23.38-.22.61l.95,19.18-19.19-.95c-.29,0-.52.1-.69.31-.11.14-.23.38-.16.7l4.26,18.73-19.06,2.4c-.26.03-.48.18-.61.41-.13.23-.15.49-.04.73l7.45,17.7-18.35,5.67c-.25.08-.44.26-.53.51-.09.25-.06.51.08.73l10.41,16.14-17.09,8.77c-.23.12-.39.33-.44.59-.04.25.03.51.21.7l13.05,14.09-15.3,11.61c-.21.16-.33.4-.33.66s.12.5.33.66l15.3,11.61-13.05,14.09c-.18.19-.26.45-.21.71.04.25.21.47.44.59l17.09,8.78-.19.29-10.22,15.85c-.14.22-.17.48-.08.72.09.25.28.43.53.51l18.35,5.67-7.45,17.71c-.1.24-.08.51.04.73.13.23.35.37.61.41l19.06,2.4-4.26,18.72c-.08.34.06.58.16.7.16.2.39.31.64.31l19.23-.94-.95,19.18c-.01.23.07.45.22.61.2.21.5.3.79.24l18.73-4.27,2.4,19.06c.08.65.73.84,1.14.66l17.7-7.45,5.67,18.35c.16.53.59.59.77.59s.34-.05.47-.13l16.14-10.41,8.77,17.09c.17.33.49.45.74.45.14,0,.36-.04.56-.22l14.09-13.06Z"/>
    </g>
    <path class="cls-1" d="M156.97,76.45c-45.82,0-83.1,37.28-83.1,83.1s37.28,83.1,83.1,83.1,83.1-37.28,83.1-83.1-37.28-83.1-83.1-83.1ZM156.97,238.49c-43.53,0-78.94-35.41-78.94-78.94s35.41-78.94,78.94-78.94,78.94,35.41,78.94,78.94-35.41,78.94-78.94,78.94Z"/>
  </g>
  <path class="cls-1" d="M156.97,290.39c-72.15,0-130.84-58.69-130.84-130.84S84.82,28.71,156.97,28.71s130.84,58.69,130.84,130.84-58.69,130.84-130.84,130.84ZM156.97,32.49c-70.06,0-127.06,57-127.06,127.06s57,127.06,127.06,127.06,127.06-57,127.06-127.06-57-127.06-127.06-127.06Z"/>
  <path class="cls-1" d="M101.41,251.13c0,1.78,1.44,3.22,3.22,3.22s3.22-1.44,3.22-3.22-1.44-3.22-3.22-3.22-3.22,1.44-3.22,3.22Z"/>
  <path class="cls-1" d="M206.27,251.89c0,1.78,1.45,3.22,3.22,3.22s3.22-1.44,3.22-3.22-1.44-3.22-3.22-3.22-3.22,1.44-3.22,3.22Z"/>
  <g>
    <path class="cls-1" d="M64.98,226.99c-.04-.16-.04-.27-.02-.34.03-.07.11-.19.25-.35l2.55-2.52s.1-.02.17.04c.07.06.09.12.06.2-.84,1.3-1.27,2.55-1.28,3.76,0,1.21.42,2.34,1.29,3.4.83,1.01,1.83,1.71,3,2.09,1.17.38,2.41.4,3.72.06,1.32-.34,2.61-1.03,3.87-2.07,1.25-1.03,2.17-2.18,2.76-3.46.59-1.28.82-2.55.69-3.82-.13-1.27-.62-2.41-1.47-3.44-.83-1.01-1.8-1.64-2.89-1.87-1.09-.23-2.43-.13-4.02.32-.05.02-.1,0-.14-.09-.04-.08-.05-.13-.02-.16l2.72-1.79c.18-.12.3-.19.37-.19s.18.03.33.1c1.54.83,2.89,1.94,4.05,3.35,1.22,1.49,2.04,3.04,2.43,4.68s.36,3.19-.13,4.69c-.48,1.49-1.39,2.78-2.71,3.87-1.31,1.08-2.75,1.7-4.34,1.86-1.59.16-3.16-.11-4.71-.81-1.55-.71-2.92-1.79-4.13-3.25-1.27-1.54-2.08-2.96-2.43-4.26Z"/>
    <path class="cls-1" d="M66.01,205.43s-.04-.1-.04-.15c0-.05,0-.08.03-.09,1.28-.53,2.41-1.07,3.39-1.63.12-.07.23-.1.31-.08.08.01.16.09.24.23l5.83,10.16s0,.1-.1.15c-.09.05-.15.06-.18,0-.3-.53-.56-.89-.78-1.09-.22-.2-.46-.27-.74-.23-.28.04-.65.2-1.12.47l-10.84,6.22c-.47.27-.79.51-.96.72-.17.21-.23.47-.17.77.06.3.23.71.53,1.22.03.05,0,.1-.1.15-.09.05-.15.06-.18.01l-5.59-9.74c-.09-.16-.06-.28.08-.35l3.02-1.79s.08.01.14.09c.07.08.08.14.04.18-1.56,1.4-1.83,2.99-.8,4.79l.54.94c.32.56.65.9.99,1.02s.75.04,1.23-.24l4.78-2.74-1.29-2.25c-.99-1.72-2.06-2.24-3.21-1.58-.05.03-.09,0-.14-.09-.05-.09-.05-.14,0-.17l2.05-1.15,1.09-.66c.48-.32.88-.57,1.19-.74.03-.02.07.02.13.11.05.09.07.15.03.17-1.34.77-1.51,2.03-.51,3.78l1.28,2.22,5.31-3.05c.52-.3.82-.6.91-.91.09-.31,0-.72-.29-1.22l-.66-1.15c-1.2-2.09-2.98-2.84-5.33-2.23-.03.02-.06,0-.1-.07Z"/>
    <path class="cls-1" d="M62.15,184.4c.1-.04.16-.03.18.02l1.5,4.08c.14.39-.27,1.36-1.23,2.91-.96,1.55-2.38,3.53-4.26,5.93.17.36.29.64.37.84.14.37.28.82.43,1.34l5.65-2.08c.52-.19.89-.38,1.09-.56.2-.18.3-.42.29-.71s-.12-.72-.33-1.3c-.01-.03.03-.07.13-.11s.16-.04.17,0c.21.56.36.99.45,1.3l.67,1.88.7,1.82c.14.31.31.75.51,1.31.02.05-.02.09-.12.13-.1.04-.16.03-.18-.02-.21-.57-.41-.98-.59-1.21-.18-.23-.41-.35-.69-.36-.28-.01-.68.08-1.18.26l-11.73,4.32c-.51.19-.86.37-1.06.55-.2.18-.3.42-.29.73,0,.3.11.74.32,1.29.01.04-.03.07-.13.11-.1.04-.16.04-.17,0l-.46-1.33c-.24-.76-.44-1.36-.61-1.82-.21-.56-.45-1.16-.75-1.8-.1-.21-.21-.47-.34-.78-.13-.31-.27-.65-.41-1.04-.54-1.47-.67-2.71-.39-3.72.28-1.01.93-1.71,1.96-2.09.93-.34,1.86-.39,2.79-.15.93.24,1.78.71,2.53,1.41,1.53-2.14,2.71-3.88,3.51-5.23.81-1.35,1.34-2.48,1.59-3.39s.25-1.71,0-2.4c-.02-.05.02-.09.12-.13ZM58.01,198.27c-.4-1.1-.97-1.78-1.69-2.05-.72-.27-1.69-.18-2.91.27-1.37.5-2.24,1.09-2.61,1.75-.37.66-.39,1.44-.07,2.31.24.66.54,1.08.88,1.27.35.19.84.17,1.48-.07l5.35-1.97c-.08-.43-.23-.93-.44-1.51Z"/>
    <path class="cls-1" d="M47.47,186.77c.8.57,1.91.91,3.32,1.02.04,0,.06.04.08.14s0,.15-.05.16c-.7.06-1.61.16-2.71.28-1.1.12-1.93.24-2.48.35-.09.02-.14-.02-.16-.12-.02-.1.02-.15.1-.17.39-.08.49-.61.29-1.6-.24-1.53-.56-3.31-.96-5.34-.2-1.04-.44-2.14-.7-3.3l-.38-1.79c-.13-.67-.27-1.15-.42-1.45s-.36-.46-.65-.49c-.07,0-.12-.05-.14-.14-.02-.09,0-.14.08-.15.56-.05,1.4-.16,2.52-.33,1.12-.16,2.03-.31,2.72-.45.05,0,.09.03.11.13.02.1,0,.16-.05.19-1.33.44-2.25,1.05-2.76,1.83-.52.78-.67,1.73-.45,2.84.1.49.21.85.35,1.07.13.22.32.35.56.39.24.04.59,0,1.07-.09l12.22-2.39c.55-.11.94-.24,1.16-.39.23-.16.35-.4.38-.74.03-.33-.03-.85-.16-1.54-.01-.05.04-.09.14-.11.11-.02.16,0,.17.05.12.62.21,1.11.26,1.46l.4,2.18.43,2.06c.09.37.2.88.33,1.53,0,.04-.04.06-.15.08-.11.02-.16.01-.17-.02-.13-.69-.28-1.19-.43-1.5-.15-.31-.37-.5-.65-.56-.28-.06-.68-.04-1.21.06l-12.27,2.4c-.46.09-.79.2-.98.33-.19.13-.31.32-.36.56-.04.25-.02.61.07,1.09.21,1.08.72,1.9,1.51,2.47Z"/>
    <path class="cls-1" d="M58.69,163.71c.25-.11.41-.3.48-.58s.09-.73.06-1.34c0-.05.05-.08.16-.09.11,0,.16.02.17.07.03.58.05,1.04.05,1.38l.09,2,.14,1.94c.04.34.07.81.11,1.4,0,.05-.05.08-.16.09-.11,0-.16-.02-.17-.07-.03-.61-.1-1.05-.21-1.33s-.29-.46-.56-.55c-.27-.09-.67-.12-1.21-.09l-12.48.71c-.54.03-.93.11-1.18.23-.25.12-.41.33-.49.61-.08.29-.11.73-.07,1.34,0,.05-.05.08-.16.09-.11,0-.16-.02-.17-.07l-.05-1.4c0-.79-.03-1.44-.06-1.95-.03-.56-.09-1.23-.17-2.02l-.1-1.35c0-.05.05-.08.16-.09.11,0,.16.02.17.07.03.59.11,1.03.24,1.3.12.27.32.45.58.54.27.08.67.11,1.21.08l12.43-.71c.56-.03.96-.1,1.21-.2Z"/>
    <path class="cls-1" d="M47.05,146.86s.06.05.07.15c.01.1-.01.16-.06.17-2.08.3-3.18,1.48-3.31,3.55l-.07,1.08c-.04.65.05,1.11.26,1.4.22.28.59.44,1.13.48l5.85.37.14-2.21c.13-2.01-.48-3.06-1.83-3.15-.04,0-.05-.06-.04-.17s.03-.16.06-.16l2.37.18c.56.04.97.05,1.24.05l1.4.06c.05,0,.08.06.07.17,0,.11-.04.16-.09.16-1.53-.1-2.36.89-2.49,2.95l-.14,2.16,5.79.37c.57.04,1,0,1.27-.14.27-.13.47-.4.61-.81.13-.41.23-1.06.29-1.94,0-.04.06-.05.17-.04.11,0,.16.03.16.06-.05.74-.09,1.31-.14,1.72l-.2,2.64-.1,1.97c0,.34-.03.82-.06,1.43,0,.05-.06.08-.17.07-.11,0-.16-.04-.16-.09.04-.65.03-1.12-.05-1.42-.07-.3-.23-.52-.49-.64s-.65-.2-1.19-.24l-12.48-.8c-.54-.03-.94,0-1.19.07-.26.08-.45.26-.56.55-.12.28-.19.72-.23,1.31,0,.05-.06.08-.17.07-.11,0-.16-.04-.16-.09l.71-11.21c.01-.18.1-.26.26-.25l3.51.17Z"/>
    <path class="cls-1" d="M60.54,140.16c.26-.04.47-.19.61-.45s.27-.69.38-1.29c0-.05.07-.07.17-.05.11.02.15.06.14.11-.11.57-.2,1.02-.28,1.35l-.39,1.96-.33,1.92c-.04.34-.12.8-.23,1.38,0,.05-.07.07-.17.05-.11-.02-.15-.06-.14-.11.11-.6.15-1.05.11-1.34-.04-.29-.17-.51-.41-.67-.24-.15-.62-.28-1.15-.38l-12.29-2.28c-.53-.1-.93-.12-1.2-.06-.27.06-.48.22-.62.47-.15.26-.28.69-.39,1.29-.01.05-.07.07-.17.05-.11-.02-.15-.06-.14-.11l.28-1.38c.18-.77.32-1.41.41-1.9.1-.55.21-1.22.32-2l.22-1.33c0-.05.07-.07.17-.05.11.02.15.06.14.11-.11.58-.13,1.02-.08,1.32.06.29.2.51.44.66.24.15.62.27,1.15.37l12.24,2.27c.55.1.96.13,1.22.09Z"/>
    <path class="cls-1" d="M61.79,123.16c.02-.05.04-.09.08-.13s.07-.05.08-.04c1.26.57,2.43,1.02,3.51,1.35.14.04.23.1.27.17.04.07.04.18,0,.34l-3.41,11.21c-.02.05-.08.06-.18.03-.1-.03-.15-.07-.13-.12.18-.58.26-1.02.26-1.32s-.12-.53-.34-.7c-.22-.17-.59-.33-1.11-.49l-11.96-3.64c-.52-.16-.91-.22-1.18-.2-.27.02-.49.15-.67.4-.18.25-.35.65-.53,1.22-.02.05-.08.06-.18.03-.1-.03-.15-.07-.13-.12l3.27-10.75c.05-.17.16-.24.31-.19l3.37.97s.05.07.03.17c-.01.1-.05.15-.1.15-2.09-.18-3.43.71-4.04,2.7l-.31,1.03c-.19.62-.21,1.09-.07,1.42.15.33.49.57,1.02.73l5.27,1.6.75-2.48c.58-1.89.23-3.04-1.05-3.42-.05-.02-.06-.07-.03-.17.03-.09.07-.13.12-.12l2.24.71,1.22.34c.56.13,1.01.25,1.36.36.03,0,.04.07,0,.17-.03.1-.06.15-.1.14-1.48-.45-2.51.29-3.1,2.22l-.75,2.45,5.86,1.78c.57.17,1,.19,1.29.04.29-.15.52-.5.69-1.05l.39-1.26c.7-2.31.03-4.11-2.02-5.41-.03-.01-.04-.05-.02-.12Z"/>
    <path class="cls-1" d="M69.26,117.06c-.14.23-.31.53-.52.89-.21.36-.43.77-.67,1.24l-.85,1.72c-.14.31-.35.74-.63,1.29-.02.03-.07.02-.17-.03-.1-.05-.14-.09-.12-.12.28-.54.44-.96.49-1.25.05-.29-.02-.54-.2-.76s-.51-.45-1-.69l-11.12-5.72c-.48-.25-.85-.38-1.12-.41s-.51.06-.73.28-.47.58-.74,1.11c-.02.03-.07.02-.17-.03-.1-.05-.14-.09-.12-.12l.68-1.26c.39-.69.7-1.24.91-1.66.33-.64.64-1.3.93-1.98.38-.82.64-1.36.78-1.63.84-1.63,1.91-2.92,3.2-3.85,1.29-.93,2.67-1.47,4.13-1.6,1.46-.13,2.88.16,4.26.87,1.55.8,2.74,1.87,3.56,3.2.82,1.33,1.24,2.78,1.27,4.32.02,1.55-.34,3.05-1.09,4.51-.25.5-.58,1.06-.96,1.69ZM70.34,112.01c-.09-1.13-.52-2.2-1.31-3.21s-1.9-1.89-3.34-2.63c-1.38-.71-2.74-1.12-4.09-1.24-1.35-.12-2.56.08-3.64.58s-1.9,1.3-2.47,2.41c-.35.67-.57,1.21-.68,1.62-.11.41-.1.75.03,1.03.13.28.42.53.87.76l10.81,5.56c.66.34,1.21.41,1.66.22.45-.19.93-.78,1.43-1.75.57-1.1.81-2.22.72-3.35Z"/>
    <path class="cls-1" d="M81.98,95.72c-1.58.59-3.13.73-4.64.42-1.51-.31-2.86-1-4.06-2.1-1.28-1.16-2.1-2.53-2.48-4.09-.38-1.56-.3-3.18.23-4.84.53-1.66,1.45-3.22,2.77-4.67.61-.67,1.25-1.26,1.93-1.8s1.31-.91,1.87-1.13c.16-.07.27-.1.33-.08.06.02.18.1.37.24l2.87,2.14s.03.1-.02.18c-.05.08-.11.11-.18.08-1.09-.49-2.33-.67-3.71-.56-1.38.11-2.6.75-3.67,1.92-.84.92-1.37,1.96-1.58,3.14s-.09,2.38.39,3.6c.48,1.23,1.29,2.36,2.43,3.4,1.21,1.1,2.53,1.87,3.95,2.3,1.42.43,2.81.47,4.18.12,1.37-.35,2.56-1.09,3.6-2.22.52-.57.86-1.08,1.02-1.52s.13-.89-.08-1.35-.65-1-1.32-1.6c-.69-.63-1.21-1.03-1.56-1.2s-.69-.16-1.03.03-.82.62-1.44,1.3c-.07.08-.16.07-.27-.03-.04-.04-.07-.08-.08-.13-.01-.05,0-.09.01-.12,1.07-1.04,1.91-1.9,2.52-2.56.61-.67,1.22-1.38,1.83-2.13.02-.03.06-.03.11-.02.05,0,.09.03.12.05.09.09.11.16.05.23-.26.25-.38.48-.38.68,0,.2.14.45.42.76.28.31.79.81,1.55,1.5.6.55,1.05.91,1.34,1.09.29.19.48.31.54.37.08.07.12.13.12.19,0,.05-.03.14-.08.25-1.16,2.01-2.33,3.68-3.54,5-1.37,1.5-2.85,2.55-4.43,3.14Z"/>
    <path class="cls-1" d="M106.81,74.92c.06.09.08.15.03.18l-3.49,2.59c-.33.25-1.38.13-3.14-.36-1.76-.49-4.06-1.29-6.89-2.42-.3.27-.53.46-.71.59-.32.24-.7.5-1.16.79l3.59,4.83c.33.45.61.74.84.89.23.14.48.17.76.07.28-.09.66-.32,1.15-.69.03-.02.08.01.14.1.06.09.08.14.05.16-.48.35-.85.62-1.12.8l-1.62,1.17-1.54,1.18c-.26.22-.63.5-1.11.86-.04.03-.1,0-.16-.08s-.07-.15-.03-.18c.49-.37.82-.67.99-.91.17-.24.22-.5.15-.77-.07-.27-.26-.63-.59-1.06l-7.45-10.04c-.32-.43-.6-.72-.83-.87-.23-.14-.49-.17-.78-.08s-.67.32-1.15.67c-.03.02-.08-.01-.14-.1-.06-.09-.08-.14-.05-.16l1.14-.82c.66-.44,1.18-.81,1.57-1.1.48-.35.98-.76,1.51-1.22.18-.15.39-.34.65-.55.26-.21.55-.44.88-.69,1.26-.93,2.41-1.41,3.46-1.43,1.05-.02,1.9.41,2.56,1.29.59.79.9,1.67.93,2.64.03.96-.18,1.91-.64,2.83,2.48.87,4.49,1.5,6.01,1.89,1.52.39,2.76.58,3.7.57.94-.01,1.71-.24,2.3-.68.04-.03.1,0,.16.08ZM92.35,74.87c.94-.7,1.44-1.43,1.49-2.2.06-.77-.3-1.68-1.08-2.72-.87-1.17-1.67-1.84-2.42-2.01-.74-.17-1.49.03-2.24.59-.56.42-.89.82-.97,1.21s.08.85.49,1.4l3.4,4.57c.39-.2.83-.48,1.32-.85Z"/>
    <path class="cls-1" d="M109.96,72.72c-1.52-.13-2.89-.64-4.11-1.54-1.23-.89-2.19-2.05-2.88-3.48-.81-1.67-1.09-3.3-.83-4.9.26-1.6.91-3.02,1.93-4.26,1.03-1.24,2.23-2.2,3.6-2.87,1.54-.75,3.06-1.05,4.58-.9,1.52.15,2.87.67,4.07,1.54s2.12,1.98,2.77,3.31c.72,1.47.99,3.01.81,4.62-.18,1.61-.74,3.09-1.7,4.43-.96,1.35-2.19,2.39-3.71,3.13-1.5.73-3.02,1.03-4.53.9ZM117.25,68.77c.51-.9.74-1.97.69-3.21-.05-1.24-.42-2.56-1.11-3.96-.73-1.49-1.62-2.7-2.69-3.64-1.07-.94-2.22-1.52-3.46-1.74-1.24-.22-2.47-.03-3.7.57-1.57.77-2.51,1.92-2.83,3.47-.32,1.55,0,3.31.98,5.3.75,1.54,1.68,2.8,2.8,3.8,1.12,1,2.3,1.63,3.54,1.89,1.24.27,2.43.12,3.56-.43.97-.47,1.71-1.16,2.22-2.06Z"/>
    <path class="cls-1" d="M128.94,64.7c-1.46-.44-2.69-1.23-3.71-2.35-1.02-1.13-1.72-2.46-2.1-3.99-.45-1.8-.39-3.45.2-4.96.59-1.51,1.51-2.77,2.77-3.77s2.63-1.69,4.12-2.07c1.66-.42,3.21-.4,4.67.07s2.67,1.24,3.67,2.35,1.67,2.37,2.03,3.81c.4,1.59.35,3.15-.16,4.69-.5,1.54-1.36,2.87-2.57,3.99-1.21,1.12-2.64,1.89-4.28,2.3-1.62.41-3.16.39-4.62-.05ZM136.89,62.34c.69-.78,1.13-1.77,1.33-2.99.2-1.22.11-2.59-.27-4.11-.4-1.61-1.03-2.98-1.88-4.12-.85-1.14-1.86-1.94-3.03-2.41-1.17-.47-2.41-.53-3.74-.2-1.69.43-2.85,1.36-3.48,2.81-.63,1.45-.67,3.25-.13,5.39.42,1.66,1.07,3.09,1.96,4.3.89,1.21,1.91,2.07,3.07,2.58s2.35.62,3.57.31c1.05-.26,1.91-.78,2.6-1.56Z"/>
    <path class="cls-1" d="M166.08,60.96c0,.11-.01.16-.05.16-.59.02-1.07.02-1.43.01l-1.94.02-1.89.08c-.32.03-.78.05-1.38.06-.04,0-.06-.05-.06-.16,0-.11.01-.16.05-.16.79-.02,1.32-.12,1.58-.31.27-.19.39-.57.38-1.14l-.04-.46-.84-11.43-5.4,13.59c-.03.07-.1.11-.21.11-.09,0-.17-.03-.25-.1l-7.1-13.16.03,10.26c0,.95.21,1.68.61,2.17.4.49.99.73,1.76.71.05,0,.08.05.09.16,0,.11-.02.16-.08.16-.49.01-.86.01-1.13,0h-1.49s-1.59.08-1.59.08c-.27.03-.65.04-1.13.06-.05,0-.08-.05-.08-.16,0-.11.02-.16.08-.16.74-.02,1.3-.29,1.69-.8.39-.51.58-1.25.58-2.2l-.06-11.61c-.34-.57-.71-.98-1.1-1.24-.39-.26-.84-.38-1.35-.37-.05,0-.08-.05-.08-.16,0-.11.02-.16.08-.17h1.16c.23,0,.54,0,.92,0l1.27-.06c.14-.02.32-.04.54-.04.23,0,.42.07.57.24.15.17.38.54.71,1.13l6.24,11.42,5.05-12.45c.1-.26.21-.43.34-.54.12-.1.28-.16.46-.16.12,0,.29,0,.49.01.2.01.44.01.73,0l1.46-.07c.23-.02.58-.04,1.05-.05.04,0,.05.05.06.16,0,.11-.02.16-.05.16-.86.02-1.48.2-1.86.52-.38.33-.54.85-.49,1.57l.92,12.32c.05.56.13.96.25,1.21.12.25.31.42.58.5.27.08.71.12,1.33.1.04,0,.06.05.06.16Z"/>
    <path class="cls-1" d="M172.72,61.53c.05.26.21.46.48.58.26.13.7.23,1.31.32.05,0,.07.06.06.17-.01.11-.05.16-.1.15-.57-.08-1.03-.15-1.36-.22l-1.97-.3-1.93-.24c-.34-.03-.81-.08-1.39-.17-.05,0-.07-.06-.06-.17.01-.11.05-.16.1-.15.61.08,1.05.1,1.34.05s.5-.2.65-.44c.14-.24.25-.63.33-1.17l1.72-12.38c.07-.54.07-.93,0-1.2s-.24-.46-.5-.6c-.26-.14-.7-.25-1.3-.33-.05,0-.07-.06-.06-.17.01-.11.05-.16.1-.15l1.39.22c.78.15,1.42.25,1.92.32.55.08,1.22.15,2.01.23l1.34.16c.05,0,.07.06.06.17-.01.11-.05.16-.1.15-.59-.08-1.03-.09-1.32-.02-.29.07-.5.23-.64.47-.13.24-.24.63-.31,1.17l-1.71,12.33c-.08.55-.09.96-.03,1.22Z"/>
    <path class="cls-1" d="M199.17,51.98c-.03.1-.06.15-.1.14-.69-.2-1.3-.11-1.82.27-.53.38-.92,1.03-1.19,1.94l-3.93,13.4c-.01.05-.07.07-.16.07-.09,0-.15-.03-.17-.08l-8.01-17.68-3.09,10.54c-.27.92-.29,1.67-.07,2.26.22.59.68.99,1.37,1.19.04,0,.04.07,0,.17-.03.1-.06.15-.1.14-.47-.14-.82-.25-1.06-.34l-1.37-.43-1.54-.42c-.28-.06-.68-.17-1.2-.32-.05-.02-.06-.08-.03-.18.03-.1.07-.15.12-.13.74.22,1.39.14,1.94-.22s.96-1,1.22-1.92l3.32-11.35c-.33-.66-.66-1.15-.99-1.47-.33-.32-.7-.54-1.12-.66-.03,0-.04-.07,0-.17.03-.1.06-.15.1-.14l1.03.33c.22.08.54.18.95.31l1.67.46c.21.04.46.11.76.19.14.04.23.11.28.19s.11.26.19.51l.38,1.01,6.11,13.72,2.69-9.17c.27-.92.29-1.67.07-2.27s-.67-1-1.34-1.19c-.04,0-.04-.07,0-.17.03-.1.06-.15.1-.14l1.05.34c.54.2,1,.35,1.36.45.34.1.82.22,1.42.36l1.15.31s.04.07,0,.17Z"/>
    <path class="cls-1" d="M200.34,70.08c-.97-1.38-1.5-2.84-1.59-4.38-.09-1.54.24-3.03.99-4.46.8-1.53,1.91-2.68,3.32-3.44,1.41-.76,2.99-1.1,4.73-1.01,1.74.09,3.48.59,5.22,1.5.8.42,1.54.89,2.23,1.41s1.21,1.03,1.57,1.52c.11.14.17.24.16.3,0,.06-.05.2-.14.42l-1.34,3.32s-.09.06-.18.03c-.1-.03-.14-.08-.12-.15.19-1.18.06-2.42-.4-3.73-.46-1.3-1.39-2.32-2.79-3.06-1.1-.58-2.25-.82-3.44-.73-1.19.09-2.32.52-3.39,1.29-1.06.77-1.96,1.85-2.67,3.22-.76,1.45-1.17,2.92-1.22,4.4s.26,2.84.95,4.07c.69,1.23,1.71,2.2,3.06,2.91.69.36,1.26.56,1.73.6.47.04.9-.1,1.29-.42.39-.32.8-.88,1.21-1.68.43-.83.69-1.43.76-1.81.07-.38-.02-.71-.29-.99-.27-.28-.81-.64-1.62-1.06-.1-.05-.11-.14-.04-.27.03-.05.06-.09.1-.11s.08-.03.12-.02c1.28.77,2.32,1.37,3.12,1.78.8.42,1.64.83,2.53,1.23.03.02.05.05.05.1,0,.05,0,.09-.02.13-.06.11-.13.15-.21.1-.31-.18-.56-.25-.75-.19-.19.05-.4.25-.63.6-.23.35-.59.97-1.06,1.88-.38.72-.62,1.24-.72,1.58-.1.33-.18.54-.22.62-.05.1-.1.15-.15.17-.05.02-.14,0-.27-.02-2.24-.6-4.16-1.32-5.73-2.14-1.8-.94-3.19-2.1-4.17-3.49Z"/>
    <path class="cls-1" d="M229.87,71.73c-.98.02-2.07.41-3.27,1.17-.02.03-.07,0-.15-.06-.07-.07-.09-.12-.06-.16.53-.47,1.2-1.09,2.01-1.84s1.4-1.34,1.78-1.76c.06-.07.13-.07.2,0,.07.07.08.13.02.2-.27.29-.03.78.72,1.46,1.11,1.08,2.43,2.32,3.96,3.71.79.71,1.63,1.46,2.54,2.23l1.38,1.21c.51.46.91.76,1.2.91.29.15.56.15.81,0,.06-.04.13-.03.19.03.07.06.08.12.03.17-.41.38-1.02.97-1.83,1.77-.8.8-1.44,1.46-1.91,1.98-.04.04-.09.03-.16-.04s-.1-.13-.07-.18c.8-1.15,1.17-2.19,1.12-3.12-.05-.93-.5-1.78-1.34-2.55-.37-.34-.68-.56-.92-.65-.24-.1-.47-.09-.68.02-.21.11-.48.35-.81.71l-8.37,9.21c-.38.41-.61.75-.7,1.01-.09.26-.04.53.13.82.18.28.53.66,1.05,1.13.04.04.02.09-.05.17-.07.08-.13.1-.17.07-.47-.42-.83-.76-1.08-1.02l-1.62-1.51-1.58-1.4c-.29-.24-.69-.59-1.18-1.03-.03-.02,0-.08.07-.16.07-.08.12-.11.15-.08.52.47.93.79,1.24.94.31.16.59.18.85.07.26-.12.58-.37.94-.77l8.41-9.25c.31-.35.51-.63.59-.85s.06-.44-.05-.67c-.11-.22-.35-.5-.71-.83-.81-.74-1.71-1.1-2.69-1.08Z"/>
    <path class="cls-1" d="M241.69,100.52s.05.09.06.14c0,.05,0,.08-.01.1-1.18.71-2.22,1.41-3.11,2.12-.11.09-.21.13-.29.13-.08,0-.17-.07-.27-.2l-7.28-9.19s0-.1.08-.16c.08-.07.14-.08.18-.04.38.48.69.8.94.96s.5.2.77.12c.27-.08.61-.29,1.03-.63l9.8-7.76c.42-.34.7-.62.84-.85.13-.23.15-.5.05-.78s-.34-.66-.71-1.13c-.03-.04,0-.1.08-.16.08-.07.14-.08.18-.04l6.97,8.8c.11.14.1.26-.02.36l-2.72,2.22s-.08,0-.16-.07c-.08-.07-.1-.12-.07-.17,1.34-1.61,1.37-3.23.08-4.85l-.67-.85c-.4-.51-.78-.79-1.13-.86-.35-.07-.75.07-1.18.42l-4.32,3.42,1.61,2.03c1.23,1.55,2.37,1.91,3.41,1.09.04-.03.09-.01.16.07.06.08.07.13.03.17l-1.86,1.44-.98.81c-.43.39-.79.69-1.07.91-.03.02-.08,0-.14-.09-.07-.08-.09-.14-.06-.16,1.21-.96,1.2-2.23-.06-3.81l-1.59-2.01-4.8,3.81c-.46.37-.72.71-.76,1.04-.04.32.11.71.47,1.16l.82,1.04c1.5,1.89,3.36,2.36,5.6,1.42.03-.02.06,0,.11.05Z"/>
    <path class="cls-1" d="M261.49,110.57c0,.16,0,.27-.05.33-.04.06-.14.16-.31.3l-2.97,2s-.1,0-.16-.07c-.06-.07-.07-.14-.02-.21,1.07-1.12,1.72-2.27,1.95-3.46.23-1.19.02-2.38-.64-3.58-.63-1.15-1.48-2.02-2.56-2.61-1.08-.59-2.29-.84-3.65-.75-1.36.09-2.76.53-4.19,1.31-1.42.78-2.54,1.74-3.36,2.89-.82,1.15-1.28,2.36-1.38,3.62-.11,1.27.16,2.49.8,3.65.63,1.15,1.46,1.94,2.49,2.38,1.03.43,2.36.58,4.01.43.06-.01.1.03.12.12.03.09.03.14,0,.16l-3.01,1.25c-.2.09-.33.12-.4.11-.07-.01-.17-.07-.3-.16-1.36-1.1-2.48-2.45-3.36-4.04-.93-1.69-1.44-3.37-1.52-5.05-.09-1.68.24-3.2.99-4.58.75-1.38,1.88-2.48,3.38-3.3,1.48-.81,3.02-1.16,4.61-1.02,1.59.13,3.08.69,4.47,1.67,1.39.98,2.54,2.3,3.45,3.96.96,1.75,1.49,3.3,1.59,4.64Z"/>
    <path class="cls-1" d="M254.41,139.03c-.1.03-.16.02-.18-.03-.18-.58-.33-1.06-.42-1.42l-.57-1.89-.72-2.18c-.11-.3-.25-.71-.42-1.23-.02-.05.03-.09.13-.12.1-.03.16-.02.18.03.21.65.4,1.11.58,1.38.18.26.4.41.68.44.27.03.68-.04,1.21-.21l5.95-1.88-2.79-8.83-5.95,1.88c-.52.16-.88.33-1.1.52-.22.18-.32.44-.31.76,0,.33.12.82.32,1.47.01.03-.04.07-.14.1-.1.03-.16.03-.17,0-.19-.58-.32-1.04-.41-1.37l-.65-2.14-.62-1.87c-.12-.32-.27-.77-.46-1.36-.01-.03.04-.07.14-.1s.16-.03.17,0c.2.62.38,1.06.56,1.32.18.27.41.41.69.43s.68-.04,1.19-.21l11.92-3.77c.52-.16.88-.33,1.08-.51.21-.18.31-.43.31-.75,0-.32-.09-.78-.28-1.38,0-.04.04-.07.14-.1.1-.03.16-.03.17,0l.41,1.37c.21.8.39,1.42.54,1.87.19.6.43,1.31.73,2.12l.46,1.36s-.04.07-.14.1c-.1.03-.16.03-.17,0-.2-.63-.4-1.09-.6-1.35-.2-.27-.44-.42-.72-.45-.28-.03-.68.03-1.2.19l-5.25,1.66,2.79,8.83,5.25-1.66c.52-.16.88-.33,1.1-.52.21-.18.33-.44.34-.77,0-.33-.09-.82-.29-1.45-.02-.05.03-.09.13-.13.1-.03.16-.02.18.03l.37,1.24c.23.83.44,1.57.64,2.21.15.46.36,1.08.64,1.86l.47,1.41c.02.05-.03.09-.13.13-.1.03-.16.02-.18-.03-.19-.62-.39-1.05-.57-1.31s-.41-.39-.68-.42c-.27-.03-.67.04-1.18.2l-11.92,3.77c-.52.16-.88.34-1.1.52-.22.18-.32.43-.32.74,0,.31.1.77.3,1.39.02.05-.03.09-.13.13Z"/>
    <path class="cls-1" d="M273.04,157.3c-.11.01-.16,0-.17-.04-.07-.72-.39-1.25-.94-1.59-.55-.34-1.3-.46-2.25-.36l-13.88,1.43c-.05,0-.09-.04-.12-.12-.03-.09-.03-.15,0-.19l13.34-14.11-10.93,1.13c-.95.1-1.66.36-2.12.79-.46.43-.66,1-.58,1.72,0,.04-.05.06-.16.07-.11.01-.16,0-.17-.04-.05-.48-.08-.85-.09-1.1l-.12-1.43-.19-1.58c-.05-.29-.1-.7-.15-1.23,0-.05.04-.09.15-.1.11-.01.16,0,.17.06.08.77.39,1.34.94,1.71.54.37,1.29.5,2.24.41l11.76-1.21c.49-.56.81-1.05.99-1.47s.24-.85.19-1.28c0-.04.05-.06.16-.07.11-.01.16,0,.17.04l.08,1.08c0,.23.03.57.08,1l.2,1.72c.04.21.08.47.11.78.02.14,0,.25-.07.33s-.2.2-.4.37l-.79.73-10.39,10.84,9.51-.98c.95-.1,1.66-.36,2.13-.79.47-.43.67-.99.6-1.69,0-.04.05-.06.16-.07.11-.01.16,0,.17.04l.09,1.1c.02.58.05,1.05.09,1.43.04.36.1.84.2,1.45l.15,1.18s-.05.06-.16.07Z"/>
    <path class="cls-1" d="M256.76,165.47c-.26.08-.43.25-.54.53-.1.27-.17.72-.2,1.33,0,.05-.06.08-.17.07-.11,0-.16-.04-.16-.09.03-.58.06-1.04.09-1.38l.12-1.99.06-1.94c0-.34,0-.81.04-1.4,0-.05.06-.08.16-.07.11,0,.16.04.16.09-.03.61,0,1.06.07,1.34.08.28.24.48.5.61.26.12.65.19,1.19.21l12.49.57c.54.03.94-.01,1.19-.11s.44-.28.55-.56c.11-.27.18-.72.21-1.33,0-.05.06-.08.17-.07.11,0,.16.03.16.09l-.09,1.4c-.07.79-.12,1.44-.14,1.94-.02.56-.04,1.23-.04,2.03l-.04,1.35c0,.05-.06.08-.17.07-.11,0-.16-.04-.16-.09.03-.59,0-1.03-.1-1.32-.09-.28-.27-.48-.53-.59-.26-.11-.65-.18-1.19-.2l-12.43-.57c-.56-.03-.96,0-1.22.08Z"/>
    <path class="cls-1" d="M268.99,187.66c-.1.13-.18.2-.25.23-.07.02-.21.03-.43.03l-3.56-.35c-.05,0-.08-.06-.08-.15,0-.09.04-.15.11-.17,1.54-.19,2.77-.66,3.71-1.43.93-.77,1.53-1.82,1.78-3.17.25-1.29.14-2.51-.31-3.64-.45-1.14-1.23-2.11-2.34-2.9-1.1-.8-2.46-1.35-4.07-1.65-1.59-.3-3.07-.27-4.43.09-1.36.37-2.49,1-3.37,1.92-.89.91-1.46,2.02-1.7,3.33-.25,1.29-.11,2.43.41,3.42.52.99,1.46,1.95,2.82,2.88.05.03.06.08.02.17-.04.09-.07.12-.11.12l-3.12-.95c-.21-.06-.33-.11-.38-.17-.04-.05-.09-.16-.13-.31-.35-1.71-.36-3.47-.02-5.25.36-1.89,1.04-3.51,2.04-4.86s2.22-2.32,3.68-2.9c1.46-.58,3.03-.72,4.71-.4,1.66.31,3.07,1.03,4.21,2.14s1.94,2.49,2.39,4.14.5,3.39.15,5.25c-.37,1.96-.95,3.49-1.72,4.59Z"/>
    <path class="cls-1" d="M251.17,192.79c-.27,0-.49.12-.66.36-.17.24-.36.64-.56,1.22-.02.05-.08.06-.18.02-.1-.03-.14-.08-.13-.13.18-.55.34-.98.47-1.3l.67-1.88.6-1.85c.09-.33.24-.78.43-1.34.02-.05.08-.06.18-.03.1.04.15.08.13.13-.2.58-.3,1.02-.3,1.31,0,.29.1.53.31.72.21.19.57.37,1.09.54l11.84,4.03c.51.17.9.25,1.18.23s.5-.15.69-.38.38-.64.57-1.22c.02-.05.08-.06.18-.03.1.04.15.08.13.13l-.48,1.32c-.29.74-.51,1.35-.68,1.82-.18.53-.38,1.17-.6,1.93l-.41,1.29c-.02.05-.08.06-.18.03-.1-.04-.14-.08-.13-.13.19-.56.28-.99.27-1.29-.01-.3-.13-.54-.34-.71-.22-.18-.58-.35-1.09-.53l-11.79-4.01c-.53-.18-.93-.27-1.19-.26Z"/>
    <path class="cls-1" d="M240.93,212.96c-.1-.05-.12-.11-.08-.19.16-.3.42-.79.79-1.44.38-.66.64-1.14.8-1.44.2-.4.43-.88.67-1.45.25-.56.45-1,.6-1.3.03-.06.1-.07.19-.02.1.05.13.11.1.17-.24.46-.36.83-.36,1.1,0,.27.11.47.35.59.24.12.72.2,1.43.22l4.64.06,2.96-5.82-2.01-2.48c-.38-.45-.75-.78-1.14-.97-.56-.29-1.09-.3-1.58-.05-.49.25-.92.74-1.29,1.46-.04.08-.11.1-.21.05s-.12-.11-.08-.19c.15-.29.38-.7.69-1.23.34-.59.63-1.11.86-1.56.22-.43.46-.95.72-1.54.23-.53.43-.96.6-1.3.04-.08.11-.1.21-.05.1.05.12.11.08.19-.23.45-.33.87-.31,1.27.02.39.19.85.5,1.38s.81,1.21,1.51,2.07l9.01,11.1c.03.05.02.14-.04.25-.06.11-.11.16-.17.15l-14.89-.16c-1.44-.03-2.47.04-3.09.2-.62.16-1.04.46-1.26.89-.04.08-.11.1-.21.05ZM253.49,203.99l-2.68,5.27,7.01.09-4.33-5.36Z"/>
    <path class="cls-1" d="M242.02,238.25c-.08-.07-.12-.12-.09-.14.45-.56.59-1.16.43-1.79-.16-.63-.61-1.24-1.36-1.83l-10.95-8.65s-.04-.09,0-.17c.04-.08.09-.12.14-.13l19.4-.81-8.62-6.81c-.75-.59-1.44-.89-2.07-.91-.63-.02-1.17.26-1.61.82-.02.03-.08,0-.16-.06-.08-.06-.12-.11-.09-.14.3-.38.54-.67.71-.85l.91-1.11.97-1.27c.16-.24.41-.57.75-.99.03-.04.09-.03.18.04.08.07.11.12.08.16-.48.61-.65,1.23-.52,1.88s.57,1.26,1.32,1.85l9.28,7.33c.74-.06,1.31-.18,1.73-.37.42-.18.77-.45,1.03-.78.02-.03.08,0,.16.06s.12.12.09.14l-.69.83c-.16.17-.37.43-.64.77l-1.05,1.37c-.12.18-.28.39-.46.63-.09.11-.18.18-.29.19s-.28,0-.54-.01l-1.08-.03-15.01.53,7.5,5.93c.75.59,1.44.9,2.08.92s1.17-.24,1.61-.79c.02-.03.08,0,.16.06.08.07.12.12.09.14l-.71.85c-.39.43-.69.79-.93,1.09-.22.28-.51.67-.86,1.18l-.71.95s-.08,0-.16-.06Z"/>
  </g>
  <g>
    <path class="cls-1" d="M144.43,255.36c.13.11.21.2.24.27.02.08.03.23.02.46l-.48,3.81c-.01.06-.07.08-.17.08-.1,0-.16-.04-.18-.13-.15-1.66-.63-3-1.42-4.02-.8-1.02-1.91-1.69-3.35-2.01-1.38-.3-2.69-.23-3.92.23-1.24.45-2.3,1.26-3.19,2.42-.89,1.16-1.52,2.6-1.9,4.32-.37,1.7-.38,3.29-.03,4.76.35,1.47,1,2.7,1.96,3.68.95.98,2.13,1.62,3.53,1.93,1.38.3,2.61.19,3.68-.34,1.08-.53,2.14-1.51,3.18-2.94.03-.05.09-.06.18-.02.09.04.13.08.12.12l-1.11,3.32c-.07.22-.13.36-.19.4-.06.05-.17.09-.34.13-1.85.33-3.73.28-5.64-.14-2.02-.44-3.74-1.22-5.16-2.33-1.42-1.11-2.42-2.46-3-4.04s-.68-3.27-.29-5.06c.39-1.78,1.2-3.26,2.43-4.46,1.23-1.2,2.73-2.01,4.51-2.44,1.78-.43,3.66-.43,5.64,0,2.1.46,3.72,1.12,4.88,1.99Z"/>
    <path class="cls-1" d="M154.33,272.69c-1.63-.8-2.88-1.91-3.75-3.32-.87-1.41-1.32-2.98-1.35-4.72-.03-1.86.43-3.51,1.37-4.95.94-1.45,2.26-2.57,3.95-3.38,1.69-.81,3.59-1.23,5.69-1.27.97-.02,1.91.05,2.83.19.92.14,1.67.35,2.26.63.17.07.28.14.31.2s.06.21.08.46l.44,3.82c0,.06-.05.1-.16.12-.11.02-.17,0-.19-.08-.43-1.21-1.19-2.32-2.29-3.31-1.1-1-2.5-1.48-4.2-1.46-1.33.02-2.54.38-3.62,1.07-1.08.69-1.93,1.68-2.53,2.96-.61,1.28-.9,2.75-.87,4.41.03,1.76.4,3.35,1.11,4.78s1.7,2.55,2.98,3.36c1.28.81,2.74,1.2,4.38,1.18.83-.01,1.48-.12,1.94-.32.46-.2.79-.55,1-1.06.21-.51.3-1.24.28-2.21-.02-1-.08-1.7-.21-2.1-.12-.39-.38-.66-.78-.79s-1.09-.19-2.08-.17c-.12,0-.18-.07-.18-.23,0-.06.01-.11.04-.16s.06-.07.1-.07c1.61.07,2.89.1,3.86.08s1.97-.06,3.01-.14c.04,0,.07.02.1.07.03.05.04.09.04.13,0,.14-.04.2-.14.21-.39-.01-.66.05-.81.2s-.25.44-.29.89-.05,1.22-.04,2.32c.01.87.06,1.49.13,1.85.07.37.11.6.11.69,0,.12-.02.19-.05.23-.04.04-.12.08-.26.12-2.43.58-4.6.89-6.51.92-2.18.04-4.09-.35-5.72-1.15Z"/>
    <path class="cls-1" d="M173.31,256.07c-.59.87-.92,2.07-.99,3.6,0,.04-.04.07-.14.09s-.16,0-.17-.05c-.09-.75-.22-1.72-.38-2.9-.17-1.18-.31-2.06-.45-2.65-.02-.09.02-.15.12-.18s.17.01.19.11c.09.42.67.5,1.72.27,1.63-.31,3.54-.7,5.71-1.19,1.11-.25,2.29-.53,3.53-.85l1.92-.46c.72-.16,1.23-.33,1.54-.49.31-.17.48-.4.51-.71,0-.08.05-.13.14-.15.09-.02.15,0,.17.08.08.6.22,1.5.43,2.7.21,1.2.4,2.17.56,2.91.01.06-.03.1-.14.12-.1.02-.17,0-.2-.04-.51-1.41-1.2-2.38-2.05-2.91-.85-.53-1.87-.67-3.06-.4-.53.12-.91.25-1.14.41s-.37.35-.4.61,0,.64.12,1.15l2.92,13.05c.13.58.28,1,.46,1.24.17.24.44.37.8.39.36.02.91-.05,1.64-.22.06-.01.1.04.12.15s0,.18-.05.19c-.66.15-1.18.25-1.56.32l-2.33.49-2.2.52c-.39.11-.94.24-1.63.4-.04,0-.07-.04-.09-.16s-.02-.17.02-.18c.74-.17,1.27-.33,1.6-.51.33-.17.52-.41.58-.71.06-.3.03-.74-.1-1.3l-2.94-13.1c-.11-.49-.24-.84-.38-1.04-.14-.21-.35-.33-.62-.37-.27-.04-.65,0-1.16.11-1.15.26-2.02.82-2.61,1.7Z"/>
  </g>
  <path class="cls-1" d="M148.98,177.25c-1.47,3.22-1.02,5.94-4.41,7.84-3.96,2.22-5.21,7.46-4.1,11.58,1.51,5.57,6.36,6.81,11.38,5.03,1.71-.61,3.57-1.46,5.41-1.49,4.3-.07,6.98,4.01,11.54,1.86,3.3-1.58,5.48-5.12,5.48-8.83,0-4.07-2.72-6.81-5.94-8.78-.57-.35-1.01-.79-1.35-1.29-1.26-1.81-1.4-4.39-2.54-6.32-1.69-2.85-4.36-4.39-7.66-4.39s-6.46,1.82-7.8,4.78Z"/>
  <path class="cls-1" d="M144.06,182.68c3.16-1.96,3.3-7.58.31-12.55-3-4.98-7.99-7.42-11.15-5.47-3.16,1.96-3.29,7.58-.3,12.55,2.99,4.98,7.99,7.43,11.14,5.47Z"/>
  <path class="cls-1" d="M151.43,171.47c3.57-.75,5.54-5.92,4.39-11.54-1.15-5.62-4.98-9.57-8.54-8.82-3.57.75-5.54,5.91-4.39,11.54,1.15,5.62,4.98,9.57,8.54,8.82Z"/>
  <path class="cls-1" d="M170.03,182.98c3.11,1.93,8.02-.48,10.97-5.39,2.95-4.9,2.82-10.43-.29-12.36-3.11-1.93-8.03.48-10.97,5.39-2.95,4.9-2.82,10.44.3,12.36Z"/>
  <g>
    <line class="cls-2" x1="174.17" y1="123.38" x2="207.47" y2="175.83"/>
    <line class="cls-2" x1="174.17" y1="123.38" x2="188.46" y2="114.31"/>
    <line class="cls-2" x1="193.01" y1="153.05" x2="207.3" y2="143.98"/>
    <line class="cls-2" x1="189.87" y1="148.11" x2="204.16" y2="139.03"/>
    <line class="cls-2" x1="186.73" y1="143.16" x2="201.02" y2="134.09"/>
    <line class="cls-2" x1="183.59" y1="138.22" x2="197.88" y2="129.14"/>
    <line class="cls-2" x1="180.45" y1="133.27" x2="194.74" y2="124.2"/>
    <line class="cls-2" x1="177.31" y1="128.33" x2="191.6" y2="119.25"/>
    <line class="cls-2" x1="142.54" y1="122.94" x2="109.24" y2="175.38"/>
    <line class="cls-2" x1="142.54" y1="122.94" x2="128.25" y2="113.86"/>
    <line class="cls-2" x1="120.56" y1="157.55" x2="106.27" y2="148.48"/>
    <line class="cls-2" x1="123.7" y1="152.61" x2="109.41" y2="143.53"/>
    <line class="cls-2" x1="126.84" y1="147.66" x2="112.55" y2="138.59"/>
    <line class="cls-2" x1="129.98" y1="142.72" x2="115.69" y2="133.64"/>
    <line class="cls-2" x1="133.12" y1="137.77" x2="118.83" y2="128.7"/>
    <line class="cls-2" x1="136.26" y1="132.83" x2="121.97" y2="123.75"/>
    <line class="cls-2" x1="139.4" y1="127.88" x2="125.11" y2="118.81"/>
    <line class="cls-2" x1="196.15" y1="158" x2="210.44" y2="148.92"/>
  </g>
  <path class="cls-1" d="M162.79,171.47c3.58.75,7.4-3.2,8.54-8.82,1.15-5.62-.81-10.79-4.38-11.54-3.57-.76-7.4,3.2-8.55,8.82-1.14,5.62.82,10.79,4.39,11.54Z"/>
</svg>